%TF.GenerationSoftware,KiCad,Pcbnew,9.0.7*%
%TF.CreationDate,2026-02-17T22:10:37-08:00*%
%TF.ProjectId,3by3PCB,33627933-5043-4422-9e6b-696361645f70,rev?*%
%TF.SameCoordinates,Original*%
%TF.FileFunction,Copper,L1,Top*%
%TF.FilePolarity,Positive*%
%FSLAX46Y46*%
G04 Gerber Fmt 4.6, Leading zero omitted, Abs format (unit mm)*
G04 Created by KiCad (PCBNEW 9.0.7) date 2026-02-17 22:10:37*
%MOMM*%
%LPD*%
G01*
G04 APERTURE LIST*
G04 Aperture macros list*
%AMRoundRect*
0 Rectangle with rounded corners*
0 $1 Rounding radius*
0 $2 $3 $4 $5 $6 $7 $8 $9 X,Y pos of 4 corners*
0 Add a 4 corners polygon primitive as box body*
4,1,4,$2,$3,$4,$5,$6,$7,$8,$9,$2,$3,0*
0 Add four circle primitives for the rounded corners*
1,1,$1+$1,$2,$3*
1,1,$1+$1,$4,$5*
1,1,$1+$1,$6,$7*
1,1,$1+$1,$8,$9*
0 Add four rect primitives between the rounded corners*
20,1,$1+$1,$2,$3,$4,$5,0*
20,1,$1+$1,$4,$5,$6,$7,0*
20,1,$1+$1,$6,$7,$8,$9,0*
20,1,$1+$1,$8,$9,$2,$3,0*%
G04 Aperture macros list end*
%ADD10C,0.300000*%
%TA.AperFunction,NonConductor*%
%ADD11C,0.300000*%
%TD*%
%TA.AperFunction,NonConductor*%
%ADD12C,0.200000*%
%TD*%
%TA.AperFunction,ComponentPad*%
%ADD13C,2.500000*%
%TD*%
%TA.AperFunction,ComponentPad*%
%ADD14R,1.600000X1.600000*%
%TD*%
%TA.AperFunction,ComponentPad*%
%ADD15O,1.600000X1.600000*%
%TD*%
%TA.AperFunction,SMDPad,CuDef*%
%ADD16RoundRect,0.500000X-0.875000X-0.500000X0.875000X-0.500000X0.875000X0.500000X-0.875000X0.500000X0*%
%TD*%
%TA.AperFunction,ComponentPad*%
%ADD17C,1.600000*%
%TD*%
%TA.AperFunction,ViaPad*%
%ADD18C,0.600000*%
%TD*%
%TA.AperFunction,Conductor*%
%ADD19C,0.200000*%
%TD*%
G04 APERTURE END LIST*
D10*
D11*
X213753685Y-57235980D02*
X213682257Y-57164552D01*
X213682257Y-57164552D02*
X213610828Y-57021695D01*
X213610828Y-57021695D02*
X213610828Y-56664552D01*
X213610828Y-56664552D02*
X213682257Y-56521695D01*
X213682257Y-56521695D02*
X213753685Y-56450266D01*
X213753685Y-56450266D02*
X213896542Y-56378837D01*
X213896542Y-56378837D02*
X214039400Y-56378837D01*
X214039400Y-56378837D02*
X214253685Y-56450266D01*
X214253685Y-56450266D02*
X215110828Y-57307409D01*
X215110828Y-57307409D02*
X215110828Y-56378837D01*
X214967971Y-55735981D02*
X215039400Y-55664552D01*
X215039400Y-55664552D02*
X215110828Y-55735981D01*
X215110828Y-55735981D02*
X215039400Y-55807409D01*
X215039400Y-55807409D02*
X214967971Y-55735981D01*
X214967971Y-55735981D02*
X215110828Y-55735981D01*
X213610828Y-55164552D02*
X213610828Y-54235980D01*
X213610828Y-54235980D02*
X214182257Y-54735980D01*
X214182257Y-54735980D02*
X214182257Y-54521695D01*
X214182257Y-54521695D02*
X214253685Y-54378838D01*
X214253685Y-54378838D02*
X214325114Y-54307409D01*
X214325114Y-54307409D02*
X214467971Y-54235980D01*
X214467971Y-54235980D02*
X214825114Y-54235980D01*
X214825114Y-54235980D02*
X214967971Y-54307409D01*
X214967971Y-54307409D02*
X215039400Y-54378838D01*
X215039400Y-54378838D02*
X215110828Y-54521695D01*
X215110828Y-54521695D02*
X215110828Y-54950266D01*
X215110828Y-54950266D02*
X215039400Y-55093123D01*
X215039400Y-55093123D02*
X214967971Y-55164552D01*
X214253685Y-53378838D02*
X214182257Y-53521695D01*
X214182257Y-53521695D02*
X214110828Y-53593124D01*
X214110828Y-53593124D02*
X213967971Y-53664552D01*
X213967971Y-53664552D02*
X213896542Y-53664552D01*
X213896542Y-53664552D02*
X213753685Y-53593124D01*
X213753685Y-53593124D02*
X213682257Y-53521695D01*
X213682257Y-53521695D02*
X213610828Y-53378838D01*
X213610828Y-53378838D02*
X213610828Y-53093124D01*
X213610828Y-53093124D02*
X213682257Y-52950267D01*
X213682257Y-52950267D02*
X213753685Y-52878838D01*
X213753685Y-52878838D02*
X213896542Y-52807409D01*
X213896542Y-52807409D02*
X213967971Y-52807409D01*
X213967971Y-52807409D02*
X214110828Y-52878838D01*
X214110828Y-52878838D02*
X214182257Y-52950267D01*
X214182257Y-52950267D02*
X214253685Y-53093124D01*
X214253685Y-53093124D02*
X214253685Y-53378838D01*
X214253685Y-53378838D02*
X214325114Y-53521695D01*
X214325114Y-53521695D02*
X214396542Y-53593124D01*
X214396542Y-53593124D02*
X214539400Y-53664552D01*
X214539400Y-53664552D02*
X214825114Y-53664552D01*
X214825114Y-53664552D02*
X214967971Y-53593124D01*
X214967971Y-53593124D02*
X215039400Y-53521695D01*
X215039400Y-53521695D02*
X215110828Y-53378838D01*
X215110828Y-53378838D02*
X215110828Y-53093124D01*
X215110828Y-53093124D02*
X215039400Y-52950267D01*
X215039400Y-52950267D02*
X214967971Y-52878838D01*
X214967971Y-52878838D02*
X214825114Y-52807409D01*
X214825114Y-52807409D02*
X214539400Y-52807409D01*
X214539400Y-52807409D02*
X214396542Y-52878838D01*
X214396542Y-52878838D02*
X214325114Y-52950267D01*
X214325114Y-52950267D02*
X214253685Y-53093124D01*
X215110828Y-51378838D02*
X215110828Y-52235981D01*
X215110828Y-51807410D02*
X213610828Y-51807410D01*
X213610828Y-51807410D02*
X213825114Y-51950267D01*
X213825114Y-51950267D02*
X213967971Y-52093124D01*
X213967971Y-52093124D02*
X214039400Y-52235981D01*
X213610828Y-50878839D02*
X213610828Y-49950267D01*
X213610828Y-49950267D02*
X214182257Y-50450267D01*
X214182257Y-50450267D02*
X214182257Y-50235982D01*
X214182257Y-50235982D02*
X214253685Y-50093125D01*
X214253685Y-50093125D02*
X214325114Y-50021696D01*
X214325114Y-50021696D02*
X214467971Y-49950267D01*
X214467971Y-49950267D02*
X214825114Y-49950267D01*
X214825114Y-49950267D02*
X214967971Y-50021696D01*
X214967971Y-50021696D02*
X215039400Y-50093125D01*
X215039400Y-50093125D02*
X215110828Y-50235982D01*
X215110828Y-50235982D02*
X215110828Y-50664553D01*
X215110828Y-50664553D02*
X215039400Y-50807410D01*
X215039400Y-50807410D02*
X214967971Y-50878839D01*
D12*
X147676250Y-54783750D02*
X216818920Y-54783750D01*
X216818920Y-52402500D02*
X147676250Y-52402500D01*
X216232500Y-54783750D02*
X216232500Y-52402500D01*
X216232500Y-54783750D02*
X215646079Y-53657246D01*
X216232500Y-54783750D02*
X216818921Y-53657246D01*
X216232500Y-52402500D02*
X216818921Y-53529004D01*
X216232500Y-52402500D02*
X215646079Y-53529004D01*
D10*
D11*
X211372435Y-116767230D02*
X211301007Y-116695802D01*
X211301007Y-116695802D02*
X211229578Y-116552945D01*
X211229578Y-116552945D02*
X211229578Y-116195802D01*
X211229578Y-116195802D02*
X211301007Y-116052945D01*
X211301007Y-116052945D02*
X211372435Y-115981516D01*
X211372435Y-115981516D02*
X211515292Y-115910087D01*
X211515292Y-115910087D02*
X211658150Y-115910087D01*
X211658150Y-115910087D02*
X211872435Y-115981516D01*
X211872435Y-115981516D02*
X212729578Y-116838659D01*
X212729578Y-116838659D02*
X212729578Y-115910087D01*
X212586721Y-115267231D02*
X212658150Y-115195802D01*
X212658150Y-115195802D02*
X212729578Y-115267231D01*
X212729578Y-115267231D02*
X212658150Y-115338659D01*
X212658150Y-115338659D02*
X212586721Y-115267231D01*
X212586721Y-115267231D02*
X212729578Y-115267231D01*
X211229578Y-114695802D02*
X211229578Y-113767230D01*
X211229578Y-113767230D02*
X211801007Y-114267230D01*
X211801007Y-114267230D02*
X211801007Y-114052945D01*
X211801007Y-114052945D02*
X211872435Y-113910088D01*
X211872435Y-113910088D02*
X211943864Y-113838659D01*
X211943864Y-113838659D02*
X212086721Y-113767230D01*
X212086721Y-113767230D02*
X212443864Y-113767230D01*
X212443864Y-113767230D02*
X212586721Y-113838659D01*
X212586721Y-113838659D02*
X212658150Y-113910088D01*
X212658150Y-113910088D02*
X212729578Y-114052945D01*
X212729578Y-114052945D02*
X212729578Y-114481516D01*
X212729578Y-114481516D02*
X212658150Y-114624373D01*
X212658150Y-114624373D02*
X212586721Y-114695802D01*
X211872435Y-112910088D02*
X211801007Y-113052945D01*
X211801007Y-113052945D02*
X211729578Y-113124374D01*
X211729578Y-113124374D02*
X211586721Y-113195802D01*
X211586721Y-113195802D02*
X211515292Y-113195802D01*
X211515292Y-113195802D02*
X211372435Y-113124374D01*
X211372435Y-113124374D02*
X211301007Y-113052945D01*
X211301007Y-113052945D02*
X211229578Y-112910088D01*
X211229578Y-112910088D02*
X211229578Y-112624374D01*
X211229578Y-112624374D02*
X211301007Y-112481517D01*
X211301007Y-112481517D02*
X211372435Y-112410088D01*
X211372435Y-112410088D02*
X211515292Y-112338659D01*
X211515292Y-112338659D02*
X211586721Y-112338659D01*
X211586721Y-112338659D02*
X211729578Y-112410088D01*
X211729578Y-112410088D02*
X211801007Y-112481517D01*
X211801007Y-112481517D02*
X211872435Y-112624374D01*
X211872435Y-112624374D02*
X211872435Y-112910088D01*
X211872435Y-112910088D02*
X211943864Y-113052945D01*
X211943864Y-113052945D02*
X212015292Y-113124374D01*
X212015292Y-113124374D02*
X212158150Y-113195802D01*
X212158150Y-113195802D02*
X212443864Y-113195802D01*
X212443864Y-113195802D02*
X212586721Y-113124374D01*
X212586721Y-113124374D02*
X212658150Y-113052945D01*
X212658150Y-113052945D02*
X212729578Y-112910088D01*
X212729578Y-112910088D02*
X212729578Y-112624374D01*
X212729578Y-112624374D02*
X212658150Y-112481517D01*
X212658150Y-112481517D02*
X212586721Y-112410088D01*
X212586721Y-112410088D02*
X212443864Y-112338659D01*
X212443864Y-112338659D02*
X212158150Y-112338659D01*
X212158150Y-112338659D02*
X212015292Y-112410088D01*
X212015292Y-112410088D02*
X211943864Y-112481517D01*
X211943864Y-112481517D02*
X211872435Y-112624374D01*
X212729578Y-110910088D02*
X212729578Y-111767231D01*
X212729578Y-111338660D02*
X211229578Y-111338660D01*
X211229578Y-111338660D02*
X211443864Y-111481517D01*
X211443864Y-111481517D02*
X211586721Y-111624374D01*
X211586721Y-111624374D02*
X211658150Y-111767231D01*
X211229578Y-110410089D02*
X211229578Y-109481517D01*
X211229578Y-109481517D02*
X211801007Y-109981517D01*
X211801007Y-109981517D02*
X211801007Y-109767232D01*
X211801007Y-109767232D02*
X211872435Y-109624375D01*
X211872435Y-109624375D02*
X211943864Y-109552946D01*
X211943864Y-109552946D02*
X212086721Y-109481517D01*
X212086721Y-109481517D02*
X212443864Y-109481517D01*
X212443864Y-109481517D02*
X212586721Y-109552946D01*
X212586721Y-109552946D02*
X212658150Y-109624375D01*
X212658150Y-109624375D02*
X212729578Y-109767232D01*
X212729578Y-109767232D02*
X212729578Y-110195803D01*
X212729578Y-110195803D02*
X212658150Y-110338660D01*
X212658150Y-110338660D02*
X212586721Y-110410089D01*
D12*
X147676250Y-111933750D02*
X214437670Y-111933750D01*
X214437670Y-114315000D02*
X147676250Y-114315000D01*
X213851250Y-111933750D02*
X213851250Y-114315000D01*
X213851250Y-111933750D02*
X214437671Y-113060254D01*
X213851250Y-111933750D02*
X213264829Y-113060254D01*
X213851250Y-114315000D02*
X213264829Y-113188496D01*
X213851250Y-114315000D02*
X214437671Y-113188496D01*
D10*
D11*
X187417078Y-85501606D02*
X187417078Y-86215892D01*
X187417078Y-86215892D02*
X188131364Y-86287320D01*
X188131364Y-86287320D02*
X188059935Y-86215892D01*
X188059935Y-86215892D02*
X187988507Y-86073035D01*
X187988507Y-86073035D02*
X187988507Y-85715892D01*
X187988507Y-85715892D02*
X188059935Y-85573035D01*
X188059935Y-85573035D02*
X188131364Y-85501606D01*
X188131364Y-85501606D02*
X188274221Y-85430177D01*
X188274221Y-85430177D02*
X188631364Y-85430177D01*
X188631364Y-85430177D02*
X188774221Y-85501606D01*
X188774221Y-85501606D02*
X188845650Y-85573035D01*
X188845650Y-85573035D02*
X188917078Y-85715892D01*
X188917078Y-85715892D02*
X188917078Y-86073035D01*
X188917078Y-86073035D02*
X188845650Y-86215892D01*
X188845650Y-86215892D02*
X188774221Y-86287320D01*
X187417078Y-84930178D02*
X187417078Y-83930178D01*
X187417078Y-83930178D02*
X188917078Y-84573035D01*
X188774221Y-83358750D02*
X188845650Y-83287321D01*
X188845650Y-83287321D02*
X188917078Y-83358750D01*
X188917078Y-83358750D02*
X188845650Y-83430178D01*
X188845650Y-83430178D02*
X188774221Y-83358750D01*
X188774221Y-83358750D02*
X188917078Y-83358750D01*
X188917078Y-81858749D02*
X188917078Y-82715892D01*
X188917078Y-82287321D02*
X187417078Y-82287321D01*
X187417078Y-82287321D02*
X187631364Y-82430178D01*
X187631364Y-82430178D02*
X187774221Y-82573035D01*
X187774221Y-82573035D02*
X187845650Y-82715892D01*
X187417078Y-80501607D02*
X187417078Y-81215893D01*
X187417078Y-81215893D02*
X188131364Y-81287321D01*
X188131364Y-81287321D02*
X188059935Y-81215893D01*
X188059935Y-81215893D02*
X187988507Y-81073036D01*
X187988507Y-81073036D02*
X187988507Y-80715893D01*
X187988507Y-80715893D02*
X188059935Y-80573036D01*
X188059935Y-80573036D02*
X188131364Y-80501607D01*
X188131364Y-80501607D02*
X188274221Y-80430178D01*
X188274221Y-80430178D02*
X188631364Y-80430178D01*
X188631364Y-80430178D02*
X188774221Y-80501607D01*
X188774221Y-80501607D02*
X188845650Y-80573036D01*
X188845650Y-80573036D02*
X188917078Y-80715893D01*
X188917078Y-80715893D02*
X188917078Y-81073036D01*
X188917078Y-81073036D02*
X188845650Y-81215893D01*
X188845650Y-81215893D02*
X188774221Y-81287321D01*
D12*
X157201250Y-111933750D02*
X190625170Y-111933750D01*
X190625170Y-54783750D02*
X157201250Y-54783750D01*
X190038750Y-111933750D02*
X190038750Y-54783750D01*
X190038750Y-111933750D02*
X189452329Y-110807246D01*
X190038750Y-111933750D02*
X190625171Y-110807246D01*
X190038750Y-54783750D02*
X190625171Y-55910254D01*
X190038750Y-54783750D02*
X189452329Y-55910254D01*
D10*
D11*
X94717769Y-133267435D02*
X94789197Y-133196007D01*
X94789197Y-133196007D02*
X94932055Y-133124578D01*
X94932055Y-133124578D02*
X95289197Y-133124578D01*
X95289197Y-133124578D02*
X95432055Y-133196007D01*
X95432055Y-133196007D02*
X95503483Y-133267435D01*
X95503483Y-133267435D02*
X95574912Y-133410292D01*
X95574912Y-133410292D02*
X95574912Y-133553150D01*
X95574912Y-133553150D02*
X95503483Y-133767435D01*
X95503483Y-133767435D02*
X94646340Y-134624578D01*
X94646340Y-134624578D02*
X95574912Y-134624578D01*
X96217768Y-134481721D02*
X96289197Y-134553150D01*
X96289197Y-134553150D02*
X96217768Y-134624578D01*
X96217768Y-134624578D02*
X96146340Y-134553150D01*
X96146340Y-134553150D02*
X96217768Y-134481721D01*
X96217768Y-134481721D02*
X96217768Y-134624578D01*
X96789197Y-133124578D02*
X97717769Y-133124578D01*
X97717769Y-133124578D02*
X97217769Y-133696007D01*
X97217769Y-133696007D02*
X97432054Y-133696007D01*
X97432054Y-133696007D02*
X97574912Y-133767435D01*
X97574912Y-133767435D02*
X97646340Y-133838864D01*
X97646340Y-133838864D02*
X97717769Y-133981721D01*
X97717769Y-133981721D02*
X97717769Y-134338864D01*
X97717769Y-134338864D02*
X97646340Y-134481721D01*
X97646340Y-134481721D02*
X97574912Y-134553150D01*
X97574912Y-134553150D02*
X97432054Y-134624578D01*
X97432054Y-134624578D02*
X97003483Y-134624578D01*
X97003483Y-134624578D02*
X96860626Y-134553150D01*
X96860626Y-134553150D02*
X96789197Y-134481721D01*
X98574911Y-133767435D02*
X98432054Y-133696007D01*
X98432054Y-133696007D02*
X98360625Y-133624578D01*
X98360625Y-133624578D02*
X98289197Y-133481721D01*
X98289197Y-133481721D02*
X98289197Y-133410292D01*
X98289197Y-133410292D02*
X98360625Y-133267435D01*
X98360625Y-133267435D02*
X98432054Y-133196007D01*
X98432054Y-133196007D02*
X98574911Y-133124578D01*
X98574911Y-133124578D02*
X98860625Y-133124578D01*
X98860625Y-133124578D02*
X99003483Y-133196007D01*
X99003483Y-133196007D02*
X99074911Y-133267435D01*
X99074911Y-133267435D02*
X99146340Y-133410292D01*
X99146340Y-133410292D02*
X99146340Y-133481721D01*
X99146340Y-133481721D02*
X99074911Y-133624578D01*
X99074911Y-133624578D02*
X99003483Y-133696007D01*
X99003483Y-133696007D02*
X98860625Y-133767435D01*
X98860625Y-133767435D02*
X98574911Y-133767435D01*
X98574911Y-133767435D02*
X98432054Y-133838864D01*
X98432054Y-133838864D02*
X98360625Y-133910292D01*
X98360625Y-133910292D02*
X98289197Y-134053150D01*
X98289197Y-134053150D02*
X98289197Y-134338864D01*
X98289197Y-134338864D02*
X98360625Y-134481721D01*
X98360625Y-134481721D02*
X98432054Y-134553150D01*
X98432054Y-134553150D02*
X98574911Y-134624578D01*
X98574911Y-134624578D02*
X98860625Y-134624578D01*
X98860625Y-134624578D02*
X99003483Y-134553150D01*
X99003483Y-134553150D02*
X99074911Y-134481721D01*
X99074911Y-134481721D02*
X99146340Y-134338864D01*
X99146340Y-134338864D02*
X99146340Y-134053150D01*
X99146340Y-134053150D02*
X99074911Y-133910292D01*
X99074911Y-133910292D02*
X99003483Y-133838864D01*
X99003483Y-133838864D02*
X98860625Y-133767435D01*
X100574911Y-134624578D02*
X99717768Y-134624578D01*
X100146339Y-134624578D02*
X100146339Y-133124578D01*
X100146339Y-133124578D02*
X100003482Y-133338864D01*
X100003482Y-133338864D02*
X99860625Y-133481721D01*
X99860625Y-133481721D02*
X99717768Y-133553150D01*
X101074910Y-133124578D02*
X102003482Y-133124578D01*
X102003482Y-133124578D02*
X101503482Y-133696007D01*
X101503482Y-133696007D02*
X101717767Y-133696007D01*
X101717767Y-133696007D02*
X101860625Y-133767435D01*
X101860625Y-133767435D02*
X101932053Y-133838864D01*
X101932053Y-133838864D02*
X102003482Y-133981721D01*
X102003482Y-133981721D02*
X102003482Y-134338864D01*
X102003482Y-134338864D02*
X101932053Y-134481721D01*
X101932053Y-134481721D02*
X101860625Y-134553150D01*
X101860625Y-134553150D02*
X101717767Y-134624578D01*
X101717767Y-134624578D02*
X101289196Y-134624578D01*
X101289196Y-134624578D02*
X101146339Y-134553150D01*
X101146339Y-134553150D02*
X101074910Y-134481721D01*
D12*
X99551250Y-88621250D02*
X99551250Y-136332670D01*
X97170000Y-136332670D02*
X97170000Y-81477500D01*
X99551250Y-135746250D02*
X97170000Y-135746250D01*
X99551250Y-135746250D02*
X98424746Y-136332671D01*
X99551250Y-135746250D02*
X98424746Y-135159829D01*
X97170000Y-135746250D02*
X98296504Y-135159829D01*
X97170000Y-135746250D02*
X98296504Y-136332671D01*
D10*
D11*
X199323328Y-87001606D02*
X199323328Y-87287320D01*
X199323328Y-87287320D02*
X199394757Y-87430177D01*
X199394757Y-87430177D02*
X199466185Y-87501606D01*
X199466185Y-87501606D02*
X199680471Y-87644463D01*
X199680471Y-87644463D02*
X199966185Y-87715891D01*
X199966185Y-87715891D02*
X200537614Y-87715891D01*
X200537614Y-87715891D02*
X200680471Y-87644463D01*
X200680471Y-87644463D02*
X200751900Y-87573034D01*
X200751900Y-87573034D02*
X200823328Y-87430177D01*
X200823328Y-87430177D02*
X200823328Y-87144463D01*
X200823328Y-87144463D02*
X200751900Y-87001606D01*
X200751900Y-87001606D02*
X200680471Y-86930177D01*
X200680471Y-86930177D02*
X200537614Y-86858748D01*
X200537614Y-86858748D02*
X200180471Y-86858748D01*
X200180471Y-86858748D02*
X200037614Y-86930177D01*
X200037614Y-86930177D02*
X199966185Y-87001606D01*
X199966185Y-87001606D02*
X199894757Y-87144463D01*
X199894757Y-87144463D02*
X199894757Y-87430177D01*
X199894757Y-87430177D02*
X199966185Y-87573034D01*
X199966185Y-87573034D02*
X200037614Y-87644463D01*
X200037614Y-87644463D02*
X200180471Y-87715891D01*
X200823328Y-85430177D02*
X200823328Y-86287320D01*
X200823328Y-85858749D02*
X199323328Y-85858749D01*
X199323328Y-85858749D02*
X199537614Y-86001606D01*
X199537614Y-86001606D02*
X199680471Y-86144463D01*
X199680471Y-86144463D02*
X199751900Y-86287320D01*
X200680471Y-84787321D02*
X200751900Y-84715892D01*
X200751900Y-84715892D02*
X200823328Y-84787321D01*
X200823328Y-84787321D02*
X200751900Y-84858749D01*
X200751900Y-84858749D02*
X200680471Y-84787321D01*
X200680471Y-84787321D02*
X200823328Y-84787321D01*
X200823328Y-84001606D02*
X200823328Y-83715892D01*
X200823328Y-83715892D02*
X200751900Y-83573035D01*
X200751900Y-83573035D02*
X200680471Y-83501606D01*
X200680471Y-83501606D02*
X200466185Y-83358749D01*
X200466185Y-83358749D02*
X200180471Y-83287320D01*
X200180471Y-83287320D02*
X199609042Y-83287320D01*
X199609042Y-83287320D02*
X199466185Y-83358749D01*
X199466185Y-83358749D02*
X199394757Y-83430178D01*
X199394757Y-83430178D02*
X199323328Y-83573035D01*
X199323328Y-83573035D02*
X199323328Y-83858749D01*
X199323328Y-83858749D02*
X199394757Y-84001606D01*
X199394757Y-84001606D02*
X199466185Y-84073035D01*
X199466185Y-84073035D02*
X199609042Y-84144463D01*
X199609042Y-84144463D02*
X199966185Y-84144463D01*
X199966185Y-84144463D02*
X200109042Y-84073035D01*
X200109042Y-84073035D02*
X200180471Y-84001606D01*
X200180471Y-84001606D02*
X200251900Y-83858749D01*
X200251900Y-83858749D02*
X200251900Y-83573035D01*
X200251900Y-83573035D02*
X200180471Y-83430178D01*
X200180471Y-83430178D02*
X200109042Y-83358749D01*
X200109042Y-83358749D02*
X199966185Y-83287320D01*
X200823328Y-81858749D02*
X200823328Y-82715892D01*
X200823328Y-82287321D02*
X199323328Y-82287321D01*
X199323328Y-82287321D02*
X199537614Y-82430178D01*
X199537614Y-82430178D02*
X199680471Y-82573035D01*
X199680471Y-82573035D02*
X199751900Y-82715892D01*
X199466185Y-81287321D02*
X199394757Y-81215893D01*
X199394757Y-81215893D02*
X199323328Y-81073036D01*
X199323328Y-81073036D02*
X199323328Y-80715893D01*
X199323328Y-80715893D02*
X199394757Y-80573036D01*
X199394757Y-80573036D02*
X199466185Y-80501607D01*
X199466185Y-80501607D02*
X199609042Y-80430178D01*
X199609042Y-80430178D02*
X199751900Y-80430178D01*
X199751900Y-80430178D02*
X199966185Y-80501607D01*
X199966185Y-80501607D02*
X200823328Y-81358750D01*
X200823328Y-81358750D02*
X200823328Y-80430178D01*
X199323328Y-79073036D02*
X199323328Y-79787322D01*
X199323328Y-79787322D02*
X200037614Y-79858750D01*
X200037614Y-79858750D02*
X199966185Y-79787322D01*
X199966185Y-79787322D02*
X199894757Y-79644465D01*
X199894757Y-79644465D02*
X199894757Y-79287322D01*
X199894757Y-79287322D02*
X199966185Y-79144465D01*
X199966185Y-79144465D02*
X200037614Y-79073036D01*
X200037614Y-79073036D02*
X200180471Y-79001607D01*
X200180471Y-79001607D02*
X200537614Y-79001607D01*
X200537614Y-79001607D02*
X200680471Y-79073036D01*
X200680471Y-79073036D02*
X200751900Y-79144465D01*
X200751900Y-79144465D02*
X200823328Y-79287322D01*
X200823328Y-79287322D02*
X200823328Y-79644465D01*
X200823328Y-79644465D02*
X200751900Y-79787322D01*
X200751900Y-79787322D02*
X200680471Y-79858750D01*
D12*
X183395000Y-52402500D02*
X202531420Y-52402500D01*
X202531420Y-114315000D02*
X185776250Y-114315000D01*
X201945000Y-52402500D02*
X201945000Y-114315000D01*
X201945000Y-52402500D02*
X202531421Y-53529004D01*
X201945000Y-52402500D02*
X201358579Y-53529004D01*
X201945000Y-114315000D02*
X201358579Y-113188496D01*
X201945000Y-114315000D02*
X202531421Y-113188496D01*
D10*
D11*
X125983393Y-118837078D02*
X125269107Y-118837078D01*
X125269107Y-118837078D02*
X125197679Y-119551364D01*
X125197679Y-119551364D02*
X125269107Y-119479935D01*
X125269107Y-119479935D02*
X125411965Y-119408507D01*
X125411965Y-119408507D02*
X125769107Y-119408507D01*
X125769107Y-119408507D02*
X125911965Y-119479935D01*
X125911965Y-119479935D02*
X125983393Y-119551364D01*
X125983393Y-119551364D02*
X126054822Y-119694221D01*
X126054822Y-119694221D02*
X126054822Y-120051364D01*
X126054822Y-120051364D02*
X125983393Y-120194221D01*
X125983393Y-120194221D02*
X125911965Y-120265650D01*
X125911965Y-120265650D02*
X125769107Y-120337078D01*
X125769107Y-120337078D02*
X125411965Y-120337078D01*
X125411965Y-120337078D02*
X125269107Y-120265650D01*
X125269107Y-120265650D02*
X125197679Y-120194221D01*
X126554821Y-118837078D02*
X127554821Y-118837078D01*
X127554821Y-118837078D02*
X126911964Y-120337078D01*
X128126249Y-120194221D02*
X128197678Y-120265650D01*
X128197678Y-120265650D02*
X128126249Y-120337078D01*
X128126249Y-120337078D02*
X128054821Y-120265650D01*
X128054821Y-120265650D02*
X128126249Y-120194221D01*
X128126249Y-120194221D02*
X128126249Y-120337078D01*
X129626250Y-120337078D02*
X128769107Y-120337078D01*
X129197678Y-120337078D02*
X129197678Y-118837078D01*
X129197678Y-118837078D02*
X129054821Y-119051364D01*
X129054821Y-119051364D02*
X128911964Y-119194221D01*
X128911964Y-119194221D02*
X128769107Y-119265650D01*
X130983392Y-118837078D02*
X130269106Y-118837078D01*
X130269106Y-118837078D02*
X130197678Y-119551364D01*
X130197678Y-119551364D02*
X130269106Y-119479935D01*
X130269106Y-119479935D02*
X130411964Y-119408507D01*
X130411964Y-119408507D02*
X130769106Y-119408507D01*
X130769106Y-119408507D02*
X130911964Y-119479935D01*
X130911964Y-119479935D02*
X130983392Y-119551364D01*
X130983392Y-119551364D02*
X131054821Y-119694221D01*
X131054821Y-119694221D02*
X131054821Y-120051364D01*
X131054821Y-120051364D02*
X130983392Y-120194221D01*
X130983392Y-120194221D02*
X130911964Y-120265650D01*
X130911964Y-120265650D02*
X130769106Y-120337078D01*
X130769106Y-120337078D02*
X130411964Y-120337078D01*
X130411964Y-120337078D02*
X130269106Y-120265650D01*
X130269106Y-120265650D02*
X130197678Y-120194221D01*
D12*
X99551250Y-112433750D02*
X99551250Y-122045170D01*
X156701250Y-122045170D02*
X156701250Y-112433750D01*
X99551250Y-121458750D02*
X156701250Y-121458750D01*
X99551250Y-121458750D02*
X100677754Y-120872329D01*
X99551250Y-121458750D02*
X100677754Y-122045171D01*
X156701250Y-121458750D02*
X155574746Y-122045171D01*
X156701250Y-121458750D02*
X155574746Y-120872329D01*
D10*
D11*
X165440983Y-123742435D02*
X165512411Y-123671007D01*
X165512411Y-123671007D02*
X165655269Y-123599578D01*
X165655269Y-123599578D02*
X166012411Y-123599578D01*
X166012411Y-123599578D02*
X166155269Y-123671007D01*
X166155269Y-123671007D02*
X166226697Y-123742435D01*
X166226697Y-123742435D02*
X166298126Y-123885292D01*
X166298126Y-123885292D02*
X166298126Y-124028150D01*
X166298126Y-124028150D02*
X166226697Y-124242435D01*
X166226697Y-124242435D02*
X165369554Y-125099578D01*
X165369554Y-125099578D02*
X166298126Y-125099578D01*
X167583840Y-123599578D02*
X167298125Y-123599578D01*
X167298125Y-123599578D02*
X167155268Y-123671007D01*
X167155268Y-123671007D02*
X167083840Y-123742435D01*
X167083840Y-123742435D02*
X166940982Y-123956721D01*
X166940982Y-123956721D02*
X166869554Y-124242435D01*
X166869554Y-124242435D02*
X166869554Y-124813864D01*
X166869554Y-124813864D02*
X166940982Y-124956721D01*
X166940982Y-124956721D02*
X167012411Y-125028150D01*
X167012411Y-125028150D02*
X167155268Y-125099578D01*
X167155268Y-125099578D02*
X167440982Y-125099578D01*
X167440982Y-125099578D02*
X167583840Y-125028150D01*
X167583840Y-125028150D02*
X167655268Y-124956721D01*
X167655268Y-124956721D02*
X167726697Y-124813864D01*
X167726697Y-124813864D02*
X167726697Y-124456721D01*
X167726697Y-124456721D02*
X167655268Y-124313864D01*
X167655268Y-124313864D02*
X167583840Y-124242435D01*
X167583840Y-124242435D02*
X167440982Y-124171007D01*
X167440982Y-124171007D02*
X167155268Y-124171007D01*
X167155268Y-124171007D02*
X167012411Y-124242435D01*
X167012411Y-124242435D02*
X166940982Y-124313864D01*
X166940982Y-124313864D02*
X166869554Y-124456721D01*
X168369553Y-124956721D02*
X168440982Y-125028150D01*
X168440982Y-125028150D02*
X168369553Y-125099578D01*
X168369553Y-125099578D02*
X168298125Y-125028150D01*
X168298125Y-125028150D02*
X168369553Y-124956721D01*
X168369553Y-124956721D02*
X168369553Y-125099578D01*
X169869554Y-125099578D02*
X169012411Y-125099578D01*
X169440982Y-125099578D02*
X169440982Y-123599578D01*
X169440982Y-123599578D02*
X169298125Y-123813864D01*
X169298125Y-123813864D02*
X169155268Y-123956721D01*
X169155268Y-123956721D02*
X169012411Y-124028150D01*
X170583839Y-125099578D02*
X170869553Y-125099578D01*
X170869553Y-125099578D02*
X171012410Y-125028150D01*
X171012410Y-125028150D02*
X171083839Y-124956721D01*
X171083839Y-124956721D02*
X171226696Y-124742435D01*
X171226696Y-124742435D02*
X171298125Y-124456721D01*
X171298125Y-124456721D02*
X171298125Y-123885292D01*
X171298125Y-123885292D02*
X171226696Y-123742435D01*
X171226696Y-123742435D02*
X171155268Y-123671007D01*
X171155268Y-123671007D02*
X171012410Y-123599578D01*
X171012410Y-123599578D02*
X170726696Y-123599578D01*
X170726696Y-123599578D02*
X170583839Y-123671007D01*
X170583839Y-123671007D02*
X170512410Y-123742435D01*
X170512410Y-123742435D02*
X170440982Y-123885292D01*
X170440982Y-123885292D02*
X170440982Y-124242435D01*
X170440982Y-124242435D02*
X170512410Y-124385292D01*
X170512410Y-124385292D02*
X170583839Y-124456721D01*
X170583839Y-124456721D02*
X170726696Y-124528150D01*
X170726696Y-124528150D02*
X171012410Y-124528150D01*
X171012410Y-124528150D02*
X171155268Y-124456721D01*
X171155268Y-124456721D02*
X171226696Y-124385292D01*
X171226696Y-124385292D02*
X171298125Y-124242435D01*
X171798124Y-123599578D02*
X172726696Y-123599578D01*
X172726696Y-123599578D02*
X172226696Y-124171007D01*
X172226696Y-124171007D02*
X172440981Y-124171007D01*
X172440981Y-124171007D02*
X172583839Y-124242435D01*
X172583839Y-124242435D02*
X172655267Y-124313864D01*
X172655267Y-124313864D02*
X172726696Y-124456721D01*
X172726696Y-124456721D02*
X172726696Y-124813864D01*
X172726696Y-124813864D02*
X172655267Y-124956721D01*
X172655267Y-124956721D02*
X172583839Y-125028150D01*
X172583839Y-125028150D02*
X172440981Y-125099578D01*
X172440981Y-125099578D02*
X172012410Y-125099578D01*
X172012410Y-125099578D02*
X171869553Y-125028150D01*
X171869553Y-125028150D02*
X171798124Y-124956721D01*
X173583838Y-124242435D02*
X173440981Y-124171007D01*
X173440981Y-124171007D02*
X173369552Y-124099578D01*
X173369552Y-124099578D02*
X173298124Y-123956721D01*
X173298124Y-123956721D02*
X173298124Y-123885292D01*
X173298124Y-123885292D02*
X173369552Y-123742435D01*
X173369552Y-123742435D02*
X173440981Y-123671007D01*
X173440981Y-123671007D02*
X173583838Y-123599578D01*
X173583838Y-123599578D02*
X173869552Y-123599578D01*
X173869552Y-123599578D02*
X174012410Y-123671007D01*
X174012410Y-123671007D02*
X174083838Y-123742435D01*
X174083838Y-123742435D02*
X174155267Y-123885292D01*
X174155267Y-123885292D02*
X174155267Y-123956721D01*
X174155267Y-123956721D02*
X174083838Y-124099578D01*
X174083838Y-124099578D02*
X174012410Y-124171007D01*
X174012410Y-124171007D02*
X173869552Y-124242435D01*
X173869552Y-124242435D02*
X173583838Y-124242435D01*
X173583838Y-124242435D02*
X173440981Y-124313864D01*
X173440981Y-124313864D02*
X173369552Y-124385292D01*
X173369552Y-124385292D02*
X173298124Y-124528150D01*
X173298124Y-124528150D02*
X173298124Y-124813864D01*
X173298124Y-124813864D02*
X173369552Y-124956721D01*
X173369552Y-124956721D02*
X173440981Y-125028150D01*
X173440981Y-125028150D02*
X173583838Y-125099578D01*
X173583838Y-125099578D02*
X173869552Y-125099578D01*
X173869552Y-125099578D02*
X174012410Y-125028150D01*
X174012410Y-125028150D02*
X174083838Y-124956721D01*
X174083838Y-124956721D02*
X174155267Y-124813864D01*
X174155267Y-124813864D02*
X174155267Y-124528150D01*
X174155267Y-124528150D02*
X174083838Y-124385292D01*
X174083838Y-124385292D02*
X174012410Y-124313864D01*
X174012410Y-124313864D02*
X173869552Y-124242435D01*
D12*
X156701250Y-110052500D02*
X156701250Y-126807670D01*
X182895000Y-126807670D02*
X182895000Y-102908750D01*
X156701250Y-126221250D02*
X182895000Y-126221250D01*
X156701250Y-126221250D02*
X157827754Y-125634829D01*
X156701250Y-126221250D02*
X157827754Y-126807671D01*
X182895000Y-126221250D02*
X181768496Y-126807671D01*
X182895000Y-126221250D02*
X181768496Y-125634829D01*
D10*
D11*
X136675358Y-129004935D02*
X136532501Y-128933507D01*
X136532501Y-128933507D02*
X136461072Y-128862078D01*
X136461072Y-128862078D02*
X136389644Y-128719221D01*
X136389644Y-128719221D02*
X136389644Y-128647792D01*
X136389644Y-128647792D02*
X136461072Y-128504935D01*
X136461072Y-128504935D02*
X136532501Y-128433507D01*
X136532501Y-128433507D02*
X136675358Y-128362078D01*
X136675358Y-128362078D02*
X136961072Y-128362078D01*
X136961072Y-128362078D02*
X137103930Y-128433507D01*
X137103930Y-128433507D02*
X137175358Y-128504935D01*
X137175358Y-128504935D02*
X137246787Y-128647792D01*
X137246787Y-128647792D02*
X137246787Y-128719221D01*
X137246787Y-128719221D02*
X137175358Y-128862078D01*
X137175358Y-128862078D02*
X137103930Y-128933507D01*
X137103930Y-128933507D02*
X136961072Y-129004935D01*
X136961072Y-129004935D02*
X136675358Y-129004935D01*
X136675358Y-129004935D02*
X136532501Y-129076364D01*
X136532501Y-129076364D02*
X136461072Y-129147792D01*
X136461072Y-129147792D02*
X136389644Y-129290650D01*
X136389644Y-129290650D02*
X136389644Y-129576364D01*
X136389644Y-129576364D02*
X136461072Y-129719221D01*
X136461072Y-129719221D02*
X136532501Y-129790650D01*
X136532501Y-129790650D02*
X136675358Y-129862078D01*
X136675358Y-129862078D02*
X136961072Y-129862078D01*
X136961072Y-129862078D02*
X137103930Y-129790650D01*
X137103930Y-129790650D02*
X137175358Y-129719221D01*
X137175358Y-129719221D02*
X137246787Y-129576364D01*
X137246787Y-129576364D02*
X137246787Y-129290650D01*
X137246787Y-129290650D02*
X137175358Y-129147792D01*
X137175358Y-129147792D02*
X137103930Y-129076364D01*
X137103930Y-129076364D02*
X136961072Y-129004935D01*
X138603929Y-128362078D02*
X137889643Y-128362078D01*
X137889643Y-128362078D02*
X137818215Y-129076364D01*
X137818215Y-129076364D02*
X137889643Y-129004935D01*
X137889643Y-129004935D02*
X138032501Y-128933507D01*
X138032501Y-128933507D02*
X138389643Y-128933507D01*
X138389643Y-128933507D02*
X138532501Y-129004935D01*
X138532501Y-129004935D02*
X138603929Y-129076364D01*
X138603929Y-129076364D02*
X138675358Y-129219221D01*
X138675358Y-129219221D02*
X138675358Y-129576364D01*
X138675358Y-129576364D02*
X138603929Y-129719221D01*
X138603929Y-129719221D02*
X138532501Y-129790650D01*
X138532501Y-129790650D02*
X138389643Y-129862078D01*
X138389643Y-129862078D02*
X138032501Y-129862078D01*
X138032501Y-129862078D02*
X137889643Y-129790650D01*
X137889643Y-129790650D02*
X137818215Y-129719221D01*
X139318214Y-129719221D02*
X139389643Y-129790650D01*
X139389643Y-129790650D02*
X139318214Y-129862078D01*
X139318214Y-129862078D02*
X139246786Y-129790650D01*
X139246786Y-129790650D02*
X139318214Y-129719221D01*
X139318214Y-129719221D02*
X139318214Y-129862078D01*
X139889643Y-128362078D02*
X140889643Y-128362078D01*
X140889643Y-128362078D02*
X140246786Y-129862078D01*
X141389643Y-128504935D02*
X141461071Y-128433507D01*
X141461071Y-128433507D02*
X141603929Y-128362078D01*
X141603929Y-128362078D02*
X141961071Y-128362078D01*
X141961071Y-128362078D02*
X142103929Y-128433507D01*
X142103929Y-128433507D02*
X142175357Y-128504935D01*
X142175357Y-128504935D02*
X142246786Y-128647792D01*
X142246786Y-128647792D02*
X142246786Y-128790650D01*
X142246786Y-128790650D02*
X142175357Y-129004935D01*
X142175357Y-129004935D02*
X141318214Y-129862078D01*
X141318214Y-129862078D02*
X142246786Y-129862078D01*
X143603928Y-128362078D02*
X142889642Y-128362078D01*
X142889642Y-128362078D02*
X142818214Y-129076364D01*
X142818214Y-129076364D02*
X142889642Y-129004935D01*
X142889642Y-129004935D02*
X143032500Y-128933507D01*
X143032500Y-128933507D02*
X143389642Y-128933507D01*
X143389642Y-128933507D02*
X143532500Y-129004935D01*
X143532500Y-129004935D02*
X143603928Y-129076364D01*
X143603928Y-129076364D02*
X143675357Y-129219221D01*
X143675357Y-129219221D02*
X143675357Y-129576364D01*
X143675357Y-129576364D02*
X143603928Y-129719221D01*
X143603928Y-129719221D02*
X143532500Y-129790650D01*
X143532500Y-129790650D02*
X143389642Y-129862078D01*
X143389642Y-129862078D02*
X143032500Y-129862078D01*
X143032500Y-129862078D02*
X142889642Y-129790650D01*
X142889642Y-129790650D02*
X142818214Y-129719221D01*
D12*
X97170000Y-114815000D02*
X97170000Y-131570170D01*
X182895000Y-131570170D02*
X182895000Y-119577500D01*
X97170000Y-130983750D02*
X182895000Y-130983750D01*
X97170000Y-130983750D02*
X98296504Y-130397329D01*
X97170000Y-130983750D02*
X98296504Y-131570171D01*
X182895000Y-130983750D02*
X181768496Y-131570171D01*
X182895000Y-130983750D02*
X181768496Y-130397329D01*
D13*
%TO.P,S5,1,1*%
%TO.N,Column 1*%
X124316250Y-80818750D03*
%TO.P,S5,2,2*%
%TO.N,Net-(D5-A)*%
X130666250Y-78278750D03*
%TD*%
D14*
%TO.P,D6,1,K*%
%TO.N,Row 1*%
X156701250Y-86216250D03*
D15*
%TO.P,D6,2,A*%
%TO.N,Net-(D6-A)*%
X156701250Y-78596250D03*
%TD*%
D13*
%TO.P,S7,1,1*%
%TO.N,Column 0*%
X105266250Y-99868750D03*
%TO.P,S7,2,2*%
%TO.N,Net-(D7-A)*%
X111616250Y-97328750D03*
%TD*%
%TO.P,S6,1,1*%
%TO.N,Column 2*%
X143366250Y-80818750D03*
%TO.P,S6,2,2*%
%TO.N,Net-(D6-A)*%
X149716250Y-78278750D03*
%TD*%
%TO.P,S3,1,1*%
%TO.N,Column 2*%
X143366250Y-61768750D03*
%TO.P,S3,2,2*%
%TO.N,Net-(D3-A)*%
X149716250Y-59228750D03*
%TD*%
%TO.P,S9,1,1*%
%TO.N,Column 2*%
X143366250Y-99868750D03*
%TO.P,S9,2,2*%
%TO.N,Net-(D9-A)*%
X149716250Y-97328750D03*
%TD*%
D14*
%TO.P,D2,1,K*%
%TO.N,Row 0*%
X137651250Y-67166250D03*
D15*
%TO.P,D2,2,A*%
%TO.N,Net-(D2-A)*%
X137651250Y-59546250D03*
%TD*%
D13*
%TO.P,S2,1,1*%
%TO.N,Column 1*%
X124316250Y-61768750D03*
%TO.P,S2,2,2*%
%TO.N,Net-(D2-A)*%
X130666250Y-59228750D03*
%TD*%
D14*
%TO.P,D7,1,K*%
%TO.N,Row 2*%
X118601250Y-105266250D03*
D15*
%TO.P,D7,2,A*%
%TO.N,Net-(D7-A)*%
X118601250Y-97646250D03*
%TD*%
D13*
%TO.P,S1,1,1*%
%TO.N,Column 0*%
X105266250Y-61768750D03*
%TO.P,S1,2,2*%
%TO.N,Net-(D1-A)*%
X111616250Y-59228750D03*
%TD*%
%TO.P,S4,1,1*%
%TO.N,Column 0*%
X105266250Y-80818750D03*
%TO.P,S4,2,2*%
%TO.N,Net-(D4-A)*%
X111616250Y-78278750D03*
%TD*%
D14*
%TO.P,D1,1,K*%
%TO.N,Row 0*%
X118601250Y-67166250D03*
D15*
%TO.P,D1,2,A*%
%TO.N,Net-(D1-A)*%
X118601250Y-59546250D03*
%TD*%
D14*
%TO.P,D3,1,K*%
%TO.N,Row 0*%
X156701250Y-67166250D03*
D15*
%TO.P,D3,2,A*%
%TO.N,Net-(D3-A)*%
X156701250Y-59546250D03*
%TD*%
D14*
%TO.P,D5,1,K*%
%TO.N,Row 1*%
X137651250Y-86216250D03*
D15*
%TO.P,D5,2,A*%
%TO.N,Net-(D5-A)*%
X137651250Y-78596250D03*
%TD*%
D14*
%TO.P,D9,1,K*%
%TO.N,Row 2*%
X156951250Y-105016250D03*
D15*
%TO.P,D9,2,A*%
%TO.N,Net-(D9-A)*%
X156951250Y-97396250D03*
%TD*%
D13*
%TO.P,S8,1,1*%
%TO.N,Column 1*%
X124316250Y-99868750D03*
%TO.P,S8,2,2*%
%TO.N,Net-(D8-A)*%
X130666250Y-97328750D03*
%TD*%
D14*
%TO.P,D4,1,K*%
%TO.N,Row 1*%
X118851250Y-85966250D03*
D15*
%TO.P,D4,2,A*%
%TO.N,Net-(D4-A)*%
X118851250Y-78346250D03*
%TD*%
D14*
%TO.P,D8,1,K*%
%TO.N,Row 2*%
X137651250Y-105266250D03*
D15*
%TO.P,D8,2,A*%
%TO.N,Net-(D8-A)*%
X137651250Y-97646250D03*
%TD*%
D16*
%TO.P,U2,1,PA02_A0_D0*%
%TO.N,Column 0*%
X162923750Y-75738750D03*
D14*
X163368750Y-75738750D03*
D16*
%TO.P,U2,2,PA4_A1_D1*%
%TO.N,Column 1*%
X162923750Y-78278750D03*
D17*
X163368750Y-78278750D03*
D16*
%TO.P,U2,3,PA10_A2_D2*%
%TO.N,Column 2*%
X162923750Y-80818750D03*
D17*
X163368750Y-80818750D03*
D16*
%TO.P,U2,4,PA11_A3_D3*%
%TO.N,Row 0*%
X162923750Y-83358750D03*
D17*
X163368750Y-83358750D03*
D16*
%TO.P,U2,5,PA8_A4_D4_SDA*%
%TO.N,Row 1*%
X162923750Y-85898750D03*
D17*
X163368750Y-85898750D03*
D16*
%TO.P,U2,6,PA9_A5_D5_SCL*%
%TO.N,Row 2*%
X162923750Y-88438750D03*
D17*
X163368750Y-88438750D03*
D16*
%TO.P,U2,7,PB08_A6_D6_TX*%
%TO.N,unconnected-(U2-PB08_A6_D6_TX-Pad7)*%
X162923750Y-90978750D03*
D17*
X163368750Y-90978750D03*
%TO.P,U2,8,PB09_A7_D7_RX*%
%TO.N,unconnected-(U2-PB09_A7_D7_RX-Pad8)*%
X178608750Y-90978750D03*
D16*
X179088750Y-90978750D03*
D17*
%TO.P,U2,9,PA7_A8_D8_SCK*%
%TO.N,unconnected-(U2-PA7_A8_D8_SCK-Pad9)*%
X178608750Y-88438750D03*
D16*
X179088750Y-88438750D03*
D17*
%TO.P,U2,10,PA5_A9_D9_MISO*%
%TO.N,unconnected-(U2-PA5_A9_D9_MISO-Pad10)*%
X178608750Y-85898750D03*
D16*
X179088750Y-85898750D03*
D17*
%TO.P,U2,11,PA6_A10_D10_MOSI*%
%TO.N,unconnected-(U2-PA6_A10_D10_MOSI-Pad11)*%
X178608750Y-83358750D03*
D16*
X179088750Y-83358750D03*
D17*
%TO.P,U2,12,3V3*%
%TO.N,unconnected-(U2-3V3-Pad12)*%
X178608750Y-80818750D03*
D16*
X179088750Y-80818750D03*
D17*
%TO.P,U2,13,GND*%
%TO.N,unconnected-(U2-GND-Pad13)*%
X178608750Y-78278750D03*
D16*
X179088750Y-78278750D03*
D17*
%TO.P,U2,14,5V*%
%TO.N,unconnected-(U2-5V-Pad14)*%
X178608750Y-75738750D03*
D16*
X179088750Y-75738750D03*
%TD*%
D18*
%TO.N,Column 0*%
X144795000Y-73833750D03*
X123363750Y-73833750D03*
%TO.N,Column 1*%
X140032500Y-76215000D03*
X154320000Y-80977500D03*
%TD*%
D19*
%TO.N,Row 0*%
X159082500Y-69547500D02*
X159082500Y-79517500D01*
X159082500Y-79517500D02*
X162923750Y-83358750D01*
X156701250Y-67166250D02*
X159082500Y-69547500D01*
X118601250Y-67166250D02*
X156701250Y-67166250D01*
%TO.N,Net-(D1-A)*%
X111616250Y-59228750D02*
X118283750Y-59228750D01*
X118283750Y-59228750D02*
X118601250Y-59546250D01*
%TO.N,Net-(D2-A)*%
X130666250Y-59228750D02*
X137333750Y-59228750D01*
X137333750Y-59228750D02*
X137651250Y-59546250D01*
%TO.N,Net-(D3-A)*%
X156383750Y-59228750D02*
X156701250Y-59546250D01*
X149716250Y-59228750D02*
X156383750Y-59228750D01*
%TO.N,Net-(D4-A)*%
X111616250Y-78278750D02*
X118783750Y-78278750D01*
X118783750Y-78278750D02*
X118851250Y-78346250D01*
%TO.N,Row 1*%
X118851250Y-85966250D02*
X151712500Y-85966250D01*
X151712500Y-85966250D02*
X151962500Y-86216250D01*
X151962500Y-86216250D02*
X156701250Y-86216250D01*
X162606250Y-86216250D02*
X162923750Y-85898750D01*
X156701250Y-86216250D02*
X162606250Y-86216250D01*
%TO.N,Net-(D5-A)*%
X130666250Y-78278750D02*
X137333750Y-78278750D01*
X137333750Y-78278750D02*
X137651250Y-78596250D01*
%TO.N,Net-(D6-A)*%
X156383750Y-78278750D02*
X156701250Y-78596250D01*
X149716250Y-78278750D02*
X156383750Y-78278750D01*
%TO.N,Row 2*%
X159082500Y-102885000D02*
X159082500Y-92280000D01*
X159082500Y-92280000D02*
X162923750Y-88438750D01*
X118601250Y-105266250D02*
X156701250Y-105266250D01*
X156701250Y-105266250D02*
X156951250Y-105016250D01*
X156951250Y-105016250D02*
X159082500Y-102885000D01*
%TO.N,Net-(D7-A)*%
X118283750Y-97328750D02*
X118601250Y-97646250D01*
X111616250Y-97328750D02*
X118283750Y-97328750D01*
%TO.N,Net-(D8-A)*%
X137333750Y-97328750D02*
X137651250Y-97646250D01*
X130666250Y-97328750D02*
X137333750Y-97328750D01*
%TO.N,Net-(D9-A)*%
X149716250Y-97328750D02*
X156883750Y-97328750D01*
X156883750Y-97328750D02*
X156951250Y-97396250D01*
%TO.N,Column 0*%
X123363750Y-73833750D02*
X147176250Y-73833750D01*
X147176250Y-73833750D02*
X144795000Y-73833750D01*
%TO.N,Column 1*%
X145459054Y-76215000D02*
X150221554Y-80977500D01*
X150221554Y-80977500D02*
X154320000Y-80977500D01*
X140032500Y-76215000D02*
X145459054Y-76215000D01*
%TD*%
%TA.AperFunction,NonConductor*%
G36*
X182237539Y-112553935D02*
G01*
X182283294Y-112606739D01*
X182294500Y-112658250D01*
X182294500Y-113590500D01*
X182274815Y-113657539D01*
X182222011Y-113703294D01*
X182170500Y-113714500D01*
X157425750Y-113714500D01*
X157358711Y-113694815D01*
X157312956Y-113642011D01*
X157301750Y-113590500D01*
X157301750Y-112658250D01*
X157321435Y-112591211D01*
X157374239Y-112545456D01*
X157425750Y-112534250D01*
X182170500Y-112534250D01*
X182237539Y-112553935D01*
G37*
%TD.AperFunction*%
%TA.AperFunction,NonConductor*%
G36*
X147370915Y-52919612D02*
G01*
X147444466Y-52962077D01*
X147597193Y-53003000D01*
X182270500Y-53003000D01*
X182337539Y-53022685D01*
X182383294Y-53075489D01*
X182394500Y-53127000D01*
X182394500Y-54059250D01*
X182374815Y-54126289D01*
X182322011Y-54172044D01*
X182270500Y-54183250D01*
X147597193Y-54183250D01*
X147444466Y-54224173D01*
X147444459Y-54224176D01*
X147307540Y-54303225D01*
X147307532Y-54303231D01*
X147195731Y-54415032D01*
X147195725Y-54415040D01*
X147116676Y-54551959D01*
X147116673Y-54551966D01*
X147075750Y-54704693D01*
X147075750Y-54862806D01*
X147116673Y-55015533D01*
X147116676Y-55015540D01*
X147195725Y-55152459D01*
X147195729Y-55152464D01*
X147195730Y-55152466D01*
X147307534Y-55264270D01*
X147307536Y-55264271D01*
X147307540Y-55264274D01*
X147444459Y-55343323D01*
X147444466Y-55343327D01*
X147597193Y-55384250D01*
X157122193Y-55384250D01*
X182270500Y-55384250D01*
X182337539Y-55403935D01*
X182383294Y-55456739D01*
X182394500Y-55508250D01*
X182394500Y-102541414D01*
X182377888Y-102603413D01*
X182335423Y-102676965D01*
X182335423Y-102676966D01*
X182294500Y-102829693D01*
X182294500Y-111209250D01*
X182274815Y-111276289D01*
X182222011Y-111322044D01*
X182170500Y-111333250D01*
X157425750Y-111333250D01*
X157358711Y-111313565D01*
X157312956Y-111260761D01*
X157301750Y-111209250D01*
X157301750Y-109973445D01*
X157301750Y-109973443D01*
X157260827Y-109820716D01*
X157260823Y-109820709D01*
X157181774Y-109683790D01*
X157181768Y-109683782D01*
X157069967Y-109571981D01*
X157069959Y-109571975D01*
X156933040Y-109492926D01*
X156933036Y-109492924D01*
X156933034Y-109492923D01*
X156780307Y-109452000D01*
X156622193Y-109452000D01*
X156469466Y-109492923D01*
X156469459Y-109492926D01*
X156332540Y-109571975D01*
X156332532Y-109571981D01*
X156220731Y-109683782D01*
X156220725Y-109683790D01*
X156141676Y-109820709D01*
X156141673Y-109820716D01*
X156100750Y-109973443D01*
X156100750Y-111209250D01*
X156081065Y-111276289D01*
X156028261Y-111322044D01*
X155976750Y-111333250D01*
X147597193Y-111333250D01*
X147444466Y-111374173D01*
X147444459Y-111374176D01*
X147307540Y-111453225D01*
X147307532Y-111453231D01*
X147195731Y-111565032D01*
X147195725Y-111565040D01*
X147116676Y-111701959D01*
X147116673Y-111701966D01*
X147075750Y-111854693D01*
X147075750Y-112012806D01*
X147116673Y-112165533D01*
X147116676Y-112165540D01*
X147195725Y-112302459D01*
X147195729Y-112302464D01*
X147195730Y-112302466D01*
X147307534Y-112414270D01*
X147307536Y-112414271D01*
X147307540Y-112414274D01*
X147444459Y-112493323D01*
X147444466Y-112493327D01*
X147597193Y-112534250D01*
X155976750Y-112534250D01*
X156043789Y-112553935D01*
X156089544Y-112606739D01*
X156100750Y-112658250D01*
X156100750Y-113590500D01*
X156081065Y-113657539D01*
X156028261Y-113703294D01*
X155976750Y-113714500D01*
X147597193Y-113714500D01*
X147444466Y-113755423D01*
X147444463Y-113755424D01*
X147370916Y-113797887D01*
X147308916Y-113814500D01*
X100275750Y-113814500D01*
X100208711Y-113794815D01*
X100162956Y-113742011D01*
X100151750Y-113690500D01*
X100151750Y-102320171D01*
X102870750Y-102320171D01*
X102870750Y-102497328D01*
X102898464Y-102672306D01*
X102953206Y-102840789D01*
X102953207Y-102840792D01*
X103016014Y-102964055D01*
X103033636Y-102998640D01*
X103137767Y-103141964D01*
X103263036Y-103267233D01*
X103406360Y-103371364D01*
X103474827Y-103406250D01*
X103564207Y-103451792D01*
X103564210Y-103451793D01*
X103648451Y-103479164D01*
X103732695Y-103506536D01*
X103907671Y-103534250D01*
X103907672Y-103534250D01*
X104084828Y-103534250D01*
X104084829Y-103534250D01*
X104259805Y-103506536D01*
X104428292Y-103451792D01*
X104586140Y-103371364D01*
X104729464Y-103267233D01*
X104854733Y-103141964D01*
X104958864Y-102998640D01*
X105039292Y-102840792D01*
X105094036Y-102672305D01*
X105121750Y-102497329D01*
X105121750Y-102320171D01*
X105112415Y-102261236D01*
X106825750Y-102261236D01*
X106825750Y-102556263D01*
X106857620Y-102798329D01*
X106864257Y-102848743D01*
X106940611Y-103133701D01*
X106940614Y-103133711D01*
X107053504Y-103406250D01*
X107053508Y-103406260D01*
X107201011Y-103661743D01*
X107380602Y-103895790D01*
X107380608Y-103895797D01*
X107589202Y-104104391D01*
X107589209Y-104104397D01*
X107823256Y-104283988D01*
X108078739Y-104431491D01*
X108078740Y-104431491D01*
X108078743Y-104431493D01*
X108351298Y-104544389D01*
X108636257Y-104620743D01*
X108928744Y-104659250D01*
X108928751Y-104659250D01*
X109223749Y-104659250D01*
X109223756Y-104659250D01*
X109516243Y-104620743D01*
X109801202Y-104544389D01*
X110073757Y-104431493D01*
X110329244Y-104283988D01*
X110563292Y-104104396D01*
X110771896Y-103895792D01*
X110951488Y-103661744D01*
X111098993Y-103406257D01*
X111211889Y-103133702D01*
X111288243Y-102848743D01*
X111326750Y-102556256D01*
X111326750Y-102320171D01*
X113030750Y-102320171D01*
X113030750Y-102497328D01*
X113058464Y-102672306D01*
X113113206Y-102840789D01*
X113113207Y-102840792D01*
X113176014Y-102964055D01*
X113193636Y-102998640D01*
X113297767Y-103141964D01*
X113423036Y-103267233D01*
X113566360Y-103371364D01*
X113634827Y-103406250D01*
X113724207Y-103451792D01*
X113724210Y-103451793D01*
X113808451Y-103479164D01*
X113892695Y-103506536D01*
X114067671Y-103534250D01*
X114067672Y-103534250D01*
X114244828Y-103534250D01*
X114244829Y-103534250D01*
X114419805Y-103506536D01*
X114588292Y-103451792D01*
X114746140Y-103371364D01*
X114889464Y-103267233D01*
X115014733Y-103141964D01*
X115118864Y-102998640D01*
X115199292Y-102840792D01*
X115254036Y-102672305D01*
X115281750Y-102497329D01*
X115281750Y-102320171D01*
X121920750Y-102320171D01*
X121920750Y-102497328D01*
X121948464Y-102672306D01*
X122003206Y-102840789D01*
X122003207Y-102840792D01*
X122066014Y-102964055D01*
X122083636Y-102998640D01*
X122187767Y-103141964D01*
X122313036Y-103267233D01*
X122456360Y-103371364D01*
X122524827Y-103406250D01*
X122614207Y-103451792D01*
X122614210Y-103451793D01*
X122698451Y-103479164D01*
X122782695Y-103506536D01*
X122957671Y-103534250D01*
X122957672Y-103534250D01*
X123134828Y-103534250D01*
X123134829Y-103534250D01*
X123309805Y-103506536D01*
X123478292Y-103451792D01*
X123636140Y-103371364D01*
X123779464Y-103267233D01*
X123904733Y-103141964D01*
X124008864Y-102998640D01*
X124089292Y-102840792D01*
X124144036Y-102672305D01*
X124171750Y-102497329D01*
X124171750Y-102320171D01*
X124144036Y-102145195D01*
X124089292Y-101976708D01*
X124089292Y-101976707D01*
X124008863Y-101818859D01*
X123997768Y-101803588D01*
X123974288Y-101737782D01*
X123990113Y-101669728D01*
X124040218Y-101621033D01*
X124108696Y-101607157D01*
X124114227Y-101607758D01*
X124201516Y-101619250D01*
X124201523Y-101619250D01*
X124430977Y-101619250D01*
X124430984Y-101619250D01*
X124658488Y-101589298D01*
X124880137Y-101529908D01*
X125092138Y-101442094D01*
X125290862Y-101327361D01*
X125472911Y-101187669D01*
X125472915Y-101187664D01*
X125472920Y-101187661D01*
X125635161Y-101025420D01*
X125635164Y-101025415D01*
X125635169Y-101025411D01*
X125774861Y-100843362D01*
X125889594Y-100644638D01*
X125977408Y-100432637D01*
X126036798Y-100210988D01*
X126066750Y-99983484D01*
X126066750Y-99754016D01*
X126036798Y-99526512D01*
X125977408Y-99304863D01*
X125889594Y-99092862D01*
X125774861Y-98894138D01*
X125774858Y-98894135D01*
X125774857Y-98894132D01*
X125635168Y-98712088D01*
X125635161Y-98712080D01*
X125472920Y-98549839D01*
X125472911Y-98549831D01*
X125290867Y-98410142D01*
X125092140Y-98295407D01*
X125092126Y-98295400D01*
X124880137Y-98207592D01*
X124658488Y-98148202D01*
X124620465Y-98143196D01*
X124430991Y-98118250D01*
X124430984Y-98118250D01*
X124201516Y-98118250D01*
X124201508Y-98118250D01*
X123994740Y-98145473D01*
X123974012Y-98148202D01*
X123880326Y-98173304D01*
X123752362Y-98207592D01*
X123540373Y-98295400D01*
X123540359Y-98295407D01*
X123341632Y-98410142D01*
X123159588Y-98549831D01*
X122997331Y-98712088D01*
X122857642Y-98894132D01*
X122742907Y-99092859D01*
X122742900Y-99092873D01*
X122655092Y-99304862D01*
X122595703Y-99526509D01*
X122595701Y-99526520D01*
X122565750Y-99754008D01*
X122565750Y-99983491D01*
X122588759Y-100158250D01*
X122595702Y-100210988D01*
X122642597Y-100386004D01*
X122655092Y-100432637D01*
X122742900Y-100644626D01*
X122742907Y-100644640D01*
X122857642Y-100843367D01*
X122997331Y-101025411D01*
X122997339Y-101025420D01*
X123043488Y-101071569D01*
X123076973Y-101132892D01*
X123071989Y-101202584D01*
X123030117Y-101258517D01*
X122964653Y-101282934D01*
X122959217Y-101283128D01*
X122957673Y-101283249D01*
X122782693Y-101310964D01*
X122614210Y-101365706D01*
X122614207Y-101365707D01*
X122456359Y-101446136D01*
X122374588Y-101505546D01*
X122313036Y-101550267D01*
X122313034Y-101550269D01*
X122313033Y-101550269D01*
X122187769Y-101675533D01*
X122187769Y-101675534D01*
X122187767Y-101675536D01*
X122143046Y-101737088D01*
X122083636Y-101818859D01*
X122003207Y-101976707D01*
X122003206Y-101976710D01*
X121948464Y-102145193D01*
X121920750Y-102320171D01*
X115281750Y-102320171D01*
X115254036Y-102145195D01*
X115199292Y-101976708D01*
X115199292Y-101976707D01*
X115118863Y-101818859D01*
X115107768Y-101803588D01*
X115014733Y-101675536D01*
X114889464Y-101550267D01*
X114746140Y-101446136D01*
X114738203Y-101442092D01*
X114588292Y-101365707D01*
X114588289Y-101365706D01*
X114419806Y-101310964D01*
X114332317Y-101297107D01*
X114244829Y-101283250D01*
X114067671Y-101283250D01*
X114009345Y-101292488D01*
X113892693Y-101310964D01*
X113724210Y-101365706D01*
X113724207Y-101365707D01*
X113566359Y-101446136D01*
X113484588Y-101505546D01*
X113423036Y-101550267D01*
X113423034Y-101550269D01*
X113423033Y-101550269D01*
X113297769Y-101675533D01*
X113297769Y-101675534D01*
X113297767Y-101675536D01*
X113253046Y-101737088D01*
X113193636Y-101818859D01*
X113113207Y-101976707D01*
X113113206Y-101976710D01*
X113058464Y-102145193D01*
X113030750Y-102320171D01*
X111326750Y-102320171D01*
X111326750Y-102261244D01*
X111288243Y-101968757D01*
X111211889Y-101683798D01*
X111098993Y-101411243D01*
X111072703Y-101365708D01*
X110951488Y-101155756D01*
X110771897Y-100921709D01*
X110771891Y-100921702D01*
X110563297Y-100713108D01*
X110563290Y-100713102D01*
X110329243Y-100533511D01*
X110073760Y-100386008D01*
X110073750Y-100386004D01*
X109801211Y-100273114D01*
X109801204Y-100273112D01*
X109801202Y-100273111D01*
X109516243Y-100196757D01*
X109467363Y-100190321D01*
X109223763Y-100158250D01*
X109223756Y-100158250D01*
X108928744Y-100158250D01*
X108928736Y-100158250D01*
X108650335Y-100194903D01*
X108636257Y-100196757D01*
X108351298Y-100273111D01*
X108351288Y-100273114D01*
X108078749Y-100386004D01*
X108078739Y-100386008D01*
X107823256Y-100533511D01*
X107589209Y-100713102D01*
X107589202Y-100713108D01*
X107380608Y-100921702D01*
X107380602Y-100921709D01*
X107201011Y-101155756D01*
X107053508Y-101411239D01*
X107053504Y-101411249D01*
X106940614Y-101683788D01*
X106940611Y-101683798D01*
X106904422Y-101818860D01*
X106864258Y-101968754D01*
X106864256Y-101968765D01*
X106825750Y-102261236D01*
X105112415Y-102261236D01*
X105094036Y-102145195D01*
X105039292Y-101976708D01*
X105039292Y-101976707D01*
X104958863Y-101818859D01*
X104947768Y-101803588D01*
X104924288Y-101737782D01*
X104940113Y-101669728D01*
X104990218Y-101621033D01*
X105058696Y-101607157D01*
X105064227Y-101607758D01*
X105151516Y-101619250D01*
X105151523Y-101619250D01*
X105380977Y-101619250D01*
X105380984Y-101619250D01*
X105608488Y-101589298D01*
X105830137Y-101529908D01*
X106042138Y-101442094D01*
X106240862Y-101327361D01*
X106422911Y-101187669D01*
X106422915Y-101187664D01*
X106422920Y-101187661D01*
X106585161Y-101025420D01*
X106585164Y-101025415D01*
X106585169Y-101025411D01*
X106724861Y-100843362D01*
X106839594Y-100644638D01*
X106927408Y-100432637D01*
X106986798Y-100210988D01*
X107016750Y-99983484D01*
X107016750Y-99754016D01*
X106986798Y-99526512D01*
X106927408Y-99304863D01*
X106839594Y-99092862D01*
X106724861Y-98894138D01*
X106724858Y-98894135D01*
X106724857Y-98894132D01*
X106585168Y-98712088D01*
X106585161Y-98712080D01*
X106422920Y-98549839D01*
X106422911Y-98549831D01*
X106240867Y-98410142D01*
X106042140Y-98295407D01*
X106042126Y-98295400D01*
X105830137Y-98207592D01*
X105608488Y-98148202D01*
X105570465Y-98143196D01*
X105380991Y-98118250D01*
X105380984Y-98118250D01*
X105151516Y-98118250D01*
X105151508Y-98118250D01*
X104944740Y-98145473D01*
X104924012Y-98148202D01*
X104830326Y-98173304D01*
X104702362Y-98207592D01*
X104490373Y-98295400D01*
X104490359Y-98295407D01*
X104291632Y-98410142D01*
X104109588Y-98549831D01*
X103947331Y-98712088D01*
X103807642Y-98894132D01*
X103692907Y-99092859D01*
X103692900Y-99092873D01*
X103605092Y-99304862D01*
X103545703Y-99526509D01*
X103545701Y-99526520D01*
X103515750Y-99754008D01*
X103515750Y-99983491D01*
X103538759Y-100158250D01*
X103545702Y-100210988D01*
X103592597Y-100386004D01*
X103605092Y-100432637D01*
X103692900Y-100644626D01*
X103692907Y-100644640D01*
X103807642Y-100843367D01*
X103947331Y-101025411D01*
X103947339Y-101025420D01*
X103993488Y-101071569D01*
X104026973Y-101132892D01*
X104021989Y-101202584D01*
X103980117Y-101258517D01*
X103914653Y-101282934D01*
X103909217Y-101283128D01*
X103907673Y-101283249D01*
X103732693Y-101310964D01*
X103564210Y-101365706D01*
X103564207Y-101365707D01*
X103406359Y-101446136D01*
X103324588Y-101505546D01*
X103263036Y-101550267D01*
X103263034Y-101550269D01*
X103263033Y-101550269D01*
X103137769Y-101675533D01*
X103137769Y-101675534D01*
X103137767Y-101675536D01*
X103093046Y-101737088D01*
X103033636Y-101818859D01*
X102953207Y-101976707D01*
X102953206Y-101976710D01*
X102898464Y-102145193D01*
X102870750Y-102320171D01*
X100151750Y-102320171D01*
X100151750Y-97214008D01*
X109865750Y-97214008D01*
X109865750Y-97443491D01*
X109878970Y-97543898D01*
X109895702Y-97670988D01*
X109955092Y-97892637D01*
X110042900Y-98104626D01*
X110042907Y-98104640D01*
X110157642Y-98303367D01*
X110297331Y-98485411D01*
X110297339Y-98485420D01*
X110459580Y-98647661D01*
X110459588Y-98647668D01*
X110641632Y-98787357D01*
X110641635Y-98787358D01*
X110641638Y-98787361D01*
X110840362Y-98902094D01*
X110840367Y-98902096D01*
X110840373Y-98902099D01*
X110931730Y-98939940D01*
X111052363Y-98989908D01*
X111274012Y-99049298D01*
X111501516Y-99079250D01*
X111501523Y-99079250D01*
X111730977Y-99079250D01*
X111730984Y-99079250D01*
X111958488Y-99049298D01*
X112180137Y-98989908D01*
X112392138Y-98902094D01*
X112590862Y-98787361D01*
X112772911Y-98647669D01*
X112772915Y-98647664D01*
X112772920Y-98647661D01*
X112935161Y-98485420D01*
X112935164Y-98485415D01*
X112935169Y-98485411D01*
X113074861Y-98303362D01*
X113189594Y-98104638D01*
X113200686Y-98077860D01*
X113230535Y-98005798D01*
X113274375Y-97951394D01*
X113340670Y-97929329D01*
X113345096Y-97929250D01*
X117235685Y-97929250D01*
X117302724Y-97948935D01*
X117348479Y-98001739D01*
X117353615Y-98014931D01*
X117396030Y-98145469D01*
X117476483Y-98303367D01*
X117488965Y-98327863D01*
X117609278Y-98493463D01*
X117754036Y-98638221D01*
X117855709Y-98712089D01*
X117919640Y-98758537D01*
X118035857Y-98817753D01*
X118102026Y-98851468D01*
X118102028Y-98851468D01*
X118102031Y-98851470D01*
X118206387Y-98885377D01*
X118296715Y-98914727D01*
X118397807Y-98930738D01*
X118498898Y-98946750D01*
X118498899Y-98946750D01*
X118703601Y-98946750D01*
X118703602Y-98946750D01*
X118905784Y-98914727D01*
X119100469Y-98851470D01*
X119282860Y-98758537D01*
X119375840Y-98690982D01*
X119448463Y-98638221D01*
X119448465Y-98638218D01*
X119448469Y-98638216D01*
X119593216Y-98493469D01*
X119593218Y-98493465D01*
X119593221Y-98493463D01*
X119653758Y-98410139D01*
X119713537Y-98327860D01*
X119806470Y-98145469D01*
X119869727Y-97950784D01*
X119901750Y-97748602D01*
X119901750Y-97543898D01*
X119895108Y-97501960D01*
X119869727Y-97341715D01*
X119854190Y-97293898D01*
X119828232Y-97214008D01*
X128915750Y-97214008D01*
X128915750Y-97443491D01*
X128928970Y-97543898D01*
X128945702Y-97670988D01*
X129005092Y-97892637D01*
X129092900Y-98104626D01*
X129092907Y-98104640D01*
X129207642Y-98303367D01*
X129347331Y-98485411D01*
X129347339Y-98485420D01*
X129509580Y-98647661D01*
X129509588Y-98647668D01*
X129691632Y-98787357D01*
X129691635Y-98787358D01*
X129691638Y-98787361D01*
X129890362Y-98902094D01*
X129890367Y-98902096D01*
X129890373Y-98902099D01*
X129981730Y-98939940D01*
X130102363Y-98989908D01*
X130324012Y-99049298D01*
X130551516Y-99079250D01*
X130551523Y-99079250D01*
X130780977Y-99079250D01*
X130780984Y-99079250D01*
X131008488Y-99049298D01*
X131230137Y-98989908D01*
X131442138Y-98902094D01*
X131640862Y-98787361D01*
X131822911Y-98647669D01*
X131822915Y-98647664D01*
X131822920Y-98647661D01*
X131985161Y-98485420D01*
X131985164Y-98485415D01*
X131985169Y-98485411D01*
X132124861Y-98303362D01*
X132239594Y-98104638D01*
X132250686Y-98077860D01*
X132280535Y-98005798D01*
X132324375Y-97951394D01*
X132390670Y-97929329D01*
X132395096Y-97929250D01*
X136285685Y-97929250D01*
X136352724Y-97948935D01*
X136398479Y-98001739D01*
X136403615Y-98014931D01*
X136446030Y-98145469D01*
X136526483Y-98303367D01*
X136538965Y-98327863D01*
X136659278Y-98493463D01*
X136804036Y-98638221D01*
X136905709Y-98712089D01*
X136969640Y-98758537D01*
X137085857Y-98817753D01*
X137152026Y-98851468D01*
X137152028Y-98851468D01*
X137152031Y-98851470D01*
X137256387Y-98885377D01*
X137346715Y-98914727D01*
X137447807Y-98930738D01*
X137548898Y-98946750D01*
X137548899Y-98946750D01*
X137753601Y-98946750D01*
X137753602Y-98946750D01*
X137955784Y-98914727D01*
X138150469Y-98851470D01*
X138332860Y-98758537D01*
X138425840Y-98690982D01*
X138498463Y-98638221D01*
X138498465Y-98638218D01*
X138498469Y-98638216D01*
X138643216Y-98493469D01*
X138643218Y-98493465D01*
X138643221Y-98493463D01*
X138703758Y-98410139D01*
X138763537Y-98327860D01*
X138856470Y-98145469D01*
X138919727Y-97950784D01*
X138951750Y-97748602D01*
X138951750Y-97543898D01*
X138945108Y-97501960D01*
X138919727Y-97341715D01*
X138870909Y-97191471D01*
X138856470Y-97147031D01*
X138856468Y-97147028D01*
X138856468Y-97147026D01*
X138774681Y-96986512D01*
X138763537Y-96964640D01*
X138714413Y-96897026D01*
X138643221Y-96799036D01*
X138498463Y-96654278D01*
X138332863Y-96533965D01*
X138332862Y-96533964D01*
X138332860Y-96533963D01*
X138275903Y-96504941D01*
X138150473Y-96441031D01*
X137955784Y-96377772D01*
X137781245Y-96350128D01*
X137753602Y-96345750D01*
X137548898Y-96345750D01*
X137524579Y-96349601D01*
X137346715Y-96377772D01*
X137152026Y-96441031D01*
X136969636Y-96533965D01*
X136804036Y-96654278D01*
X136804032Y-96654282D01*
X136766384Y-96691931D01*
X136705061Y-96725416D01*
X136678703Y-96728250D01*
X132395096Y-96728250D01*
X132328057Y-96708565D01*
X132282302Y-96655761D01*
X132280535Y-96651702D01*
X132239599Y-96552873D01*
X132239596Y-96552867D01*
X132239594Y-96552862D01*
X132124861Y-96354138D01*
X132124858Y-96354135D01*
X132124857Y-96354132D01*
X131985168Y-96172088D01*
X131985161Y-96172080D01*
X131822920Y-96009839D01*
X131822911Y-96009831D01*
X131640867Y-95870142D01*
X131442140Y-95755407D01*
X131442126Y-95755400D01*
X131230137Y-95667592D01*
X131008488Y-95608202D01*
X130970465Y-95603196D01*
X130780991Y-95578250D01*
X130780984Y-95578250D01*
X130551516Y-95578250D01*
X130551508Y-95578250D01*
X130334965Y-95606759D01*
X130324012Y-95608202D01*
X130230326Y-95633304D01*
X130102362Y-95667592D01*
X129890373Y-95755400D01*
X129890359Y-95755407D01*
X129691632Y-95870142D01*
X129509588Y-96009831D01*
X129347331Y-96172088D01*
X129207642Y-96354132D01*
X129092907Y-96552859D01*
X129092900Y-96552873D01*
X129005092Y-96764862D01*
X128945703Y-96986509D01*
X128945701Y-96986520D01*
X128915750Y-97214008D01*
X119828232Y-97214008D01*
X119806470Y-97147031D01*
X119713537Y-96964640D01*
X119664413Y-96897026D01*
X119593221Y-96799036D01*
X119448463Y-96654278D01*
X119282863Y-96533965D01*
X119282862Y-96533964D01*
X119282860Y-96533963D01*
X119225903Y-96504941D01*
X119100473Y-96441031D01*
X118905784Y-96377772D01*
X118731245Y-96350128D01*
X118703602Y-96345750D01*
X118498898Y-96345750D01*
X118474579Y-96349601D01*
X118296715Y-96377772D01*
X118102026Y-96441031D01*
X117919636Y-96533965D01*
X117754036Y-96654278D01*
X117754032Y-96654282D01*
X117716384Y-96691931D01*
X117655061Y-96725416D01*
X117628703Y-96728250D01*
X113345096Y-96728250D01*
X113278057Y-96708565D01*
X113232302Y-96655761D01*
X113230535Y-96651702D01*
X113189599Y-96552873D01*
X113189596Y-96552867D01*
X113189594Y-96552862D01*
X113074861Y-96354138D01*
X113074858Y-96354135D01*
X113074857Y-96354132D01*
X112935168Y-96172088D01*
X112935161Y-96172080D01*
X112772920Y-96009839D01*
X112772911Y-96009831D01*
X112590867Y-95870142D01*
X112392140Y-95755407D01*
X112392126Y-95755400D01*
X112180137Y-95667592D01*
X111958488Y-95608202D01*
X111920465Y-95603196D01*
X111730991Y-95578250D01*
X111730984Y-95578250D01*
X111501516Y-95578250D01*
X111501508Y-95578250D01*
X111284965Y-95606759D01*
X111274012Y-95608202D01*
X111180326Y-95633304D01*
X111052362Y-95667592D01*
X110840373Y-95755400D01*
X110840359Y-95755407D01*
X110641632Y-95870142D01*
X110459588Y-96009831D01*
X110297331Y-96172088D01*
X110157642Y-96354132D01*
X110042907Y-96552859D01*
X110042900Y-96552873D01*
X109955092Y-96764862D01*
X109895703Y-96986509D01*
X109895701Y-96986520D01*
X109865750Y-97214008D01*
X100151750Y-97214008D01*
X100151750Y-88542195D01*
X100151750Y-88542193D01*
X100110827Y-88389466D01*
X100101953Y-88374095D01*
X100031774Y-88252540D01*
X100031768Y-88252532D01*
X99919967Y-88140731D01*
X99919959Y-88140725D01*
X99783040Y-88061676D01*
X99783036Y-88061674D01*
X99783034Y-88061673D01*
X99630307Y-88020750D01*
X99472193Y-88020750D01*
X99319466Y-88061673D01*
X99319459Y-88061676D01*
X99182540Y-88140725D01*
X99182532Y-88140731D01*
X99070731Y-88252532D01*
X99070725Y-88252540D01*
X98991676Y-88389459D01*
X98991673Y-88389466D01*
X98950750Y-88542193D01*
X98950750Y-113690500D01*
X98931065Y-113757539D01*
X98878261Y-113803294D01*
X98826750Y-113814500D01*
X97894500Y-113814500D01*
X97827461Y-113794815D01*
X97781706Y-113742011D01*
X97770500Y-113690500D01*
X97770500Y-83270171D01*
X102870750Y-83270171D01*
X102870750Y-83447328D01*
X102898464Y-83622306D01*
X102953206Y-83790789D01*
X102953207Y-83790792D01*
X103017401Y-83916778D01*
X103033636Y-83948640D01*
X103137767Y-84091964D01*
X103263036Y-84217233D01*
X103406360Y-84321364D01*
X103474827Y-84356250D01*
X103564207Y-84401792D01*
X103564210Y-84401793D01*
X103648451Y-84429164D01*
X103732695Y-84456536D01*
X103907671Y-84484250D01*
X103907672Y-84484250D01*
X104084828Y-84484250D01*
X104084829Y-84484250D01*
X104259805Y-84456536D01*
X104428292Y-84401792D01*
X104586140Y-84321364D01*
X104729464Y-84217233D01*
X104854733Y-84091964D01*
X104958864Y-83948640D01*
X105039292Y-83790792D01*
X105094036Y-83622305D01*
X105121750Y-83447329D01*
X105121750Y-83270171D01*
X105112415Y-83211236D01*
X106825750Y-83211236D01*
X106825750Y-83506263D01*
X106841028Y-83622305D01*
X106864257Y-83798743D01*
X106940611Y-84083701D01*
X106940614Y-84083711D01*
X107053504Y-84356250D01*
X107053508Y-84356260D01*
X107201011Y-84611743D01*
X107380602Y-84845790D01*
X107380608Y-84845797D01*
X107589202Y-85054391D01*
X107589209Y-85054397D01*
X107823256Y-85233988D01*
X108078739Y-85381491D01*
X108078740Y-85381491D01*
X108078743Y-85381493D01*
X108351298Y-85494389D01*
X108636257Y-85570743D01*
X108928744Y-85609250D01*
X108928751Y-85609250D01*
X109223749Y-85609250D01*
X109223756Y-85609250D01*
X109516243Y-85570743D01*
X109801202Y-85494389D01*
X110073757Y-85381493D01*
X110329244Y-85233988D01*
X110563292Y-85054396D01*
X110771896Y-84845792D01*
X110951488Y-84611744D01*
X111098993Y-84356257D01*
X111211889Y-84083702D01*
X111288243Y-83798743D01*
X111326750Y-83506256D01*
X111326750Y-83270171D01*
X113030750Y-83270171D01*
X113030750Y-83447328D01*
X113058464Y-83622306D01*
X113113206Y-83790789D01*
X113113207Y-83790792D01*
X113177401Y-83916778D01*
X113193636Y-83948640D01*
X113297767Y-84091964D01*
X113423036Y-84217233D01*
X113566360Y-84321364D01*
X113634827Y-84356250D01*
X113724207Y-84401792D01*
X113724210Y-84401793D01*
X113808451Y-84429164D01*
X113892695Y-84456536D01*
X114067671Y-84484250D01*
X114067672Y-84484250D01*
X114244828Y-84484250D01*
X114244829Y-84484250D01*
X114419805Y-84456536D01*
X114588292Y-84401792D01*
X114746140Y-84321364D01*
X114889464Y-84217233D01*
X115014733Y-84091964D01*
X115118864Y-83948640D01*
X115199292Y-83790792D01*
X115254036Y-83622305D01*
X115281750Y-83447329D01*
X115281750Y-83270171D01*
X121920750Y-83270171D01*
X121920750Y-83447328D01*
X121948464Y-83622306D01*
X122003206Y-83790789D01*
X122003207Y-83790792D01*
X122067401Y-83916778D01*
X122083636Y-83948640D01*
X122187767Y-84091964D01*
X122313036Y-84217233D01*
X122456360Y-84321364D01*
X122524827Y-84356250D01*
X122614207Y-84401792D01*
X122614210Y-84401793D01*
X122698451Y-84429164D01*
X122782695Y-84456536D01*
X122957671Y-84484250D01*
X122957672Y-84484250D01*
X123134828Y-84484250D01*
X123134829Y-84484250D01*
X123309805Y-84456536D01*
X123478292Y-84401792D01*
X123636140Y-84321364D01*
X123779464Y-84217233D01*
X123904733Y-84091964D01*
X124008864Y-83948640D01*
X124089292Y-83790792D01*
X124144036Y-83622305D01*
X124171750Y-83447329D01*
X124171750Y-83270171D01*
X124144036Y-83095195D01*
X124089292Y-82926708D01*
X124089292Y-82926707D01*
X124025098Y-82800721D01*
X124008864Y-82768860D01*
X123997767Y-82753587D01*
X123974288Y-82687782D01*
X123990113Y-82619728D01*
X124040218Y-82571033D01*
X124108696Y-82557157D01*
X124114227Y-82557758D01*
X124201516Y-82569250D01*
X124201523Y-82569250D01*
X124430977Y-82569250D01*
X124430984Y-82569250D01*
X124658488Y-82539298D01*
X124880137Y-82479908D01*
X125092138Y-82392094D01*
X125290862Y-82277361D01*
X125472911Y-82137669D01*
X125472915Y-82137664D01*
X125472920Y-82137661D01*
X125635161Y-81975420D01*
X125635164Y-81975415D01*
X125635169Y-81975411D01*
X125774861Y-81793362D01*
X125889594Y-81594638D01*
X125977408Y-81382637D01*
X126036798Y-81160988D01*
X126066750Y-80933484D01*
X126066750Y-80704016D01*
X126036798Y-80476512D01*
X125977408Y-80254863D01*
X125889594Y-80042862D01*
X125774861Y-79844138D01*
X125774858Y-79844135D01*
X125774857Y-79844132D01*
X125635168Y-79662088D01*
X125635161Y-79662080D01*
X125472920Y-79499839D01*
X125472911Y-79499831D01*
X125290867Y-79360142D01*
X125092140Y-79245407D01*
X125092126Y-79245400D01*
X124880137Y-79157592D01*
X124858502Y-79151795D01*
X124658488Y-79098202D01*
X124620465Y-79093196D01*
X124430991Y-79068250D01*
X124430984Y-79068250D01*
X124201516Y-79068250D01*
X124201508Y-79068250D01*
X123994740Y-79095473D01*
X123974012Y-79098202D01*
X123880326Y-79123304D01*
X123752362Y-79157592D01*
X123540373Y-79245400D01*
X123540359Y-79245407D01*
X123341632Y-79360142D01*
X123159588Y-79499831D01*
X122997331Y-79662088D01*
X122857642Y-79844132D01*
X122742907Y-80042859D01*
X122742900Y-80042873D01*
X122655092Y-80254862D01*
X122632097Y-80340681D01*
X122600826Y-80457391D01*
X122595703Y-80476509D01*
X122595701Y-80476520D01*
X122565750Y-80704008D01*
X122565750Y-80933491D01*
X122581925Y-81056342D01*
X122595702Y-81160988D01*
X122618405Y-81245716D01*
X122655092Y-81382637D01*
X122742900Y-81594626D01*
X122742907Y-81594640D01*
X122857642Y-81793367D01*
X122997331Y-81975411D01*
X122997339Y-81975420D01*
X123043488Y-82021569D01*
X123076973Y-82082892D01*
X123071989Y-82152584D01*
X123030117Y-82208517D01*
X122964653Y-82232934D01*
X122959217Y-82233128D01*
X122957673Y-82233249D01*
X122782693Y-82260964D01*
X122614210Y-82315706D01*
X122614207Y-82315707D01*
X122456359Y-82396136D01*
X122412427Y-82428055D01*
X122313036Y-82500267D01*
X122313034Y-82500269D01*
X122313033Y-82500269D01*
X122187769Y-82625533D01*
X122187769Y-82625534D01*
X122187767Y-82625536D01*
X122147229Y-82681332D01*
X122083636Y-82768859D01*
X122003207Y-82926707D01*
X122003206Y-82926710D01*
X121948464Y-83095193D01*
X121920750Y-83270171D01*
X115281750Y-83270171D01*
X115254036Y-83095195D01*
X115199292Y-82926708D01*
X115199292Y-82926707D01*
X115135098Y-82800721D01*
X115118864Y-82768860D01*
X115014733Y-82625536D01*
X114889464Y-82500267D01*
X114746140Y-82396136D01*
X114688432Y-82366732D01*
X114588292Y-82315707D01*
X114588289Y-82315706D01*
X114419806Y-82260964D01*
X114332317Y-82247107D01*
X114244829Y-82233250D01*
X114067671Y-82233250D01*
X114009345Y-82242488D01*
X113892693Y-82260964D01*
X113724210Y-82315706D01*
X113724207Y-82315707D01*
X113566359Y-82396136D01*
X113522427Y-82428055D01*
X113423036Y-82500267D01*
X113423034Y-82500269D01*
X113423033Y-82500269D01*
X113297769Y-82625533D01*
X113297769Y-82625534D01*
X113297767Y-82625536D01*
X113257229Y-82681332D01*
X113193636Y-82768859D01*
X113113207Y-82926707D01*
X113113206Y-82926710D01*
X113058464Y-83095193D01*
X113030750Y-83270171D01*
X111326750Y-83270171D01*
X111326750Y-83211244D01*
X111288243Y-82918757D01*
X111211889Y-82633798D01*
X111098993Y-82361243D01*
X111072703Y-82315708D01*
X110951488Y-82105756D01*
X110771897Y-81871709D01*
X110771891Y-81871702D01*
X110563297Y-81663108D01*
X110563290Y-81663102D01*
X110329243Y-81483511D01*
X110073760Y-81336008D01*
X110073750Y-81336004D01*
X109801211Y-81223114D01*
X109801204Y-81223112D01*
X109801202Y-81223111D01*
X109516243Y-81146757D01*
X109467363Y-81140321D01*
X109223763Y-81108250D01*
X109223756Y-81108250D01*
X108928744Y-81108250D01*
X108928736Y-81108250D01*
X108650335Y-81144903D01*
X108636257Y-81146757D01*
X108351298Y-81223111D01*
X108351288Y-81223114D01*
X108078749Y-81336004D01*
X108078739Y-81336008D01*
X107823256Y-81483511D01*
X107589209Y-81663102D01*
X107589202Y-81663108D01*
X107380608Y-81871702D01*
X107380602Y-81871709D01*
X107201011Y-82105756D01*
X107053508Y-82361239D01*
X107053504Y-82361249D01*
X106940614Y-82633788D01*
X106940611Y-82633798D01*
X106895885Y-82800721D01*
X106864258Y-82918754D01*
X106864256Y-82918765D01*
X106825750Y-83211236D01*
X105112415Y-83211236D01*
X105094036Y-83095195D01*
X105039292Y-82926708D01*
X105039292Y-82926707D01*
X104975098Y-82800721D01*
X104958864Y-82768860D01*
X104947767Y-82753587D01*
X104924288Y-82687782D01*
X104940113Y-82619728D01*
X104990218Y-82571033D01*
X105058696Y-82557157D01*
X105064227Y-82557758D01*
X105151516Y-82569250D01*
X105151523Y-82569250D01*
X105380977Y-82569250D01*
X105380984Y-82569250D01*
X105608488Y-82539298D01*
X105830137Y-82479908D01*
X106042138Y-82392094D01*
X106240862Y-82277361D01*
X106422911Y-82137669D01*
X106422915Y-82137664D01*
X106422920Y-82137661D01*
X106585161Y-81975420D01*
X106585164Y-81975415D01*
X106585169Y-81975411D01*
X106724861Y-81793362D01*
X106839594Y-81594638D01*
X106927408Y-81382637D01*
X106986798Y-81160988D01*
X107016750Y-80933484D01*
X107016750Y-80704016D01*
X106986798Y-80476512D01*
X106927408Y-80254863D01*
X106839594Y-80042862D01*
X106724861Y-79844138D01*
X106724858Y-79844135D01*
X106724857Y-79844132D01*
X106585168Y-79662088D01*
X106585161Y-79662080D01*
X106422920Y-79499839D01*
X106422911Y-79499831D01*
X106240867Y-79360142D01*
X106042140Y-79245407D01*
X106042126Y-79245400D01*
X105830137Y-79157592D01*
X105808502Y-79151795D01*
X105608488Y-79098202D01*
X105570465Y-79093196D01*
X105380991Y-79068250D01*
X105380984Y-79068250D01*
X105151516Y-79068250D01*
X105151508Y-79068250D01*
X104944740Y-79095473D01*
X104924012Y-79098202D01*
X104830326Y-79123304D01*
X104702362Y-79157592D01*
X104490373Y-79245400D01*
X104490359Y-79245407D01*
X104291632Y-79360142D01*
X104109588Y-79499831D01*
X103947331Y-79662088D01*
X103807642Y-79844132D01*
X103692907Y-80042859D01*
X103692900Y-80042873D01*
X103605092Y-80254862D01*
X103582097Y-80340681D01*
X103550826Y-80457391D01*
X103545703Y-80476509D01*
X103545701Y-80476520D01*
X103515750Y-80704008D01*
X103515750Y-80933491D01*
X103531925Y-81056342D01*
X103545702Y-81160988D01*
X103568405Y-81245716D01*
X103605092Y-81382637D01*
X103692900Y-81594626D01*
X103692907Y-81594640D01*
X103807642Y-81793367D01*
X103947331Y-81975411D01*
X103947339Y-81975420D01*
X103993488Y-82021569D01*
X104026973Y-82082892D01*
X104021989Y-82152584D01*
X103980117Y-82208517D01*
X103914653Y-82232934D01*
X103909217Y-82233128D01*
X103907673Y-82233249D01*
X103732693Y-82260964D01*
X103564210Y-82315706D01*
X103564207Y-82315707D01*
X103406359Y-82396136D01*
X103362427Y-82428055D01*
X103263036Y-82500267D01*
X103263034Y-82500269D01*
X103263033Y-82500269D01*
X103137769Y-82625533D01*
X103137769Y-82625534D01*
X103137767Y-82625536D01*
X103097229Y-82681332D01*
X103033636Y-82768859D01*
X102953207Y-82926707D01*
X102953206Y-82926710D01*
X102898464Y-83095193D01*
X102870750Y-83270171D01*
X97770500Y-83270171D01*
X97770500Y-81398445D01*
X97770500Y-81398443D01*
X97729577Y-81245716D01*
X97687112Y-81172163D01*
X97670500Y-81110164D01*
X97670500Y-78164008D01*
X109865750Y-78164008D01*
X109865750Y-78393491D01*
X109878970Y-78493898D01*
X109895702Y-78620988D01*
X109953522Y-78836778D01*
X109955092Y-78842637D01*
X110042900Y-79054626D01*
X110042907Y-79054640D01*
X110157642Y-79253367D01*
X110297331Y-79435411D01*
X110297339Y-79435420D01*
X110459580Y-79597661D01*
X110459588Y-79597668D01*
X110641632Y-79737357D01*
X110641635Y-79737358D01*
X110641638Y-79737361D01*
X110840362Y-79852094D01*
X110840367Y-79852096D01*
X110840373Y-79852099D01*
X110922742Y-79886217D01*
X111052363Y-79939908D01*
X111274012Y-79999298D01*
X111501516Y-80029250D01*
X111501523Y-80029250D01*
X111730977Y-80029250D01*
X111730984Y-80029250D01*
X111958488Y-79999298D01*
X112180137Y-79939908D01*
X112392138Y-79852094D01*
X112590862Y-79737361D01*
X112772911Y-79597669D01*
X112772915Y-79597664D01*
X112772920Y-79597661D01*
X112935161Y-79435420D01*
X112935164Y-79435415D01*
X112935169Y-79435411D01*
X113074861Y-79253362D01*
X113189594Y-79054638D01*
X113200686Y-79027860D01*
X113230535Y-78955798D01*
X113274375Y-78901394D01*
X113340670Y-78879329D01*
X113345096Y-78879250D01*
X117587255Y-78879250D01*
X117654294Y-78898935D01*
X117697739Y-78946954D01*
X117735266Y-79020605D01*
X117738965Y-79027864D01*
X117859278Y-79193463D01*
X118004036Y-79338221D01*
X118158999Y-79450806D01*
X118169640Y-79458537D01*
X118250684Y-79499831D01*
X118352026Y-79551468D01*
X118352028Y-79551468D01*
X118352031Y-79551470D01*
X118386640Y-79562715D01*
X118546715Y-79614727D01*
X118624904Y-79627111D01*
X118748898Y-79646750D01*
X118748899Y-79646750D01*
X118953601Y-79646750D01*
X118953602Y-79646750D01*
X119155784Y-79614727D01*
X119350469Y-79551470D01*
X119532860Y-79458537D01*
X119625840Y-79390982D01*
X119698463Y-79338221D01*
X119698465Y-79338218D01*
X119698469Y-79338216D01*
X119843216Y-79193469D01*
X119843218Y-79193465D01*
X119843221Y-79193463D01*
X119912431Y-79098202D01*
X119963537Y-79027860D01*
X120056470Y-78845469D01*
X120119727Y-78650784D01*
X120151750Y-78448602D01*
X120151750Y-78243898D01*
X120139096Y-78164008D01*
X128915750Y-78164008D01*
X128915750Y-78393491D01*
X128928970Y-78493898D01*
X128945702Y-78620988D01*
X129003522Y-78836778D01*
X129005092Y-78842637D01*
X129092900Y-79054626D01*
X129092907Y-79054640D01*
X129207642Y-79253367D01*
X129347331Y-79435411D01*
X129347339Y-79435420D01*
X129509580Y-79597661D01*
X129509588Y-79597668D01*
X129691632Y-79737357D01*
X129691635Y-79737358D01*
X129691638Y-79737361D01*
X129890362Y-79852094D01*
X129890367Y-79852096D01*
X129890373Y-79852099D01*
X129972742Y-79886217D01*
X130102363Y-79939908D01*
X130324012Y-79999298D01*
X130551516Y-80029250D01*
X130551523Y-80029250D01*
X130780977Y-80029250D01*
X130780984Y-80029250D01*
X131008488Y-79999298D01*
X131230137Y-79939908D01*
X131442138Y-79852094D01*
X131640862Y-79737361D01*
X131822911Y-79597669D01*
X131822915Y-79597664D01*
X131822920Y-79597661D01*
X131985161Y-79435420D01*
X131985164Y-79435415D01*
X131985169Y-79435411D01*
X132124861Y-79253362D01*
X132239594Y-79054638D01*
X132250686Y-79027860D01*
X132280535Y-78955798D01*
X132324375Y-78901394D01*
X132390670Y-78879329D01*
X132395096Y-78879250D01*
X136285685Y-78879250D01*
X136352724Y-78898935D01*
X136398479Y-78951739D01*
X136403615Y-78964931D01*
X136446030Y-79095469D01*
X136526483Y-79253367D01*
X136538965Y-79277863D01*
X136659278Y-79443463D01*
X136804036Y-79588221D01*
X136905709Y-79662089D01*
X136969640Y-79708537D01*
X137081122Y-79765340D01*
X137152026Y-79801468D01*
X137152028Y-79801468D01*
X137152031Y-79801470D01*
X137256387Y-79835377D01*
X137346715Y-79864727D01*
X137447807Y-79880738D01*
X137548898Y-79896750D01*
X137548899Y-79896750D01*
X137753601Y-79896750D01*
X137753602Y-79896750D01*
X137955784Y-79864727D01*
X138150469Y-79801470D01*
X138332860Y-79708537D01*
X138444934Y-79627111D01*
X138498463Y-79588221D01*
X138498465Y-79588218D01*
X138498469Y-79588216D01*
X138643216Y-79443469D01*
X138643218Y-79443465D01*
X138643221Y-79443463D01*
X138703758Y-79360139D01*
X138763537Y-79277860D01*
X138856470Y-79095469D01*
X138919727Y-78900784D01*
X138951750Y-78698602D01*
X138951750Y-78493898D01*
X138919727Y-78291716D01*
X138856470Y-78097031D01*
X138856468Y-78097028D01*
X138856468Y-78097026D01*
X138774681Y-77936512D01*
X138763537Y-77914640D01*
X138714413Y-77847026D01*
X138643221Y-77749036D01*
X138498463Y-77604278D01*
X138332863Y-77483965D01*
X138332862Y-77483964D01*
X138332860Y-77483963D01*
X138275903Y-77454941D01*
X138150473Y-77391031D01*
X137955784Y-77327772D01*
X137781245Y-77300128D01*
X137753602Y-77295750D01*
X137548898Y-77295750D01*
X137524579Y-77299601D01*
X137346715Y-77327772D01*
X137152026Y-77391031D01*
X136969636Y-77483965D01*
X136804036Y-77604278D01*
X136804032Y-77604282D01*
X136766384Y-77641931D01*
X136705061Y-77675416D01*
X136678703Y-77678250D01*
X132395096Y-77678250D01*
X132328057Y-77658565D01*
X132282302Y-77605761D01*
X132280535Y-77601702D01*
X132239599Y-77502873D01*
X132239596Y-77502867D01*
X132239594Y-77502862D01*
X132124861Y-77304138D01*
X132124858Y-77304135D01*
X132124857Y-77304132D01*
X131985168Y-77122088D01*
X131985161Y-77122080D01*
X131822920Y-76959839D01*
X131822911Y-76959831D01*
X131640867Y-76820142D01*
X131632861Y-76815520D01*
X131476582Y-76725292D01*
X131442140Y-76705407D01*
X131442126Y-76705400D01*
X131230137Y-76617592D01*
X131208502Y-76611795D01*
X131008488Y-76558202D01*
X130970465Y-76553196D01*
X130780991Y-76528250D01*
X130780984Y-76528250D01*
X130551516Y-76528250D01*
X130551508Y-76528250D01*
X130334965Y-76556759D01*
X130324012Y-76558202D01*
X130230326Y-76583304D01*
X130102362Y-76617592D01*
X129890373Y-76705400D01*
X129890359Y-76705407D01*
X129691632Y-76820142D01*
X129509588Y-76959831D01*
X129347331Y-77122088D01*
X129207642Y-77304132D01*
X129092907Y-77502859D01*
X129092900Y-77502873D01*
X129005092Y-77714862D01*
X128945703Y-77936509D01*
X128945701Y-77936520D01*
X128915750Y-78164008D01*
X120139096Y-78164008D01*
X120119727Y-78041716D01*
X120056470Y-77847031D01*
X120056468Y-77847028D01*
X120056468Y-77847026D01*
X120006536Y-77749031D01*
X119963537Y-77664640D01*
X119936288Y-77627135D01*
X119843221Y-77499036D01*
X119698463Y-77354278D01*
X119532863Y-77233965D01*
X119532862Y-77233964D01*
X119532860Y-77233963D01*
X119475903Y-77204941D01*
X119350473Y-77141031D01*
X119155784Y-77077772D01*
X118981245Y-77050128D01*
X118953602Y-77045750D01*
X118748898Y-77045750D01*
X118724579Y-77049601D01*
X118546715Y-77077772D01*
X118352026Y-77141031D01*
X118169636Y-77233965D01*
X118004036Y-77354278D01*
X117859278Y-77499036D01*
X117766211Y-77627135D01*
X117710882Y-77669801D01*
X117665893Y-77678250D01*
X113345096Y-77678250D01*
X113278057Y-77658565D01*
X113232302Y-77605761D01*
X113230535Y-77601702D01*
X113189599Y-77502873D01*
X113189596Y-77502867D01*
X113189594Y-77502862D01*
X113074861Y-77304138D01*
X113074858Y-77304135D01*
X113074857Y-77304132D01*
X112935168Y-77122088D01*
X112935161Y-77122080D01*
X112772920Y-76959839D01*
X112772911Y-76959831D01*
X112590867Y-76820142D01*
X112582861Y-76815520D01*
X112426582Y-76725292D01*
X112392140Y-76705407D01*
X112392126Y-76705400D01*
X112180137Y-76617592D01*
X112158502Y-76611795D01*
X111958488Y-76558202D01*
X111920465Y-76553196D01*
X111730991Y-76528250D01*
X111730984Y-76528250D01*
X111501516Y-76528250D01*
X111501508Y-76528250D01*
X111284965Y-76556759D01*
X111274012Y-76558202D01*
X111180326Y-76583304D01*
X111052362Y-76617592D01*
X110840373Y-76705400D01*
X110840359Y-76705407D01*
X110641632Y-76820142D01*
X110459588Y-76959831D01*
X110297331Y-77122088D01*
X110157642Y-77304132D01*
X110042907Y-77502859D01*
X110042900Y-77502873D01*
X109955092Y-77714862D01*
X109895703Y-77936509D01*
X109895701Y-77936520D01*
X109865750Y-78164008D01*
X97670500Y-78164008D01*
X97670500Y-76136153D01*
X139232000Y-76136153D01*
X139232000Y-76293846D01*
X139262761Y-76448489D01*
X139262764Y-76448501D01*
X139323102Y-76594172D01*
X139323109Y-76594185D01*
X139410710Y-76725288D01*
X139410713Y-76725292D01*
X139522207Y-76836786D01*
X139522211Y-76836789D01*
X139653314Y-76924390D01*
X139653327Y-76924397D01*
X139738874Y-76959831D01*
X139799003Y-76984737D01*
X139919724Y-77008750D01*
X139953653Y-77015499D01*
X139953656Y-77015500D01*
X139953658Y-77015500D01*
X140111344Y-77015500D01*
X140111345Y-77015499D01*
X140265997Y-76984737D01*
X140411679Y-76924394D01*
X140411685Y-76924390D01*
X140543375Y-76836398D01*
X140610053Y-76815520D01*
X140612266Y-76815500D01*
X145158957Y-76815500D01*
X145225996Y-76835185D01*
X145246638Y-76851819D01*
X149736693Y-81341874D01*
X149736703Y-81341885D01*
X149741033Y-81346215D01*
X149741034Y-81346216D01*
X149852838Y-81458020D01*
X149918913Y-81496168D01*
X149989769Y-81537077D01*
X150142497Y-81578000D01*
X153740234Y-81578000D01*
X153807273Y-81597685D01*
X153809125Y-81598898D01*
X153940814Y-81686890D01*
X153940827Y-81686897D01*
X154086498Y-81747235D01*
X154086503Y-81747237D01*
X154241153Y-81777999D01*
X154241156Y-81778000D01*
X154241158Y-81778000D01*
X154398844Y-81778000D01*
X154398845Y-81777999D01*
X154553497Y-81747237D01*
X154699179Y-81686894D01*
X154830289Y-81599289D01*
X154941789Y-81487789D01*
X155029394Y-81356679D01*
X155089737Y-81210997D01*
X155120500Y-81056342D01*
X155120500Y-80898658D01*
X155120500Y-80898655D01*
X155120499Y-80898653D01*
X155089738Y-80744010D01*
X155089737Y-80744003D01*
X155089735Y-80743998D01*
X155029397Y-80598327D01*
X155029390Y-80598314D01*
X154941789Y-80467211D01*
X154941786Y-80467207D01*
X154830292Y-80355713D01*
X154830288Y-80355710D01*
X154699185Y-80268109D01*
X154699172Y-80268102D01*
X154553501Y-80207764D01*
X154553489Y-80207761D01*
X154398845Y-80177000D01*
X154398842Y-80177000D01*
X154241158Y-80177000D01*
X154241155Y-80177000D01*
X154086510Y-80207761D01*
X154086498Y-80207764D01*
X153940827Y-80268102D01*
X153940814Y-80268109D01*
X153809125Y-80356102D01*
X153742447Y-80376980D01*
X153740234Y-80377000D01*
X150521651Y-80377000D01*
X150454612Y-80357315D01*
X150433970Y-80340681D01*
X150236748Y-80143459D01*
X150203263Y-80082136D01*
X150208247Y-80012444D01*
X150250119Y-79956511D01*
X150276976Y-79941217D01*
X150280134Y-79939908D01*
X150280137Y-79939908D01*
X150492138Y-79852094D01*
X150690862Y-79737361D01*
X150872911Y-79597669D01*
X150872915Y-79597664D01*
X150872920Y-79597661D01*
X151035161Y-79435420D01*
X151035164Y-79435415D01*
X151035169Y-79435411D01*
X151174861Y-79253362D01*
X151289594Y-79054638D01*
X151300686Y-79027860D01*
X151330535Y-78955798D01*
X151374375Y-78901394D01*
X151440670Y-78879329D01*
X151445096Y-78879250D01*
X155335685Y-78879250D01*
X155402724Y-78898935D01*
X155448479Y-78951739D01*
X155453615Y-78964931D01*
X155496030Y-79095469D01*
X155576483Y-79253367D01*
X155588965Y-79277863D01*
X155709278Y-79443463D01*
X155854036Y-79588221D01*
X155955709Y-79662089D01*
X156019640Y-79708537D01*
X156131122Y-79765340D01*
X156202026Y-79801468D01*
X156202028Y-79801468D01*
X156202031Y-79801470D01*
X156306387Y-79835377D01*
X156396715Y-79864727D01*
X156497807Y-79880738D01*
X156598898Y-79896750D01*
X156598899Y-79896750D01*
X156803601Y-79896750D01*
X156803602Y-79896750D01*
X157005784Y-79864727D01*
X157200469Y-79801470D01*
X157382860Y-79708537D01*
X157494934Y-79627111D01*
X157548463Y-79588221D01*
X157548465Y-79588218D01*
X157548469Y-79588216D01*
X157693216Y-79443469D01*
X157693218Y-79443465D01*
X157693221Y-79443463D01*
X157753758Y-79360139D01*
X157813537Y-79277860D01*
X157906470Y-79095469D01*
X157969727Y-78900784D01*
X158001750Y-78698602D01*
X158001750Y-78493898D01*
X157969727Y-78291716D01*
X157906470Y-78097031D01*
X157906468Y-78097028D01*
X157906468Y-78097026D01*
X157824681Y-77936512D01*
X157813537Y-77914640D01*
X157764413Y-77847026D01*
X157693221Y-77749036D01*
X157548463Y-77604278D01*
X157382863Y-77483965D01*
X157382862Y-77483964D01*
X157382860Y-77483963D01*
X157325903Y-77454941D01*
X157200473Y-77391031D01*
X157005784Y-77327772D01*
X156831245Y-77300128D01*
X156803602Y-77295750D01*
X156598898Y-77295750D01*
X156574579Y-77299601D01*
X156396715Y-77327772D01*
X156202026Y-77391031D01*
X156019636Y-77483965D01*
X155854036Y-77604278D01*
X155854032Y-77604282D01*
X155816384Y-77641931D01*
X155755061Y-77675416D01*
X155728703Y-77678250D01*
X151445096Y-77678250D01*
X151378057Y-77658565D01*
X151332302Y-77605761D01*
X151330535Y-77601702D01*
X151289599Y-77502873D01*
X151289596Y-77502867D01*
X151289594Y-77502862D01*
X151174861Y-77304138D01*
X151174858Y-77304135D01*
X151174857Y-77304132D01*
X151035168Y-77122088D01*
X151035161Y-77122080D01*
X150872920Y-76959839D01*
X150872911Y-76959831D01*
X150690867Y-76820142D01*
X150682861Y-76815520D01*
X150526582Y-76725292D01*
X150492140Y-76705407D01*
X150492126Y-76705400D01*
X150280137Y-76617592D01*
X150258502Y-76611795D01*
X150058488Y-76558202D01*
X150020465Y-76553196D01*
X149830991Y-76528250D01*
X149830984Y-76528250D01*
X149601516Y-76528250D01*
X149601508Y-76528250D01*
X149384965Y-76556759D01*
X149374012Y-76558202D01*
X149280326Y-76583304D01*
X149152362Y-76617592D01*
X148940373Y-76705400D01*
X148940359Y-76705407D01*
X148741632Y-76820142D01*
X148559588Y-76959831D01*
X148397331Y-77122088D01*
X148257642Y-77304132D01*
X148142907Y-77502859D01*
X148142902Y-77502868D01*
X148053782Y-77718023D01*
X148009941Y-77772426D01*
X147943646Y-77794491D01*
X147875947Y-77777211D01*
X147851540Y-77758251D01*
X145946644Y-75853355D01*
X145946642Y-75853352D01*
X145827771Y-75734481D01*
X145827770Y-75734480D01*
X145740958Y-75684360D01*
X145740958Y-75684359D01*
X145740954Y-75684358D01*
X145690839Y-75655423D01*
X145538111Y-75614499D01*
X145379997Y-75614499D01*
X145372401Y-75614499D01*
X145372385Y-75614500D01*
X140612266Y-75614500D01*
X140545227Y-75594815D01*
X140543375Y-75593602D01*
X140411685Y-75505609D01*
X140411672Y-75505602D01*
X140266001Y-75445264D01*
X140265989Y-75445261D01*
X140111345Y-75414500D01*
X140111342Y-75414500D01*
X139953658Y-75414500D01*
X139953655Y-75414500D01*
X139799010Y-75445261D01*
X139798998Y-75445264D01*
X139653327Y-75505602D01*
X139653314Y-75505609D01*
X139522211Y-75593210D01*
X139522207Y-75593213D01*
X139410713Y-75704707D01*
X139410710Y-75704711D01*
X139323109Y-75835814D01*
X139323102Y-75835827D01*
X139262764Y-75981498D01*
X139262761Y-75981510D01*
X139232000Y-76136153D01*
X97670500Y-76136153D01*
X97670500Y-73754903D01*
X122563250Y-73754903D01*
X122563250Y-73912596D01*
X122594011Y-74067239D01*
X122594014Y-74067251D01*
X122654352Y-74212922D01*
X122654359Y-74212935D01*
X122741960Y-74344038D01*
X122741963Y-74344042D01*
X122853457Y-74455536D01*
X122853461Y-74455539D01*
X122984564Y-74543140D01*
X122984577Y-74543147D01*
X123130248Y-74603485D01*
X123130253Y-74603487D01*
X123284903Y-74634249D01*
X123284906Y-74634250D01*
X123284908Y-74634250D01*
X123442594Y-74634250D01*
X123442595Y-74634249D01*
X123597247Y-74603487D01*
X123742929Y-74543144D01*
X123766131Y-74527641D01*
X123874625Y-74455148D01*
X123941303Y-74434270D01*
X123943516Y-74434250D01*
X144215234Y-74434250D01*
X144282273Y-74453935D01*
X144284125Y-74455148D01*
X144415814Y-74543140D01*
X144415827Y-74543147D01*
X144561498Y-74603485D01*
X144561503Y-74603487D01*
X144716153Y-74634249D01*
X144716156Y-74634250D01*
X144716158Y-74634250D01*
X144873844Y-74634250D01*
X144873845Y-74634249D01*
X145028497Y-74603487D01*
X145174179Y-74543144D01*
X145197381Y-74527641D01*
X145305875Y-74455148D01*
X145372553Y-74434270D01*
X145374766Y-74434250D01*
X147255305Y-74434250D01*
X147255307Y-74434250D01*
X147408034Y-74393327D01*
X147544966Y-74314270D01*
X147656770Y-74202466D01*
X147735827Y-74065534D01*
X147776750Y-73912807D01*
X147776750Y-73754693D01*
X147735827Y-73601966D01*
X147734835Y-73600248D01*
X147656774Y-73465040D01*
X147656768Y-73465032D01*
X147544967Y-73353231D01*
X147544959Y-73353225D01*
X147408040Y-73274176D01*
X147408036Y-73274174D01*
X147408034Y-73274173D01*
X147255307Y-73233250D01*
X147255306Y-73233250D01*
X145374766Y-73233250D01*
X145307727Y-73213565D01*
X145305875Y-73212352D01*
X145174185Y-73124359D01*
X145174172Y-73124352D01*
X145028501Y-73064014D01*
X145028489Y-73064011D01*
X144873845Y-73033250D01*
X144873842Y-73033250D01*
X144716158Y-73033250D01*
X144716155Y-73033250D01*
X144561510Y-73064011D01*
X144561498Y-73064014D01*
X144415827Y-73124352D01*
X144415814Y-73124359D01*
X144284125Y-73212352D01*
X144217447Y-73233230D01*
X144215234Y-73233250D01*
X123943516Y-73233250D01*
X123876477Y-73213565D01*
X123874625Y-73212352D01*
X123742935Y-73124359D01*
X123742922Y-73124352D01*
X123597251Y-73064014D01*
X123597239Y-73064011D01*
X123442595Y-73033250D01*
X123442592Y-73033250D01*
X123284908Y-73033250D01*
X123284905Y-73033250D01*
X123130260Y-73064011D01*
X123130248Y-73064014D01*
X122984577Y-73124352D01*
X122984564Y-73124359D01*
X122853461Y-73211960D01*
X122853457Y-73211963D01*
X122741963Y-73323457D01*
X122741960Y-73323461D01*
X122654359Y-73454564D01*
X122654352Y-73454577D01*
X122594014Y-73600248D01*
X122594011Y-73600260D01*
X122563250Y-73754903D01*
X97670500Y-73754903D01*
X97670500Y-64220171D01*
X102870750Y-64220171D01*
X102870750Y-64397328D01*
X102898464Y-64572306D01*
X102953206Y-64740789D01*
X102953207Y-64740792D01*
X103033636Y-64898640D01*
X103137767Y-65041964D01*
X103263036Y-65167233D01*
X103406360Y-65271364D01*
X103474827Y-65306250D01*
X103564207Y-65351792D01*
X103564210Y-65351793D01*
X103648451Y-65379164D01*
X103732695Y-65406536D01*
X103907671Y-65434250D01*
X103907672Y-65434250D01*
X104084828Y-65434250D01*
X104084829Y-65434250D01*
X104259805Y-65406536D01*
X104428292Y-65351792D01*
X104586140Y-65271364D01*
X104729464Y-65167233D01*
X104854733Y-65041964D01*
X104958864Y-64898640D01*
X105039292Y-64740792D01*
X105094036Y-64572305D01*
X105121750Y-64397329D01*
X105121750Y-64220171D01*
X105112415Y-64161236D01*
X106825750Y-64161236D01*
X106825750Y-64456263D01*
X106841028Y-64572305D01*
X106864257Y-64748743D01*
X106940611Y-65033701D01*
X106940614Y-65033711D01*
X107053504Y-65306250D01*
X107053508Y-65306260D01*
X107201011Y-65561743D01*
X107380602Y-65795790D01*
X107380608Y-65795797D01*
X107589202Y-66004391D01*
X107589209Y-66004397D01*
X107823256Y-66183988D01*
X108078739Y-66331491D01*
X108078740Y-66331491D01*
X108078743Y-66331493D01*
X108351298Y-66444389D01*
X108636257Y-66520743D01*
X108928744Y-66559250D01*
X108928751Y-66559250D01*
X109223749Y-66559250D01*
X109223756Y-66559250D01*
X109516243Y-66520743D01*
X109801202Y-66444389D01*
X110073757Y-66331493D01*
X110096461Y-66318385D01*
X117300750Y-66318385D01*
X117300750Y-68014120D01*
X117300751Y-68014126D01*
X117307158Y-68073733D01*
X117357452Y-68208578D01*
X117357456Y-68208585D01*
X117443702Y-68323794D01*
X117443705Y-68323797D01*
X117558914Y-68410043D01*
X117558921Y-68410047D01*
X117693767Y-68460341D01*
X117693766Y-68460341D01*
X117700694Y-68461085D01*
X117753377Y-68466750D01*
X119449122Y-68466749D01*
X119508733Y-68460341D01*
X119643581Y-68410046D01*
X119758796Y-68323796D01*
X119845046Y-68208581D01*
X119895341Y-68073733D01*
X119901750Y-68014123D01*
X119901750Y-67890750D01*
X119921435Y-67823711D01*
X119974239Y-67777956D01*
X120025750Y-67766750D01*
X136226751Y-67766750D01*
X136293790Y-67786435D01*
X136339545Y-67839239D01*
X136350751Y-67890750D01*
X136350751Y-68014126D01*
X136357158Y-68073733D01*
X136407452Y-68208578D01*
X136407456Y-68208585D01*
X136493702Y-68323794D01*
X136493705Y-68323797D01*
X136608914Y-68410043D01*
X136608921Y-68410047D01*
X136743767Y-68460341D01*
X136743766Y-68460341D01*
X136750694Y-68461085D01*
X136803377Y-68466750D01*
X138499122Y-68466749D01*
X138558733Y-68460341D01*
X138693581Y-68410046D01*
X138808796Y-68323796D01*
X138895046Y-68208581D01*
X138945341Y-68073733D01*
X138951750Y-68014123D01*
X138951750Y-67890750D01*
X138971435Y-67823711D01*
X139024239Y-67777956D01*
X139075750Y-67766750D01*
X155276751Y-67766750D01*
X155343790Y-67786435D01*
X155389545Y-67839239D01*
X155400751Y-67890750D01*
X155400751Y-68014126D01*
X155407158Y-68073733D01*
X155457452Y-68208578D01*
X155457456Y-68208585D01*
X155543702Y-68323794D01*
X155543705Y-68323797D01*
X155658914Y-68410043D01*
X155658921Y-68410047D01*
X155793767Y-68460341D01*
X155793766Y-68460341D01*
X155800694Y-68461085D01*
X155853377Y-68466750D01*
X157101152Y-68466749D01*
X157168191Y-68486434D01*
X157188833Y-68503068D01*
X158445681Y-69759916D01*
X158479166Y-69821239D01*
X158482000Y-69847597D01*
X158482000Y-79430830D01*
X158481999Y-79430848D01*
X158481999Y-79596554D01*
X158481998Y-79596554D01*
X158522923Y-79749285D01*
X158551858Y-79799400D01*
X158551859Y-79799404D01*
X158551860Y-79799404D01*
X158601979Y-79886214D01*
X158601981Y-79886217D01*
X158720849Y-80005085D01*
X158720855Y-80005090D01*
X161082497Y-82366732D01*
X161115982Y-82428055D01*
X161114032Y-82488524D01*
X161058864Y-82681332D01*
X161058863Y-82681336D01*
X161048250Y-82800716D01*
X161048250Y-83916778D01*
X161048251Y-83916784D01*
X161058863Y-84036165D01*
X161114839Y-84231795D01*
X161114840Y-84231798D01*
X161114841Y-84231799D01*
X161209052Y-84412157D01*
X161245238Y-84456536D01*
X161321765Y-84550389D01*
X161348874Y-84614786D01*
X161336865Y-84683615D01*
X161321765Y-84707111D01*
X161238929Y-84808702D01*
X161209052Y-84845343D01*
X161208815Y-84845797D01*
X161114839Y-85025704D01*
X161058864Y-85221333D01*
X161058863Y-85221336D01*
X161048250Y-85340716D01*
X161048250Y-85491750D01*
X161028565Y-85558789D01*
X160975761Y-85604544D01*
X160924250Y-85615750D01*
X158125749Y-85615750D01*
X158058710Y-85596065D01*
X158012955Y-85543261D01*
X158001749Y-85491750D01*
X158001749Y-85368379D01*
X158001748Y-85368373D01*
X158001747Y-85368366D01*
X157995341Y-85308767D01*
X157986507Y-85285083D01*
X157945047Y-85173921D01*
X157945043Y-85173914D01*
X157858797Y-85058705D01*
X157858794Y-85058702D01*
X157743585Y-84972456D01*
X157743578Y-84972452D01*
X157608732Y-84922158D01*
X157608733Y-84922158D01*
X157549133Y-84915751D01*
X157549131Y-84915750D01*
X157549123Y-84915750D01*
X157549114Y-84915750D01*
X155853379Y-84915750D01*
X155853373Y-84915751D01*
X155793766Y-84922158D01*
X155658921Y-84972452D01*
X155658914Y-84972456D01*
X155543705Y-85058702D01*
X155543702Y-85058705D01*
X155457456Y-85173914D01*
X155457452Y-85173921D01*
X155407158Y-85308767D01*
X155401032Y-85365750D01*
X155400751Y-85368373D01*
X155400750Y-85368385D01*
X155400750Y-85491750D01*
X155381065Y-85558789D01*
X155328261Y-85604544D01*
X155276750Y-85615750D01*
X152262598Y-85615750D01*
X152195559Y-85596065D01*
X152174917Y-85579431D01*
X152081217Y-85485731D01*
X152081209Y-85485725D01*
X151964315Y-85418237D01*
X151964314Y-85418236D01*
X151950235Y-85410108D01*
X151944285Y-85406673D01*
X151791557Y-85365749D01*
X151633443Y-85365749D01*
X151625847Y-85365749D01*
X151625831Y-85365750D01*
X148622821Y-85365750D01*
X148555782Y-85346065D01*
X148510027Y-85293261D01*
X148500083Y-85224103D01*
X148529108Y-85160547D01*
X148547334Y-85143374D01*
X148579909Y-85118378D01*
X148663292Y-85054396D01*
X148871896Y-84845792D01*
X149051488Y-84611744D01*
X149198993Y-84356257D01*
X149311889Y-84083702D01*
X149388243Y-83798743D01*
X149426750Y-83506256D01*
X149426750Y-83270171D01*
X151130750Y-83270171D01*
X151130750Y-83447328D01*
X151158464Y-83622306D01*
X151213206Y-83790789D01*
X151213207Y-83790792D01*
X151277401Y-83916778D01*
X151293636Y-83948640D01*
X151397767Y-84091964D01*
X151523036Y-84217233D01*
X151666360Y-84321364D01*
X151734827Y-84356250D01*
X151824207Y-84401792D01*
X151824210Y-84401793D01*
X151908451Y-84429164D01*
X151992695Y-84456536D01*
X152167671Y-84484250D01*
X152167672Y-84484250D01*
X152344828Y-84484250D01*
X152344829Y-84484250D01*
X152519805Y-84456536D01*
X152688292Y-84401792D01*
X152846140Y-84321364D01*
X152989464Y-84217233D01*
X153114733Y-84091964D01*
X153218864Y-83948640D01*
X153299292Y-83790792D01*
X153354036Y-83622305D01*
X153381750Y-83447329D01*
X153381750Y-83270171D01*
X153354036Y-83095195D01*
X153299292Y-82926708D01*
X153299292Y-82926707D01*
X153235098Y-82800721D01*
X153218864Y-82768860D01*
X153114733Y-82625536D01*
X152989464Y-82500267D01*
X152846140Y-82396136D01*
X152788432Y-82366732D01*
X152688292Y-82315707D01*
X152688289Y-82315706D01*
X152519806Y-82260964D01*
X152432317Y-82247107D01*
X152344829Y-82233250D01*
X152167671Y-82233250D01*
X152109345Y-82242488D01*
X151992693Y-82260964D01*
X151824210Y-82315706D01*
X151824207Y-82315707D01*
X151666359Y-82396136D01*
X151622427Y-82428055D01*
X151523036Y-82500267D01*
X151523034Y-82500269D01*
X151523033Y-82500269D01*
X151397769Y-82625533D01*
X151397769Y-82625534D01*
X151397767Y-82625536D01*
X151357229Y-82681332D01*
X151293636Y-82768859D01*
X151213207Y-82926707D01*
X151213206Y-82926710D01*
X151158464Y-83095193D01*
X151130750Y-83270171D01*
X149426750Y-83270171D01*
X149426750Y-83211244D01*
X149388243Y-82918757D01*
X149311889Y-82633798D01*
X149198993Y-82361243D01*
X149172703Y-82315708D01*
X149051488Y-82105756D01*
X148871897Y-81871709D01*
X148871891Y-81871702D01*
X148663297Y-81663108D01*
X148663290Y-81663102D01*
X148429243Y-81483511D01*
X148173760Y-81336008D01*
X148173750Y-81336004D01*
X147901211Y-81223114D01*
X147901204Y-81223112D01*
X147901202Y-81223111D01*
X147616243Y-81146757D01*
X147567363Y-81140321D01*
X147323763Y-81108250D01*
X147323756Y-81108250D01*
X147028744Y-81108250D01*
X147028736Y-81108250D01*
X146750335Y-81144903D01*
X146736257Y-81146757D01*
X146451298Y-81223111D01*
X146451288Y-81223114D01*
X146178749Y-81336004D01*
X146178739Y-81336008D01*
X145923256Y-81483511D01*
X145689209Y-81663102D01*
X145689202Y-81663108D01*
X145480608Y-81871702D01*
X145480602Y-81871709D01*
X145301011Y-82105756D01*
X145153508Y-82361239D01*
X145153504Y-82361249D01*
X145040614Y-82633788D01*
X145040611Y-82633798D01*
X144995885Y-82800721D01*
X144964258Y-82918754D01*
X144964256Y-82918765D01*
X144925750Y-83211236D01*
X144925750Y-83506263D01*
X144941028Y-83622305D01*
X144964257Y-83798743D01*
X145040611Y-84083701D01*
X145040614Y-84083711D01*
X145153504Y-84356250D01*
X145153508Y-84356260D01*
X145301011Y-84611743D01*
X145480602Y-84845790D01*
X145480608Y-84845797D01*
X145689202Y-85054391D01*
X145689206Y-85054394D01*
X145689208Y-85054396D01*
X145772591Y-85118378D01*
X145805166Y-85143374D01*
X145846368Y-85199802D01*
X145850523Y-85269548D01*
X145816310Y-85330469D01*
X145754593Y-85363221D01*
X145729679Y-85365750D01*
X139052690Y-85365750D01*
X138985651Y-85346065D01*
X138939896Y-85293261D01*
X138936508Y-85285083D01*
X138895047Y-85173921D01*
X138895043Y-85173914D01*
X138808797Y-85058705D01*
X138808794Y-85058702D01*
X138693585Y-84972456D01*
X138693578Y-84972452D01*
X138558732Y-84922158D01*
X138558733Y-84922158D01*
X138499133Y-84915751D01*
X138499131Y-84915750D01*
X138499123Y-84915750D01*
X138499114Y-84915750D01*
X136803379Y-84915750D01*
X136803373Y-84915751D01*
X136743766Y-84922158D01*
X136608921Y-84972452D01*
X136608914Y-84972456D01*
X136493705Y-85058702D01*
X136493702Y-85058705D01*
X136407456Y-85173914D01*
X136407452Y-85173921D01*
X136365992Y-85285083D01*
X136324121Y-85341017D01*
X136258657Y-85365434D01*
X136249810Y-85365750D01*
X129572821Y-85365750D01*
X129505782Y-85346065D01*
X129460027Y-85293261D01*
X129450083Y-85224103D01*
X129479108Y-85160547D01*
X129497334Y-85143374D01*
X129529909Y-85118378D01*
X129613292Y-85054396D01*
X129821896Y-84845792D01*
X130001488Y-84611744D01*
X130148993Y-84356257D01*
X130261889Y-84083702D01*
X130338243Y-83798743D01*
X130376750Y-83506256D01*
X130376750Y-83270171D01*
X132080750Y-83270171D01*
X132080750Y-83447328D01*
X132108464Y-83622306D01*
X132163206Y-83790789D01*
X132163207Y-83790792D01*
X132227401Y-83916778D01*
X132243636Y-83948640D01*
X132347767Y-84091964D01*
X132473036Y-84217233D01*
X132616360Y-84321364D01*
X132684827Y-84356250D01*
X132774207Y-84401792D01*
X132774210Y-84401793D01*
X132858451Y-84429164D01*
X132942695Y-84456536D01*
X133117671Y-84484250D01*
X133117672Y-84484250D01*
X133294828Y-84484250D01*
X133294829Y-84484250D01*
X133469805Y-84456536D01*
X133638292Y-84401792D01*
X133796140Y-84321364D01*
X133939464Y-84217233D01*
X134064733Y-84091964D01*
X134168864Y-83948640D01*
X134249292Y-83790792D01*
X134304036Y-83622305D01*
X134331750Y-83447329D01*
X134331750Y-83270171D01*
X140970750Y-83270171D01*
X140970750Y-83447328D01*
X140998464Y-83622306D01*
X141053206Y-83790789D01*
X141053207Y-83790792D01*
X141117401Y-83916778D01*
X141133636Y-83948640D01*
X141237767Y-84091964D01*
X141363036Y-84217233D01*
X141506360Y-84321364D01*
X141574827Y-84356250D01*
X141664207Y-84401792D01*
X141664210Y-84401793D01*
X141748451Y-84429164D01*
X141832695Y-84456536D01*
X142007671Y-84484250D01*
X142007672Y-84484250D01*
X142184828Y-84484250D01*
X142184829Y-84484250D01*
X142359805Y-84456536D01*
X142528292Y-84401792D01*
X142686140Y-84321364D01*
X142829464Y-84217233D01*
X142954733Y-84091964D01*
X143058864Y-83948640D01*
X143139292Y-83790792D01*
X143194036Y-83622305D01*
X143221750Y-83447329D01*
X143221750Y-83270171D01*
X143194036Y-83095195D01*
X143139292Y-82926708D01*
X143139292Y-82926707D01*
X143075098Y-82800721D01*
X143058864Y-82768860D01*
X143047767Y-82753587D01*
X143024288Y-82687782D01*
X143040113Y-82619728D01*
X143090218Y-82571033D01*
X143158696Y-82557157D01*
X143164227Y-82557758D01*
X143251516Y-82569250D01*
X143251523Y-82569250D01*
X143480977Y-82569250D01*
X143480984Y-82569250D01*
X143708488Y-82539298D01*
X143930137Y-82479908D01*
X144142138Y-82392094D01*
X144340862Y-82277361D01*
X144522911Y-82137669D01*
X144522915Y-82137664D01*
X144522920Y-82137661D01*
X144685161Y-81975420D01*
X144685164Y-81975415D01*
X144685169Y-81975411D01*
X144824861Y-81793362D01*
X144939594Y-81594638D01*
X145027408Y-81382637D01*
X145086798Y-81160988D01*
X145116750Y-80933484D01*
X145116750Y-80704016D01*
X145086798Y-80476512D01*
X145027408Y-80254863D01*
X144939594Y-80042862D01*
X144824861Y-79844138D01*
X144824858Y-79844135D01*
X144824857Y-79844132D01*
X144685168Y-79662088D01*
X144685161Y-79662080D01*
X144522920Y-79499839D01*
X144522911Y-79499831D01*
X144340867Y-79360142D01*
X144142140Y-79245407D01*
X144142126Y-79245400D01*
X143930137Y-79157592D01*
X143908502Y-79151795D01*
X143708488Y-79098202D01*
X143670465Y-79093196D01*
X143480991Y-79068250D01*
X143480984Y-79068250D01*
X143251516Y-79068250D01*
X143251508Y-79068250D01*
X143044740Y-79095473D01*
X143024012Y-79098202D01*
X142930326Y-79123304D01*
X142802362Y-79157592D01*
X142590373Y-79245400D01*
X142590359Y-79245407D01*
X142391632Y-79360142D01*
X142209588Y-79499831D01*
X142047331Y-79662088D01*
X141907642Y-79844132D01*
X141792907Y-80042859D01*
X141792900Y-80042873D01*
X141705092Y-80254862D01*
X141682097Y-80340681D01*
X141650826Y-80457391D01*
X141645703Y-80476509D01*
X141645701Y-80476520D01*
X141615750Y-80704008D01*
X141615750Y-80933491D01*
X141631925Y-81056342D01*
X141645702Y-81160988D01*
X141668405Y-81245716D01*
X141705092Y-81382637D01*
X141792900Y-81594626D01*
X141792907Y-81594640D01*
X141907642Y-81793367D01*
X142047331Y-81975411D01*
X142047339Y-81975420D01*
X142093488Y-82021569D01*
X142126973Y-82082892D01*
X142121989Y-82152584D01*
X142080117Y-82208517D01*
X142014653Y-82232934D01*
X142009217Y-82233128D01*
X142007673Y-82233249D01*
X141832693Y-82260964D01*
X141664210Y-82315706D01*
X141664207Y-82315707D01*
X141506359Y-82396136D01*
X141462427Y-82428055D01*
X141363036Y-82500267D01*
X141363034Y-82500269D01*
X141363033Y-82500269D01*
X141237769Y-82625533D01*
X141237769Y-82625534D01*
X141237767Y-82625536D01*
X141197229Y-82681332D01*
X141133636Y-82768859D01*
X141053207Y-82926707D01*
X141053206Y-82926710D01*
X140998464Y-83095193D01*
X140970750Y-83270171D01*
X134331750Y-83270171D01*
X134304036Y-83095195D01*
X134249292Y-82926708D01*
X134249292Y-82926707D01*
X134185098Y-82800721D01*
X134168864Y-82768860D01*
X134064733Y-82625536D01*
X133939464Y-82500267D01*
X133796140Y-82396136D01*
X133738432Y-82366732D01*
X133638292Y-82315707D01*
X133638289Y-82315706D01*
X133469806Y-82260964D01*
X133382317Y-82247107D01*
X133294829Y-82233250D01*
X133117671Y-82233250D01*
X133059345Y-82242488D01*
X132942693Y-82260964D01*
X132774210Y-82315706D01*
X132774207Y-82315707D01*
X132616359Y-82396136D01*
X132572427Y-82428055D01*
X132473036Y-82500267D01*
X132473034Y-82500269D01*
X132473033Y-82500269D01*
X132347769Y-82625533D01*
X132347769Y-82625534D01*
X132347767Y-82625536D01*
X132307229Y-82681332D01*
X132243636Y-82768859D01*
X132163207Y-82926707D01*
X132163206Y-82926710D01*
X132108464Y-83095193D01*
X132080750Y-83270171D01*
X130376750Y-83270171D01*
X130376750Y-83211244D01*
X130338243Y-82918757D01*
X130261889Y-82633798D01*
X130148993Y-82361243D01*
X130122703Y-82315708D01*
X130001488Y-82105756D01*
X129821897Y-81871709D01*
X129821891Y-81871702D01*
X129613297Y-81663108D01*
X129613290Y-81663102D01*
X129379243Y-81483511D01*
X129123760Y-81336008D01*
X129123750Y-81336004D01*
X128851211Y-81223114D01*
X128851204Y-81223112D01*
X128851202Y-81223111D01*
X128566243Y-81146757D01*
X128517363Y-81140321D01*
X128273763Y-81108250D01*
X128273756Y-81108250D01*
X127978744Y-81108250D01*
X127978736Y-81108250D01*
X127700335Y-81144903D01*
X127686257Y-81146757D01*
X127401298Y-81223111D01*
X127401288Y-81223114D01*
X127128749Y-81336004D01*
X127128739Y-81336008D01*
X126873256Y-81483511D01*
X126639209Y-81663102D01*
X126639202Y-81663108D01*
X126430608Y-81871702D01*
X126430602Y-81871709D01*
X126251011Y-82105756D01*
X126103508Y-82361239D01*
X126103504Y-82361249D01*
X125990614Y-82633788D01*
X125990611Y-82633798D01*
X125945885Y-82800721D01*
X125914258Y-82918754D01*
X125914256Y-82918765D01*
X125875750Y-83211236D01*
X125875750Y-83506263D01*
X125891028Y-83622305D01*
X125914257Y-83798743D01*
X125990611Y-84083701D01*
X125990614Y-84083711D01*
X126103504Y-84356250D01*
X126103508Y-84356260D01*
X126251011Y-84611743D01*
X126430602Y-84845790D01*
X126430608Y-84845797D01*
X126639202Y-85054391D01*
X126639206Y-85054394D01*
X126639208Y-85054396D01*
X126722591Y-85118378D01*
X126755166Y-85143374D01*
X126796368Y-85199802D01*
X126800523Y-85269548D01*
X126766310Y-85330469D01*
X126704593Y-85363221D01*
X126679679Y-85365750D01*
X120275749Y-85365750D01*
X120208710Y-85346065D01*
X120162955Y-85293261D01*
X120151749Y-85241750D01*
X120151749Y-85118379D01*
X120151748Y-85118373D01*
X120151747Y-85118366D01*
X120145341Y-85058767D01*
X120133009Y-85025704D01*
X120095047Y-84923921D01*
X120095043Y-84923914D01*
X120008797Y-84808705D01*
X120008794Y-84808702D01*
X119893585Y-84722456D01*
X119893578Y-84722452D01*
X119758732Y-84672158D01*
X119758733Y-84672158D01*
X119699133Y-84665751D01*
X119699131Y-84665750D01*
X119699123Y-84665750D01*
X119699114Y-84665750D01*
X118003379Y-84665750D01*
X118003373Y-84665751D01*
X117943766Y-84672158D01*
X117808921Y-84722452D01*
X117808914Y-84722456D01*
X117693705Y-84808702D01*
X117693702Y-84808705D01*
X117607456Y-84923914D01*
X117607452Y-84923921D01*
X117557158Y-85058767D01*
X117550751Y-85118366D01*
X117550751Y-85118373D01*
X117550750Y-85118385D01*
X117550750Y-86814120D01*
X117550751Y-86814126D01*
X117557158Y-86873733D01*
X117607452Y-87008578D01*
X117607456Y-87008585D01*
X117693702Y-87123794D01*
X117693705Y-87123797D01*
X117808914Y-87210043D01*
X117808921Y-87210047D01*
X117943767Y-87260341D01*
X117943766Y-87260341D01*
X117950694Y-87261085D01*
X118003377Y-87266750D01*
X119699122Y-87266749D01*
X119758733Y-87260341D01*
X119893581Y-87210046D01*
X120008796Y-87123796D01*
X120095046Y-87008581D01*
X120145341Y-86873733D01*
X120151750Y-86814123D01*
X120151750Y-86690750D01*
X120171435Y-86623711D01*
X120224239Y-86577956D01*
X120275750Y-86566750D01*
X136226751Y-86566750D01*
X136293790Y-86586435D01*
X136339545Y-86639239D01*
X136350751Y-86690750D01*
X136350751Y-87064126D01*
X136357158Y-87123733D01*
X136407452Y-87258578D01*
X136407456Y-87258585D01*
X136493702Y-87373794D01*
X136493705Y-87373797D01*
X136608914Y-87460043D01*
X136608921Y-87460047D01*
X136743767Y-87510341D01*
X136743766Y-87510341D01*
X136750694Y-87511085D01*
X136803377Y-87516750D01*
X138499122Y-87516749D01*
X138558733Y-87510341D01*
X138693581Y-87460046D01*
X138808796Y-87373796D01*
X138895046Y-87258581D01*
X138945341Y-87123733D01*
X138951750Y-87064123D01*
X138951750Y-86690750D01*
X138971435Y-86623711D01*
X139024239Y-86577956D01*
X139075750Y-86566750D01*
X151412401Y-86566750D01*
X151479440Y-86586435D01*
X151500082Y-86603068D01*
X151593784Y-86696770D01*
X151593786Y-86696771D01*
X151593790Y-86696774D01*
X151723732Y-86771795D01*
X151730716Y-86775827D01*
X151842519Y-86805784D01*
X151883442Y-86816750D01*
X151883443Y-86816750D01*
X155276751Y-86816750D01*
X155343790Y-86836435D01*
X155389545Y-86889239D01*
X155400751Y-86940750D01*
X155400751Y-87064126D01*
X155407158Y-87123733D01*
X155457452Y-87258578D01*
X155457456Y-87258585D01*
X155543702Y-87373794D01*
X155543705Y-87373797D01*
X155658914Y-87460043D01*
X155658921Y-87460047D01*
X155793767Y-87510341D01*
X155793766Y-87510341D01*
X155800694Y-87511085D01*
X155853377Y-87516750D01*
X157549122Y-87516749D01*
X157608733Y-87510341D01*
X157743581Y-87460046D01*
X157858796Y-87373796D01*
X157945046Y-87258581D01*
X157995341Y-87123733D01*
X158001750Y-87064123D01*
X158001750Y-86940750D01*
X158021435Y-86873711D01*
X158074239Y-86827956D01*
X158125750Y-86816750D01*
X161063195Y-86816750D01*
X161130234Y-86836435D01*
X161173103Y-86883338D01*
X161209049Y-86952154D01*
X161321765Y-87090389D01*
X161348874Y-87154786D01*
X161336865Y-87223615D01*
X161321765Y-87247111D01*
X161218467Y-87373797D01*
X161209052Y-87385343D01*
X161170030Y-87460047D01*
X161114839Y-87565704D01*
X161058864Y-87761333D01*
X161058863Y-87761336D01*
X161048250Y-87880716D01*
X161048250Y-88996778D01*
X161048251Y-88996784D01*
X161058863Y-89116165D01*
X161114032Y-89308974D01*
X161113549Y-89378842D01*
X161082497Y-89430766D01*
X158713786Y-91799478D01*
X158601981Y-91911282D01*
X158601980Y-91911284D01*
X158562740Y-91979250D01*
X158522923Y-92048215D01*
X158481999Y-92200943D01*
X158481999Y-92200945D01*
X158481999Y-92369046D01*
X158482000Y-92369059D01*
X158482000Y-97172073D01*
X158462315Y-97239112D01*
X158409511Y-97284867D01*
X158340353Y-97294811D01*
X158276797Y-97265786D01*
X158239023Y-97207008D01*
X158235527Y-97191471D01*
X158219727Y-97091715D01*
X158156468Y-96897026D01*
X158106536Y-96799031D01*
X158063537Y-96714640D01*
X158036288Y-96677135D01*
X157943221Y-96549036D01*
X157798463Y-96404278D01*
X157632863Y-96283965D01*
X157632862Y-96283964D01*
X157632860Y-96283963D01*
X157575903Y-96254941D01*
X157450473Y-96191031D01*
X157255784Y-96127772D01*
X157081245Y-96100128D01*
X157053602Y-96095750D01*
X156848898Y-96095750D01*
X156824579Y-96099601D01*
X156646715Y-96127772D01*
X156452026Y-96191031D01*
X156269636Y-96283965D01*
X156104036Y-96404278D01*
X155959278Y-96549036D01*
X155866211Y-96677135D01*
X155810882Y-96719801D01*
X155765893Y-96728250D01*
X151445096Y-96728250D01*
X151378057Y-96708565D01*
X151332302Y-96655761D01*
X151330535Y-96651702D01*
X151289599Y-96552873D01*
X151289596Y-96552867D01*
X151289594Y-96552862D01*
X151174861Y-96354138D01*
X151174858Y-96354135D01*
X151174857Y-96354132D01*
X151035168Y-96172088D01*
X151035161Y-96172080D01*
X150872920Y-96009839D01*
X150872911Y-96009831D01*
X150690867Y-95870142D01*
X150492140Y-95755407D01*
X150492126Y-95755400D01*
X150280137Y-95667592D01*
X150058488Y-95608202D01*
X150020465Y-95603196D01*
X149830991Y-95578250D01*
X149830984Y-95578250D01*
X149601516Y-95578250D01*
X149601508Y-95578250D01*
X149384965Y-95606759D01*
X149374012Y-95608202D01*
X149280326Y-95633304D01*
X149152362Y-95667592D01*
X148940373Y-95755400D01*
X148940359Y-95755407D01*
X148741632Y-95870142D01*
X148559588Y-96009831D01*
X148397331Y-96172088D01*
X148257642Y-96354132D01*
X148142907Y-96552859D01*
X148142900Y-96552873D01*
X148055092Y-96764862D01*
X147995703Y-96986509D01*
X147995701Y-96986520D01*
X147965750Y-97214008D01*
X147965750Y-97443491D01*
X147978970Y-97543898D01*
X147995702Y-97670988D01*
X148055092Y-97892637D01*
X148142900Y-98104626D01*
X148142907Y-98104640D01*
X148257642Y-98303367D01*
X148397331Y-98485411D01*
X148397339Y-98485420D01*
X148559580Y-98647661D01*
X148559588Y-98647668D01*
X148741632Y-98787357D01*
X148741635Y-98787358D01*
X148741638Y-98787361D01*
X148940362Y-98902094D01*
X148940367Y-98902096D01*
X148940373Y-98902099D01*
X149031730Y-98939940D01*
X149152363Y-98989908D01*
X149374012Y-99049298D01*
X149601516Y-99079250D01*
X149601523Y-99079250D01*
X149830977Y-99079250D01*
X149830984Y-99079250D01*
X150058488Y-99049298D01*
X150280137Y-98989908D01*
X150492138Y-98902094D01*
X150690862Y-98787361D01*
X150872911Y-98647669D01*
X150872915Y-98647664D01*
X150872920Y-98647661D01*
X151035161Y-98485420D01*
X151035164Y-98485415D01*
X151035169Y-98485411D01*
X151174861Y-98303362D01*
X151289594Y-98104638D01*
X151300686Y-98077860D01*
X151330535Y-98005798D01*
X151374375Y-97951394D01*
X151440670Y-97929329D01*
X151445096Y-97929250D01*
X155687255Y-97929250D01*
X155754294Y-97948935D01*
X155797739Y-97996954D01*
X155835266Y-98070605D01*
X155838965Y-98077864D01*
X155959278Y-98243463D01*
X156104036Y-98388221D01*
X156258999Y-98500806D01*
X156269640Y-98508537D01*
X156350684Y-98549831D01*
X156452026Y-98601468D01*
X156452028Y-98601468D01*
X156452031Y-98601470D01*
X156556387Y-98635377D01*
X156646715Y-98664727D01*
X156747807Y-98680738D01*
X156848898Y-98696750D01*
X156848899Y-98696750D01*
X157053601Y-98696750D01*
X157053602Y-98696750D01*
X157255784Y-98664727D01*
X157450469Y-98601470D01*
X157632860Y-98508537D01*
X157725840Y-98440982D01*
X157798463Y-98388221D01*
X157798465Y-98388218D01*
X157798469Y-98388216D01*
X157943216Y-98243469D01*
X157943218Y-98243465D01*
X157943221Y-98243463D01*
X158012431Y-98148202D01*
X158063537Y-98077860D01*
X158156470Y-97895469D01*
X158219727Y-97700784D01*
X158235527Y-97601027D01*
X158265456Y-97537893D01*
X158324768Y-97500962D01*
X158394630Y-97501960D01*
X158452863Y-97540570D01*
X158480977Y-97604533D01*
X158482000Y-97620426D01*
X158482000Y-102584902D01*
X158462315Y-102651941D01*
X158445681Y-102672583D01*
X157438832Y-103679431D01*
X157377509Y-103712916D01*
X157351151Y-103715750D01*
X156103379Y-103715750D01*
X156103373Y-103715751D01*
X156043766Y-103722158D01*
X155908921Y-103772452D01*
X155908914Y-103772456D01*
X155793705Y-103858702D01*
X155793702Y-103858705D01*
X155707456Y-103973914D01*
X155707452Y-103973921D01*
X155657158Y-104108767D01*
X155650751Y-104168366D01*
X155650750Y-104168385D01*
X155650750Y-104541750D01*
X155631065Y-104608789D01*
X155578261Y-104654544D01*
X155526750Y-104665750D01*
X148230538Y-104665750D01*
X148163499Y-104646065D01*
X148117744Y-104593261D01*
X148107800Y-104524103D01*
X148136825Y-104460547D01*
X148170729Y-104434368D01*
X148170241Y-104433523D01*
X148196494Y-104418366D01*
X148429244Y-104283988D01*
X148663292Y-104104396D01*
X148871896Y-103895792D01*
X149051488Y-103661744D01*
X149198993Y-103406257D01*
X149311889Y-103133702D01*
X149388243Y-102848743D01*
X149426750Y-102556256D01*
X149426750Y-102320171D01*
X151130750Y-102320171D01*
X151130750Y-102497328D01*
X151158464Y-102672306D01*
X151213206Y-102840789D01*
X151213207Y-102840792D01*
X151276014Y-102964055D01*
X151293636Y-102998640D01*
X151397767Y-103141964D01*
X151523036Y-103267233D01*
X151666360Y-103371364D01*
X151734827Y-103406250D01*
X151824207Y-103451792D01*
X151824210Y-103451793D01*
X151908451Y-103479164D01*
X151992695Y-103506536D01*
X152167671Y-103534250D01*
X152167672Y-103534250D01*
X152344828Y-103534250D01*
X152344829Y-103534250D01*
X152519805Y-103506536D01*
X152688292Y-103451792D01*
X152846140Y-103371364D01*
X152989464Y-103267233D01*
X153114733Y-103141964D01*
X153218864Y-102998640D01*
X153299292Y-102840792D01*
X153354036Y-102672305D01*
X153381750Y-102497329D01*
X153381750Y-102320171D01*
X153354036Y-102145195D01*
X153299292Y-101976708D01*
X153299292Y-101976707D01*
X153218863Y-101818859D01*
X153207768Y-101803588D01*
X153114733Y-101675536D01*
X152989464Y-101550267D01*
X152846140Y-101446136D01*
X152838203Y-101442092D01*
X152688292Y-101365707D01*
X152688289Y-101365706D01*
X152519806Y-101310964D01*
X152432317Y-101297107D01*
X152344829Y-101283250D01*
X152167671Y-101283250D01*
X152109345Y-101292488D01*
X151992693Y-101310964D01*
X151824210Y-101365706D01*
X151824207Y-101365707D01*
X151666359Y-101446136D01*
X151584588Y-101505546D01*
X151523036Y-101550267D01*
X151523034Y-101550269D01*
X151523033Y-101550269D01*
X151397769Y-101675533D01*
X151397769Y-101675534D01*
X151397767Y-101675536D01*
X151353046Y-101737088D01*
X151293636Y-101818859D01*
X151213207Y-101976707D01*
X151213206Y-101976710D01*
X151158464Y-102145193D01*
X151130750Y-102320171D01*
X149426750Y-102320171D01*
X149426750Y-102261244D01*
X149388243Y-101968757D01*
X149311889Y-101683798D01*
X149198993Y-101411243D01*
X149172703Y-101365708D01*
X149051488Y-101155756D01*
X148871897Y-100921709D01*
X148871891Y-100921702D01*
X148663297Y-100713108D01*
X148663290Y-100713102D01*
X148429243Y-100533511D01*
X148173760Y-100386008D01*
X148173750Y-100386004D01*
X147901211Y-100273114D01*
X147901204Y-100273112D01*
X147901202Y-100273111D01*
X147616243Y-100196757D01*
X147567363Y-100190321D01*
X147323763Y-100158250D01*
X147323756Y-100158250D01*
X147028744Y-100158250D01*
X147028736Y-100158250D01*
X146750335Y-100194903D01*
X146736257Y-100196757D01*
X146451298Y-100273111D01*
X146451288Y-100273114D01*
X146178749Y-100386004D01*
X146178739Y-100386008D01*
X145923256Y-100533511D01*
X145689209Y-100713102D01*
X145689202Y-100713108D01*
X145480608Y-100921702D01*
X145480602Y-100921709D01*
X145301011Y-101155756D01*
X145153508Y-101411239D01*
X145153504Y-101411249D01*
X145040614Y-101683788D01*
X145040611Y-101683798D01*
X145004422Y-101818860D01*
X144964258Y-101968754D01*
X144964256Y-101968765D01*
X144925750Y-102261236D01*
X144925750Y-102556263D01*
X144957620Y-102798329D01*
X144964257Y-102848743D01*
X145040611Y-103133701D01*
X145040614Y-103133711D01*
X145153504Y-103406250D01*
X145153508Y-103406260D01*
X145301011Y-103661743D01*
X145480602Y-103895790D01*
X145480608Y-103895797D01*
X145689202Y-104104391D01*
X145689209Y-104104397D01*
X145923256Y-104283988D01*
X146182259Y-104433523D01*
X146181494Y-104434847D01*
X146228231Y-104477852D01*
X146245907Y-104545449D01*
X146224231Y-104611871D01*
X146170086Y-104656031D01*
X146121962Y-104665750D01*
X139075749Y-104665750D01*
X139008710Y-104646065D01*
X138962955Y-104593261D01*
X138951749Y-104541750D01*
X138951749Y-104418379D01*
X138951748Y-104418373D01*
X138951747Y-104418366D01*
X138945341Y-104358767D01*
X138917450Y-104283988D01*
X138895047Y-104223921D01*
X138895043Y-104223914D01*
X138808797Y-104108705D01*
X138808794Y-104108702D01*
X138693585Y-104022456D01*
X138693578Y-104022452D01*
X138558732Y-103972158D01*
X138558733Y-103972158D01*
X138499133Y-103965751D01*
X138499131Y-103965750D01*
X138499123Y-103965750D01*
X138499114Y-103965750D01*
X136803379Y-103965750D01*
X136803373Y-103965751D01*
X136743766Y-103972158D01*
X136608921Y-104022452D01*
X136608914Y-104022456D01*
X136493705Y-104108702D01*
X136493702Y-104108705D01*
X136407456Y-104223914D01*
X136407452Y-104223921D01*
X136357158Y-104358767D01*
X136350751Y-104418366D01*
X136350751Y-104418373D01*
X136350750Y-104418385D01*
X136350750Y-104541750D01*
X136331065Y-104608789D01*
X136278261Y-104654544D01*
X136226750Y-104665750D01*
X129180538Y-104665750D01*
X129113499Y-104646065D01*
X129067744Y-104593261D01*
X129057800Y-104524103D01*
X129086825Y-104460547D01*
X129120729Y-104434368D01*
X129120241Y-104433523D01*
X129146494Y-104418366D01*
X129379244Y-104283988D01*
X129613292Y-104104396D01*
X129821896Y-103895792D01*
X130001488Y-103661744D01*
X130148993Y-103406257D01*
X130261889Y-103133702D01*
X130338243Y-102848743D01*
X130376750Y-102556256D01*
X130376750Y-102320171D01*
X132080750Y-102320171D01*
X132080750Y-102497328D01*
X132108464Y-102672306D01*
X132163206Y-102840789D01*
X132163207Y-102840792D01*
X132226014Y-102964055D01*
X132243636Y-102998640D01*
X132347767Y-103141964D01*
X132473036Y-103267233D01*
X132616360Y-103371364D01*
X132684827Y-103406250D01*
X132774207Y-103451792D01*
X132774210Y-103451793D01*
X132858451Y-103479164D01*
X132942695Y-103506536D01*
X133117671Y-103534250D01*
X133117672Y-103534250D01*
X133294828Y-103534250D01*
X133294829Y-103534250D01*
X133469805Y-103506536D01*
X133638292Y-103451792D01*
X133796140Y-103371364D01*
X133939464Y-103267233D01*
X134064733Y-103141964D01*
X134168864Y-102998640D01*
X134249292Y-102840792D01*
X134304036Y-102672305D01*
X134331750Y-102497329D01*
X134331750Y-102320171D01*
X140970750Y-102320171D01*
X140970750Y-102497328D01*
X140998464Y-102672306D01*
X141053206Y-102840789D01*
X141053207Y-102840792D01*
X141116014Y-102964055D01*
X141133636Y-102998640D01*
X141237767Y-103141964D01*
X141363036Y-103267233D01*
X141506360Y-103371364D01*
X141574827Y-103406250D01*
X141664207Y-103451792D01*
X141664210Y-103451793D01*
X141748451Y-103479164D01*
X141832695Y-103506536D01*
X142007671Y-103534250D01*
X142007672Y-103534250D01*
X142184828Y-103534250D01*
X142184829Y-103534250D01*
X142359805Y-103506536D01*
X142528292Y-103451792D01*
X142686140Y-103371364D01*
X142829464Y-103267233D01*
X142954733Y-103141964D01*
X143058864Y-102998640D01*
X143139292Y-102840792D01*
X143194036Y-102672305D01*
X143221750Y-102497329D01*
X143221750Y-102320171D01*
X143194036Y-102145195D01*
X143139292Y-101976708D01*
X143139292Y-101976707D01*
X143058863Y-101818859D01*
X143047768Y-101803588D01*
X143024288Y-101737782D01*
X143040113Y-101669728D01*
X143090218Y-101621033D01*
X143158696Y-101607157D01*
X143164227Y-101607758D01*
X143251516Y-101619250D01*
X143251523Y-101619250D01*
X143480977Y-101619250D01*
X143480984Y-101619250D01*
X143708488Y-101589298D01*
X143930137Y-101529908D01*
X144142138Y-101442094D01*
X144340862Y-101327361D01*
X144522911Y-101187669D01*
X144522915Y-101187664D01*
X144522920Y-101187661D01*
X144685161Y-101025420D01*
X144685164Y-101025415D01*
X144685169Y-101025411D01*
X144824861Y-100843362D01*
X144939594Y-100644638D01*
X145027408Y-100432637D01*
X145086798Y-100210988D01*
X145116750Y-99983484D01*
X145116750Y-99754016D01*
X145086798Y-99526512D01*
X145027408Y-99304863D01*
X144939594Y-99092862D01*
X144824861Y-98894138D01*
X144824858Y-98894135D01*
X144824857Y-98894132D01*
X144685168Y-98712088D01*
X144685161Y-98712080D01*
X144522920Y-98549839D01*
X144522911Y-98549831D01*
X144340867Y-98410142D01*
X144142140Y-98295407D01*
X144142126Y-98295400D01*
X143930137Y-98207592D01*
X143708488Y-98148202D01*
X143670465Y-98143196D01*
X143480991Y-98118250D01*
X143480984Y-98118250D01*
X143251516Y-98118250D01*
X143251508Y-98118250D01*
X143044740Y-98145473D01*
X143024012Y-98148202D01*
X142930326Y-98173304D01*
X142802362Y-98207592D01*
X142590373Y-98295400D01*
X142590359Y-98295407D01*
X142391632Y-98410142D01*
X142209588Y-98549831D01*
X142047331Y-98712088D01*
X141907642Y-98894132D01*
X141792907Y-99092859D01*
X141792900Y-99092873D01*
X141705092Y-99304862D01*
X141645703Y-99526509D01*
X141645701Y-99526520D01*
X141615750Y-99754008D01*
X141615750Y-99983491D01*
X141638759Y-100158250D01*
X141645702Y-100210988D01*
X141692597Y-100386004D01*
X141705092Y-100432637D01*
X141792900Y-100644626D01*
X141792907Y-100644640D01*
X141907642Y-100843367D01*
X142047331Y-101025411D01*
X142047339Y-101025420D01*
X142093488Y-101071569D01*
X142126973Y-101132892D01*
X142121989Y-101202584D01*
X142080117Y-101258517D01*
X142014653Y-101282934D01*
X142009217Y-101283128D01*
X142007673Y-101283249D01*
X141832693Y-101310964D01*
X141664210Y-101365706D01*
X141664207Y-101365707D01*
X141506359Y-101446136D01*
X141424588Y-101505546D01*
X141363036Y-101550267D01*
X141363034Y-101550269D01*
X141363033Y-101550269D01*
X141237769Y-101675533D01*
X141237769Y-101675534D01*
X141237767Y-101675536D01*
X141193046Y-101737088D01*
X141133636Y-101818859D01*
X141053207Y-101976707D01*
X141053206Y-101976710D01*
X140998464Y-102145193D01*
X140970750Y-102320171D01*
X134331750Y-102320171D01*
X134304036Y-102145195D01*
X134249292Y-101976708D01*
X134249292Y-101976707D01*
X134168863Y-101818859D01*
X134157768Y-101803588D01*
X134064733Y-101675536D01*
X133939464Y-101550267D01*
X133796140Y-101446136D01*
X133788203Y-101442092D01*
X133638292Y-101365707D01*
X133638289Y-101365706D01*
X133469806Y-101310964D01*
X133382317Y-101297107D01*
X133294829Y-101283250D01*
X133117671Y-101283250D01*
X133059345Y-101292488D01*
X132942693Y-101310964D01*
X132774210Y-101365706D01*
X132774207Y-101365707D01*
X132616359Y-101446136D01*
X132534588Y-101505546D01*
X132473036Y-101550267D01*
X132473034Y-101550269D01*
X132473033Y-101550269D01*
X132347769Y-101675533D01*
X132347769Y-101675534D01*
X132347767Y-101675536D01*
X132303046Y-101737088D01*
X132243636Y-101818859D01*
X132163207Y-101976707D01*
X132163206Y-101976710D01*
X132108464Y-102145193D01*
X132080750Y-102320171D01*
X130376750Y-102320171D01*
X130376750Y-102261244D01*
X130338243Y-101968757D01*
X130261889Y-101683798D01*
X130148993Y-101411243D01*
X130122703Y-101365708D01*
X130001488Y-101155756D01*
X129821897Y-100921709D01*
X129821891Y-100921702D01*
X129613297Y-100713108D01*
X129613290Y-100713102D01*
X129379243Y-100533511D01*
X129123760Y-100386008D01*
X129123750Y-100386004D01*
X128851211Y-100273114D01*
X128851204Y-100273112D01*
X128851202Y-100273111D01*
X128566243Y-100196757D01*
X128517363Y-100190321D01*
X128273763Y-100158250D01*
X128273756Y-100158250D01*
X127978744Y-100158250D01*
X127978736Y-100158250D01*
X127700335Y-100194903D01*
X127686257Y-100196757D01*
X127401298Y-100273111D01*
X127401288Y-100273114D01*
X127128749Y-100386004D01*
X127128739Y-100386008D01*
X126873256Y-100533511D01*
X126639209Y-100713102D01*
X126639202Y-100713108D01*
X126430608Y-100921702D01*
X126430602Y-100921709D01*
X126251011Y-101155756D01*
X126103508Y-101411239D01*
X126103504Y-101411249D01*
X125990614Y-101683788D01*
X125990611Y-101683798D01*
X125954422Y-101818860D01*
X125914258Y-101968754D01*
X125914256Y-101968765D01*
X125875750Y-102261236D01*
X125875750Y-102556263D01*
X125907620Y-102798329D01*
X125914257Y-102848743D01*
X125990611Y-103133701D01*
X125990614Y-103133711D01*
X126103504Y-103406250D01*
X126103508Y-103406260D01*
X126251011Y-103661743D01*
X126430602Y-103895790D01*
X126430608Y-103895797D01*
X126639202Y-104104391D01*
X126639209Y-104104397D01*
X126873256Y-104283988D01*
X127132259Y-104433523D01*
X127131494Y-104434847D01*
X127178231Y-104477852D01*
X127195907Y-104545449D01*
X127174231Y-104611871D01*
X127120086Y-104656031D01*
X127071962Y-104665750D01*
X120025749Y-104665750D01*
X119958710Y-104646065D01*
X119912955Y-104593261D01*
X119901749Y-104541750D01*
X119901749Y-104418379D01*
X119901748Y-104418373D01*
X119901747Y-104418366D01*
X119895341Y-104358767D01*
X119867450Y-104283988D01*
X119845047Y-104223921D01*
X119845043Y-104223914D01*
X119758797Y-104108705D01*
X119758794Y-104108702D01*
X119643585Y-104022456D01*
X119643578Y-104022452D01*
X119508732Y-103972158D01*
X119508733Y-103972158D01*
X119449133Y-103965751D01*
X119449131Y-103965750D01*
X119449123Y-103965750D01*
X119449114Y-103965750D01*
X117753379Y-103965750D01*
X117753373Y-103965751D01*
X117693766Y-103972158D01*
X117558921Y-104022452D01*
X117558914Y-104022456D01*
X117443705Y-104108702D01*
X117443702Y-104108705D01*
X117357456Y-104223914D01*
X117357452Y-104223921D01*
X117307158Y-104358767D01*
X117300751Y-104418366D01*
X117300751Y-104418373D01*
X117300750Y-104418385D01*
X117300750Y-106114120D01*
X117300751Y-106114126D01*
X117307158Y-106173733D01*
X117357452Y-106308578D01*
X117357456Y-106308585D01*
X117443702Y-106423794D01*
X117443705Y-106423797D01*
X117558914Y-106510043D01*
X117558921Y-106510047D01*
X117693767Y-106560341D01*
X117693766Y-106560341D01*
X117700694Y-106561085D01*
X117753377Y-106566750D01*
X119449122Y-106566749D01*
X119508733Y-106560341D01*
X119643581Y-106510046D01*
X119758796Y-106423796D01*
X119845046Y-106308581D01*
X119895341Y-106173733D01*
X119901750Y-106114123D01*
X119901750Y-105990750D01*
X119921435Y-105923711D01*
X119974239Y-105877956D01*
X120025750Y-105866750D01*
X136226751Y-105866750D01*
X136293790Y-105886435D01*
X136339545Y-105939239D01*
X136350751Y-105990750D01*
X136350751Y-106114126D01*
X136357158Y-106173733D01*
X136407452Y-106308578D01*
X136407456Y-106308585D01*
X136493702Y-106423794D01*
X136493705Y-106423797D01*
X136608914Y-106510043D01*
X136608921Y-106510047D01*
X136743767Y-106560341D01*
X136743766Y-106560341D01*
X136750694Y-106561085D01*
X136803377Y-106566750D01*
X138499122Y-106566749D01*
X138558733Y-106560341D01*
X138693581Y-106510046D01*
X138808796Y-106423796D01*
X138895046Y-106308581D01*
X138945341Y-106173733D01*
X138951750Y-106114123D01*
X138951750Y-105990750D01*
X138971435Y-105923711D01*
X139024239Y-105877956D01*
X139075750Y-105866750D01*
X155549810Y-105866750D01*
X155616849Y-105886435D01*
X155662604Y-105939239D01*
X155665992Y-105947417D01*
X155707452Y-106058578D01*
X155707456Y-106058585D01*
X155793702Y-106173794D01*
X155793705Y-106173797D01*
X155908914Y-106260043D01*
X155908921Y-106260047D01*
X156043767Y-106310341D01*
X156043766Y-106310341D01*
X156050694Y-106311085D01*
X156103377Y-106316750D01*
X157799122Y-106316749D01*
X157858733Y-106310341D01*
X157993581Y-106260046D01*
X158108796Y-106173796D01*
X158195046Y-106058581D01*
X158245341Y-105923733D01*
X158251750Y-105864123D01*
X158251749Y-104616346D01*
X158271434Y-104549308D01*
X158288063Y-104528671D01*
X159563020Y-103253716D01*
X159642077Y-103116784D01*
X159683001Y-102964057D01*
X159683001Y-102805942D01*
X159683001Y-102798347D01*
X159683000Y-102798329D01*
X159683000Y-92580096D01*
X159702685Y-92513057D01*
X159719314Y-92492420D01*
X160836571Y-91375162D01*
X160897892Y-91341679D01*
X160967584Y-91346663D01*
X161023517Y-91388535D01*
X161047934Y-91453999D01*
X161048250Y-91462843D01*
X161048250Y-91536777D01*
X161048251Y-91536784D01*
X161058863Y-91656165D01*
X161114839Y-91851795D01*
X161114840Y-91851798D01*
X161114841Y-91851799D01*
X161209052Y-92032157D01*
X161209054Y-92032159D01*
X161337640Y-92189859D01*
X161431553Y-92266434D01*
X161495343Y-92318448D01*
X161675701Y-92412659D01*
X161871332Y-92468636D01*
X161990713Y-92479250D01*
X163856786Y-92479249D01*
X163976168Y-92468636D01*
X164171799Y-92412659D01*
X164352157Y-92318448D01*
X164509859Y-92189859D01*
X164638448Y-92032157D01*
X164732659Y-91851799D01*
X164788636Y-91656168D01*
X164799250Y-91536787D01*
X164799249Y-90420714D01*
X164788636Y-90301332D01*
X164732659Y-90105701D01*
X164638448Y-89925343D01*
X164525733Y-89787109D01*
X164498625Y-89722715D01*
X164510634Y-89653885D01*
X164525731Y-89630392D01*
X164638448Y-89492157D01*
X164732659Y-89311799D01*
X164788636Y-89116168D01*
X164799250Y-88996787D01*
X164799249Y-87880714D01*
X164788636Y-87761332D01*
X164732659Y-87565701D01*
X164638448Y-87385343D01*
X164525733Y-87247109D01*
X164498625Y-87182715D01*
X164510634Y-87113885D01*
X164525731Y-87090392D01*
X164638448Y-86952157D01*
X164732659Y-86771799D01*
X164788636Y-86576168D01*
X164799250Y-86456787D01*
X164799249Y-85340714D01*
X164788636Y-85221332D01*
X164732659Y-85025701D01*
X164638448Y-84845343D01*
X164525733Y-84707109D01*
X164498625Y-84642715D01*
X164510634Y-84573885D01*
X164525731Y-84550392D01*
X164638448Y-84412157D01*
X164732659Y-84231799D01*
X164788636Y-84036168D01*
X164799250Y-83916787D01*
X164799249Y-82800714D01*
X164788636Y-82681332D01*
X164743762Y-82524506D01*
X164732660Y-82485704D01*
X164732659Y-82485703D01*
X164732659Y-82485701D01*
X164638448Y-82305343D01*
X164525733Y-82167109D01*
X164498625Y-82102715D01*
X164510634Y-82033885D01*
X164525731Y-82010392D01*
X164638448Y-81872157D01*
X164732659Y-81691799D01*
X164788636Y-81496168D01*
X164799250Y-81376787D01*
X164799249Y-80260714D01*
X164788636Y-80141332D01*
X164732659Y-79945701D01*
X164638448Y-79765343D01*
X164525733Y-79627109D01*
X164498625Y-79562715D01*
X164510634Y-79493885D01*
X164525731Y-79470392D01*
X164638448Y-79332157D01*
X164732659Y-79151799D01*
X164788636Y-78956168D01*
X164799250Y-78836787D01*
X164799249Y-77720714D01*
X164788636Y-77601332D01*
X164732659Y-77405701D01*
X164638448Y-77225343D01*
X164525733Y-77087109D01*
X164498625Y-77022715D01*
X164510634Y-76953885D01*
X164525731Y-76930392D01*
X164638448Y-76792157D01*
X164732659Y-76611799D01*
X164788636Y-76416168D01*
X164799250Y-76296787D01*
X164799249Y-75180716D01*
X177213250Y-75180716D01*
X177213250Y-76296778D01*
X177213251Y-76296784D01*
X177223863Y-76416165D01*
X177279839Y-76611795D01*
X177279840Y-76611798D01*
X177279841Y-76611799D01*
X177374052Y-76792157D01*
X177396871Y-76820142D01*
X177486765Y-76930389D01*
X177513874Y-76994786D01*
X177501865Y-77063615D01*
X177486765Y-77087111D01*
X177458245Y-77122089D01*
X177374052Y-77225343D01*
X177337275Y-77295750D01*
X177279839Y-77405704D01*
X177223864Y-77601333D01*
X177223863Y-77601336D01*
X177213250Y-77720716D01*
X177213250Y-78836778D01*
X177213251Y-78836784D01*
X177223863Y-78956165D01*
X177279839Y-79151795D01*
X177279840Y-79151798D01*
X177279841Y-79151799D01*
X177374052Y-79332157D01*
X177396871Y-79360142D01*
X177486765Y-79470389D01*
X177513874Y-79534786D01*
X177501865Y-79603615D01*
X177486765Y-79627111D01*
X177374054Y-79765340D01*
X177279839Y-79945704D01*
X177223864Y-80141333D01*
X177223863Y-80141336D01*
X177213250Y-80260716D01*
X177213250Y-81376778D01*
X177213251Y-81376784D01*
X177223863Y-81496165D01*
X177279839Y-81691795D01*
X177279840Y-81691798D01*
X177279841Y-81691799D01*
X177374052Y-81872157D01*
X177374054Y-81872159D01*
X177486765Y-82010389D01*
X177513874Y-82074786D01*
X177501865Y-82143615D01*
X177486765Y-82167111D01*
X177396872Y-82277357D01*
X177374052Y-82305343D01*
X177344852Y-82361243D01*
X177279839Y-82485704D01*
X177223864Y-82681333D01*
X177223863Y-82681336D01*
X177213250Y-82800716D01*
X177213250Y-83916778D01*
X177213251Y-83916784D01*
X177223863Y-84036165D01*
X177279839Y-84231795D01*
X177279840Y-84231798D01*
X177279841Y-84231799D01*
X177374052Y-84412157D01*
X177410238Y-84456536D01*
X177486765Y-84550389D01*
X177513874Y-84614786D01*
X177501865Y-84683615D01*
X177486765Y-84707111D01*
X177403929Y-84808702D01*
X177374052Y-84845343D01*
X177373815Y-84845797D01*
X177279839Y-85025704D01*
X177223864Y-85221333D01*
X177223863Y-85221336D01*
X177213250Y-85340716D01*
X177213250Y-86456778D01*
X177213251Y-86456784D01*
X177223863Y-86576165D01*
X177279839Y-86771795D01*
X177279840Y-86771798D01*
X177279841Y-86771799D01*
X177374052Y-86952157D01*
X177374054Y-86952159D01*
X177486765Y-87090389D01*
X177513874Y-87154786D01*
X177501865Y-87223615D01*
X177486765Y-87247111D01*
X177383467Y-87373797D01*
X177374052Y-87385343D01*
X177335030Y-87460047D01*
X177279839Y-87565704D01*
X177223864Y-87761333D01*
X177223863Y-87761336D01*
X177213250Y-87880716D01*
X177213250Y-88996778D01*
X177213251Y-88996784D01*
X177223863Y-89116165D01*
X177279839Y-89311795D01*
X177279840Y-89311798D01*
X177279841Y-89311799D01*
X177374052Y-89492157D01*
X177374054Y-89492159D01*
X177486765Y-89630389D01*
X177513874Y-89694786D01*
X177501865Y-89763615D01*
X177486765Y-89787111D01*
X177374054Y-89925340D01*
X177279839Y-90105704D01*
X177223864Y-90301333D01*
X177223863Y-90301336D01*
X177213250Y-90420716D01*
X177213250Y-91536778D01*
X177213251Y-91536784D01*
X177223863Y-91656165D01*
X177279839Y-91851795D01*
X177279840Y-91851798D01*
X177279841Y-91851799D01*
X177374052Y-92032157D01*
X177374054Y-92032159D01*
X177502640Y-92189859D01*
X177596553Y-92266434D01*
X177660343Y-92318448D01*
X177840701Y-92412659D01*
X178036332Y-92468636D01*
X178155713Y-92479250D01*
X180021786Y-92479249D01*
X180141168Y-92468636D01*
X180336799Y-92412659D01*
X180517157Y-92318448D01*
X180674859Y-92189859D01*
X180803448Y-92032157D01*
X180897659Y-91851799D01*
X180953636Y-91656168D01*
X180964250Y-91536787D01*
X180964249Y-90420714D01*
X180953636Y-90301332D01*
X180897659Y-90105701D01*
X180803448Y-89925343D01*
X180690733Y-89787109D01*
X180663625Y-89722715D01*
X180675634Y-89653885D01*
X180690731Y-89630392D01*
X180803448Y-89492157D01*
X180897659Y-89311799D01*
X180953636Y-89116168D01*
X180964250Y-88996787D01*
X180964249Y-87880714D01*
X180953636Y-87761332D01*
X180897659Y-87565701D01*
X180803448Y-87385343D01*
X180690733Y-87247109D01*
X180663625Y-87182715D01*
X180675634Y-87113885D01*
X180690731Y-87090392D01*
X180803448Y-86952157D01*
X180897659Y-86771799D01*
X180953636Y-86576168D01*
X180964250Y-86456787D01*
X180964249Y-85340714D01*
X180953636Y-85221332D01*
X180897659Y-85025701D01*
X180803448Y-84845343D01*
X180690733Y-84707109D01*
X180663625Y-84642715D01*
X180675634Y-84573885D01*
X180690731Y-84550392D01*
X180803448Y-84412157D01*
X180897659Y-84231799D01*
X180953636Y-84036168D01*
X180964250Y-83916787D01*
X180964249Y-82800714D01*
X180953636Y-82681332D01*
X180908762Y-82524506D01*
X180897660Y-82485704D01*
X180897659Y-82485703D01*
X180897659Y-82485701D01*
X180803448Y-82305343D01*
X180690733Y-82167109D01*
X180663625Y-82102715D01*
X180675634Y-82033885D01*
X180690731Y-82010392D01*
X180803448Y-81872157D01*
X180897659Y-81691799D01*
X180953636Y-81496168D01*
X180964250Y-81376787D01*
X180964249Y-80260714D01*
X180953636Y-80141332D01*
X180897659Y-79945701D01*
X180803448Y-79765343D01*
X180690733Y-79627109D01*
X180663625Y-79562715D01*
X180675634Y-79493885D01*
X180690731Y-79470392D01*
X180803448Y-79332157D01*
X180897659Y-79151799D01*
X180953636Y-78956168D01*
X180964250Y-78836787D01*
X180964249Y-77720714D01*
X180953636Y-77601332D01*
X180897659Y-77405701D01*
X180803448Y-77225343D01*
X180690733Y-77087109D01*
X180663625Y-77022715D01*
X180675634Y-76953885D01*
X180690731Y-76930392D01*
X180803448Y-76792157D01*
X180897659Y-76611799D01*
X180953636Y-76416168D01*
X180964250Y-76296787D01*
X180964249Y-75180714D01*
X180953636Y-75061332D01*
X180897659Y-74865701D01*
X180803448Y-74685343D01*
X180736702Y-74603485D01*
X180674859Y-74527640D01*
X180517159Y-74399054D01*
X180517160Y-74399054D01*
X180517157Y-74399052D01*
X180336799Y-74304841D01*
X180336798Y-74304840D01*
X180336795Y-74304839D01*
X180219579Y-74271300D01*
X180141168Y-74248864D01*
X180141165Y-74248863D01*
X180141163Y-74248863D01*
X180074852Y-74242967D01*
X180021787Y-74238250D01*
X180021782Y-74238250D01*
X178155721Y-74238250D01*
X178155715Y-74238250D01*
X178155714Y-74238251D01*
X178144066Y-74239286D01*
X178036334Y-74248863D01*
X177840704Y-74304839D01*
X177822642Y-74314274D01*
X177660343Y-74399052D01*
X177660341Y-74399053D01*
X177660340Y-74399054D01*
X177502640Y-74527640D01*
X177374054Y-74685340D01*
X177279839Y-74865704D01*
X177223864Y-75061333D01*
X177223863Y-75061336D01*
X177213250Y-75180716D01*
X164799249Y-75180716D01*
X164799249Y-75180714D01*
X164788636Y-75061332D01*
X164732659Y-74865701D01*
X164638448Y-74685343D01*
X164571702Y-74603485D01*
X164509859Y-74527640D01*
X164352159Y-74399054D01*
X164352160Y-74399054D01*
X164352157Y-74399052D01*
X164171799Y-74304841D01*
X164171798Y-74304840D01*
X164171795Y-74304839D01*
X164054579Y-74271300D01*
X163976168Y-74248864D01*
X163976165Y-74248863D01*
X163976163Y-74248863D01*
X163909852Y-74242967D01*
X163856787Y-74238250D01*
X163856782Y-74238250D01*
X161990721Y-74238250D01*
X161990715Y-74238250D01*
X161990714Y-74238251D01*
X161979066Y-74239286D01*
X161871334Y-74248863D01*
X161675704Y-74304839D01*
X161657642Y-74314274D01*
X161495343Y-74399052D01*
X161495341Y-74399053D01*
X161495340Y-74399054D01*
X161337640Y-74527640D01*
X161209054Y-74685340D01*
X161114839Y-74865704D01*
X161058864Y-75061333D01*
X161058863Y-75061336D01*
X161048250Y-75180716D01*
X161048250Y-76296778D01*
X161048251Y-76296784D01*
X161058863Y-76416165D01*
X161114839Y-76611795D01*
X161114840Y-76611798D01*
X161114841Y-76611799D01*
X161209052Y-76792157D01*
X161231871Y-76820142D01*
X161321765Y-76930389D01*
X161348874Y-76994786D01*
X161336865Y-77063615D01*
X161321765Y-77087111D01*
X161293245Y-77122089D01*
X161209052Y-77225343D01*
X161172275Y-77295750D01*
X161114839Y-77405704D01*
X161058864Y-77601333D01*
X161058863Y-77601336D01*
X161048250Y-77720716D01*
X161048250Y-78836778D01*
X161048251Y-78836784D01*
X161058863Y-78956165D01*
X161114839Y-79151795D01*
X161114840Y-79151798D01*
X161114841Y-79151799D01*
X161209052Y-79332157D01*
X161231871Y-79360142D01*
X161321765Y-79470389D01*
X161348874Y-79534786D01*
X161336865Y-79603615D01*
X161321765Y-79627111D01*
X161209054Y-79765340D01*
X161114839Y-79945704D01*
X161058864Y-80141333D01*
X161058863Y-80141336D01*
X161048250Y-80260716D01*
X161048250Y-80334653D01*
X161028565Y-80401692D01*
X160975761Y-80447447D01*
X160906603Y-80457391D01*
X160843047Y-80428366D01*
X160836569Y-80422334D01*
X159719319Y-79305084D01*
X159685834Y-79243761D01*
X159683000Y-79217403D01*
X159683000Y-69636559D01*
X159683001Y-69636546D01*
X159683001Y-69468445D01*
X159683001Y-69468443D01*
X159642077Y-69315715D01*
X159613139Y-69265595D01*
X159563020Y-69178784D01*
X159451216Y-69066980D01*
X159451215Y-69066979D01*
X159446885Y-69062649D01*
X159446874Y-69062639D01*
X158038068Y-67653833D01*
X158004583Y-67592510D01*
X158001749Y-67566152D01*
X158001749Y-66318379D01*
X158001748Y-66318373D01*
X158001747Y-66318366D01*
X157995341Y-66258767D01*
X157967450Y-66183988D01*
X157945047Y-66123921D01*
X157945043Y-66123914D01*
X157858797Y-66008705D01*
X157858794Y-66008702D01*
X157743585Y-65922456D01*
X157743578Y-65922452D01*
X157608732Y-65872158D01*
X157608733Y-65872158D01*
X157549133Y-65865751D01*
X157549131Y-65865750D01*
X157549123Y-65865750D01*
X157549114Y-65865750D01*
X155853379Y-65865750D01*
X155853373Y-65865751D01*
X155793766Y-65872158D01*
X155658921Y-65922452D01*
X155658914Y-65922456D01*
X155543705Y-66008702D01*
X155543702Y-66008705D01*
X155457456Y-66123914D01*
X155457452Y-66123921D01*
X155407158Y-66258767D01*
X155400751Y-66318366D01*
X155400751Y-66318373D01*
X155400750Y-66318385D01*
X155400750Y-66441750D01*
X155381065Y-66508789D01*
X155328261Y-66554544D01*
X155276750Y-66565750D01*
X148230538Y-66565750D01*
X148163499Y-66546065D01*
X148117744Y-66493261D01*
X148107800Y-66424103D01*
X148136825Y-66360547D01*
X148170729Y-66334368D01*
X148170241Y-66333523D01*
X148196494Y-66318366D01*
X148429244Y-66183988D01*
X148663292Y-66004396D01*
X148871896Y-65795792D01*
X149051488Y-65561744D01*
X149198993Y-65306257D01*
X149311889Y-65033702D01*
X149388243Y-64748743D01*
X149426750Y-64456256D01*
X149426750Y-64220171D01*
X151130750Y-64220171D01*
X151130750Y-64397328D01*
X151158464Y-64572306D01*
X151213206Y-64740789D01*
X151213207Y-64740792D01*
X151293636Y-64898640D01*
X151397767Y-65041964D01*
X151523036Y-65167233D01*
X151666360Y-65271364D01*
X151734827Y-65306250D01*
X151824207Y-65351792D01*
X151824210Y-65351793D01*
X151908451Y-65379164D01*
X151992695Y-65406536D01*
X152167671Y-65434250D01*
X152167672Y-65434250D01*
X152344828Y-65434250D01*
X152344829Y-65434250D01*
X152519805Y-65406536D01*
X152688292Y-65351792D01*
X152846140Y-65271364D01*
X152989464Y-65167233D01*
X153114733Y-65041964D01*
X153218864Y-64898640D01*
X153299292Y-64740792D01*
X153354036Y-64572305D01*
X153381750Y-64397329D01*
X153381750Y-64220171D01*
X153354036Y-64045195D01*
X153299292Y-63876708D01*
X153299292Y-63876707D01*
X153218863Y-63718859D01*
X153207768Y-63703588D01*
X153114733Y-63575536D01*
X152989464Y-63450267D01*
X152846140Y-63346136D01*
X152838203Y-63342092D01*
X152688292Y-63265707D01*
X152688289Y-63265706D01*
X152519806Y-63210964D01*
X152432317Y-63197107D01*
X152344829Y-63183250D01*
X152167671Y-63183250D01*
X152109345Y-63192488D01*
X151992693Y-63210964D01*
X151824210Y-63265706D01*
X151824207Y-63265707D01*
X151666359Y-63346136D01*
X151584588Y-63405546D01*
X151523036Y-63450267D01*
X151523034Y-63450269D01*
X151523033Y-63450269D01*
X151397769Y-63575533D01*
X151397769Y-63575534D01*
X151397767Y-63575536D01*
X151353046Y-63637088D01*
X151293636Y-63718859D01*
X151213207Y-63876707D01*
X151213206Y-63876710D01*
X151158464Y-64045193D01*
X151130750Y-64220171D01*
X149426750Y-64220171D01*
X149426750Y-64161244D01*
X149388243Y-63868757D01*
X149311889Y-63583798D01*
X149198993Y-63311243D01*
X149172703Y-63265708D01*
X149051488Y-63055756D01*
X148871897Y-62821709D01*
X148871891Y-62821702D01*
X148663297Y-62613108D01*
X148663290Y-62613102D01*
X148429243Y-62433511D01*
X148173760Y-62286008D01*
X148173750Y-62286004D01*
X147901211Y-62173114D01*
X147901204Y-62173112D01*
X147901202Y-62173111D01*
X147616243Y-62096757D01*
X147567363Y-62090321D01*
X147323763Y-62058250D01*
X147323756Y-62058250D01*
X147028744Y-62058250D01*
X147028736Y-62058250D01*
X146750335Y-62094903D01*
X146736257Y-62096757D01*
X146451298Y-62173111D01*
X146451288Y-62173114D01*
X146178749Y-62286004D01*
X146178739Y-62286008D01*
X145923256Y-62433511D01*
X145689209Y-62613102D01*
X145689202Y-62613108D01*
X145480608Y-62821702D01*
X145480602Y-62821709D01*
X145301011Y-63055756D01*
X145153508Y-63311239D01*
X145153504Y-63311249D01*
X145040614Y-63583788D01*
X145040611Y-63583798D01*
X145004422Y-63718860D01*
X144964258Y-63868754D01*
X144964256Y-63868765D01*
X144925750Y-64161236D01*
X144925750Y-64456263D01*
X144941028Y-64572305D01*
X144964257Y-64748743D01*
X145040611Y-65033701D01*
X145040614Y-65033711D01*
X145153504Y-65306250D01*
X145153508Y-65306260D01*
X145301011Y-65561743D01*
X145480602Y-65795790D01*
X145480608Y-65795797D01*
X145689202Y-66004391D01*
X145689209Y-66004397D01*
X145923256Y-66183988D01*
X146182259Y-66333523D01*
X146181494Y-66334847D01*
X146228231Y-66377852D01*
X146245907Y-66445449D01*
X146224231Y-66511871D01*
X146170086Y-66556031D01*
X146121962Y-66565750D01*
X139075749Y-66565750D01*
X139008710Y-66546065D01*
X138962955Y-66493261D01*
X138951749Y-66441750D01*
X138951749Y-66318379D01*
X138951748Y-66318373D01*
X138951747Y-66318366D01*
X138945341Y-66258767D01*
X138917450Y-66183988D01*
X138895047Y-66123921D01*
X138895043Y-66123914D01*
X138808797Y-66008705D01*
X138808794Y-66008702D01*
X138693585Y-65922456D01*
X138693578Y-65922452D01*
X138558732Y-65872158D01*
X138558733Y-65872158D01*
X138499133Y-65865751D01*
X138499131Y-65865750D01*
X138499123Y-65865750D01*
X138499114Y-65865750D01*
X136803379Y-65865750D01*
X136803373Y-65865751D01*
X136743766Y-65872158D01*
X136608921Y-65922452D01*
X136608914Y-65922456D01*
X136493705Y-66008702D01*
X136493702Y-66008705D01*
X136407456Y-66123914D01*
X136407452Y-66123921D01*
X136357158Y-66258767D01*
X136350751Y-66318366D01*
X136350751Y-66318373D01*
X136350750Y-66318385D01*
X136350750Y-66441750D01*
X136331065Y-66508789D01*
X136278261Y-66554544D01*
X136226750Y-66565750D01*
X129180538Y-66565750D01*
X129113499Y-66546065D01*
X129067744Y-66493261D01*
X129057800Y-66424103D01*
X129086825Y-66360547D01*
X129120729Y-66334368D01*
X129120241Y-66333523D01*
X129146494Y-66318366D01*
X129379244Y-66183988D01*
X129613292Y-66004396D01*
X129821896Y-65795792D01*
X130001488Y-65561744D01*
X130148993Y-65306257D01*
X130261889Y-65033702D01*
X130338243Y-64748743D01*
X130376750Y-64456256D01*
X130376750Y-64220171D01*
X132080750Y-64220171D01*
X132080750Y-64397328D01*
X132108464Y-64572306D01*
X132163206Y-64740789D01*
X132163207Y-64740792D01*
X132243636Y-64898640D01*
X132347767Y-65041964D01*
X132473036Y-65167233D01*
X132616360Y-65271364D01*
X132684827Y-65306250D01*
X132774207Y-65351792D01*
X132774210Y-65351793D01*
X132858451Y-65379164D01*
X132942695Y-65406536D01*
X133117671Y-65434250D01*
X133117672Y-65434250D01*
X133294828Y-65434250D01*
X133294829Y-65434250D01*
X133469805Y-65406536D01*
X133638292Y-65351792D01*
X133796140Y-65271364D01*
X133939464Y-65167233D01*
X134064733Y-65041964D01*
X134168864Y-64898640D01*
X134249292Y-64740792D01*
X134304036Y-64572305D01*
X134331750Y-64397329D01*
X134331750Y-64220171D01*
X140970750Y-64220171D01*
X140970750Y-64397328D01*
X140998464Y-64572306D01*
X141053206Y-64740789D01*
X141053207Y-64740792D01*
X141133636Y-64898640D01*
X141237767Y-65041964D01*
X141363036Y-65167233D01*
X141506360Y-65271364D01*
X141574827Y-65306250D01*
X141664207Y-65351792D01*
X141664210Y-65351793D01*
X141748451Y-65379164D01*
X141832695Y-65406536D01*
X142007671Y-65434250D01*
X142007672Y-65434250D01*
X142184828Y-65434250D01*
X142184829Y-65434250D01*
X142359805Y-65406536D01*
X142528292Y-65351792D01*
X142686140Y-65271364D01*
X142829464Y-65167233D01*
X142954733Y-65041964D01*
X143058864Y-64898640D01*
X143139292Y-64740792D01*
X143194036Y-64572305D01*
X143221750Y-64397329D01*
X143221750Y-64220171D01*
X143194036Y-64045195D01*
X143139292Y-63876708D01*
X143139292Y-63876707D01*
X143058863Y-63718859D01*
X143047768Y-63703588D01*
X143024288Y-63637782D01*
X143040113Y-63569728D01*
X143090218Y-63521033D01*
X143158696Y-63507157D01*
X143164227Y-63507758D01*
X143251516Y-63519250D01*
X143251523Y-63519250D01*
X143480977Y-63519250D01*
X143480984Y-63519250D01*
X143708488Y-63489298D01*
X143930137Y-63429908D01*
X144142138Y-63342094D01*
X144340862Y-63227361D01*
X144522911Y-63087669D01*
X144522915Y-63087664D01*
X144522920Y-63087661D01*
X144685161Y-62925420D01*
X144685164Y-62925415D01*
X144685169Y-62925411D01*
X144824861Y-62743362D01*
X144939594Y-62544638D01*
X145027408Y-62332637D01*
X145086798Y-62110988D01*
X145116750Y-61883484D01*
X145116750Y-61654016D01*
X145086798Y-61426512D01*
X145027408Y-61204863D01*
X144939594Y-60992862D01*
X144824861Y-60794138D01*
X144824858Y-60794135D01*
X144824857Y-60794132D01*
X144685168Y-60612088D01*
X144685161Y-60612080D01*
X144522920Y-60449839D01*
X144522911Y-60449831D01*
X144340867Y-60310142D01*
X144142140Y-60195407D01*
X144142126Y-60195400D01*
X143930137Y-60107592D01*
X143708488Y-60048202D01*
X143670465Y-60043196D01*
X143480991Y-60018250D01*
X143480984Y-60018250D01*
X143251516Y-60018250D01*
X143251508Y-60018250D01*
X143044740Y-60045473D01*
X143024012Y-60048202D01*
X142930326Y-60073304D01*
X142802362Y-60107592D01*
X142590373Y-60195400D01*
X142590359Y-60195407D01*
X142391632Y-60310142D01*
X142209588Y-60449831D01*
X142047331Y-60612088D01*
X141907642Y-60794132D01*
X141792907Y-60992859D01*
X141792900Y-60992873D01*
X141705092Y-61204862D01*
X141645703Y-61426509D01*
X141645701Y-61426520D01*
X141615750Y-61654008D01*
X141615750Y-61883491D01*
X141638759Y-62058250D01*
X141645702Y-62110988D01*
X141692597Y-62286004D01*
X141705092Y-62332637D01*
X141792900Y-62544626D01*
X141792907Y-62544640D01*
X141907642Y-62743367D01*
X142047331Y-62925411D01*
X142047339Y-62925420D01*
X142093488Y-62971569D01*
X142126973Y-63032892D01*
X142121989Y-63102584D01*
X142080117Y-63158517D01*
X142014653Y-63182934D01*
X142009217Y-63183128D01*
X142007673Y-63183249D01*
X141832693Y-63210964D01*
X141664210Y-63265706D01*
X141664207Y-63265707D01*
X141506359Y-63346136D01*
X141424588Y-63405546D01*
X141363036Y-63450267D01*
X141363034Y-63450269D01*
X141363033Y-63450269D01*
X141237769Y-63575533D01*
X141237769Y-63575534D01*
X141237767Y-63575536D01*
X141193046Y-63637088D01*
X141133636Y-63718859D01*
X141053207Y-63876707D01*
X141053206Y-63876710D01*
X140998464Y-64045193D01*
X140970750Y-64220171D01*
X134331750Y-64220171D01*
X134304036Y-64045195D01*
X134249292Y-63876708D01*
X134249292Y-63876707D01*
X134168863Y-63718859D01*
X134157768Y-63703588D01*
X134064733Y-63575536D01*
X133939464Y-63450267D01*
X133796140Y-63346136D01*
X133788203Y-63342092D01*
X133638292Y-63265707D01*
X133638289Y-63265706D01*
X133469806Y-63210964D01*
X133382317Y-63197107D01*
X133294829Y-63183250D01*
X133117671Y-63183250D01*
X133059345Y-63192488D01*
X132942693Y-63210964D01*
X132774210Y-63265706D01*
X132774207Y-63265707D01*
X132616359Y-63346136D01*
X132534588Y-63405546D01*
X132473036Y-63450267D01*
X132473034Y-63450269D01*
X132473033Y-63450269D01*
X132347769Y-63575533D01*
X132347769Y-63575534D01*
X132347767Y-63575536D01*
X132303046Y-63637088D01*
X132243636Y-63718859D01*
X132163207Y-63876707D01*
X132163206Y-63876710D01*
X132108464Y-64045193D01*
X132080750Y-64220171D01*
X130376750Y-64220171D01*
X130376750Y-64161244D01*
X130338243Y-63868757D01*
X130261889Y-63583798D01*
X130148993Y-63311243D01*
X130122703Y-63265708D01*
X130001488Y-63055756D01*
X129821897Y-62821709D01*
X129821891Y-62821702D01*
X129613297Y-62613108D01*
X129613290Y-62613102D01*
X129379243Y-62433511D01*
X129123760Y-62286008D01*
X129123750Y-62286004D01*
X128851211Y-62173114D01*
X128851204Y-62173112D01*
X128851202Y-62173111D01*
X128566243Y-62096757D01*
X128517363Y-62090321D01*
X128273763Y-62058250D01*
X128273756Y-62058250D01*
X127978744Y-62058250D01*
X127978736Y-62058250D01*
X127700335Y-62094903D01*
X127686257Y-62096757D01*
X127401298Y-62173111D01*
X127401288Y-62173114D01*
X127128749Y-62286004D01*
X127128739Y-62286008D01*
X126873256Y-62433511D01*
X126639209Y-62613102D01*
X126639202Y-62613108D01*
X126430608Y-62821702D01*
X126430602Y-62821709D01*
X126251011Y-63055756D01*
X126103508Y-63311239D01*
X126103504Y-63311249D01*
X125990614Y-63583788D01*
X125990611Y-63583798D01*
X125954422Y-63718860D01*
X125914258Y-63868754D01*
X125914256Y-63868765D01*
X125875750Y-64161236D01*
X125875750Y-64456263D01*
X125891028Y-64572305D01*
X125914257Y-64748743D01*
X125990611Y-65033701D01*
X125990614Y-65033711D01*
X126103504Y-65306250D01*
X126103508Y-65306260D01*
X126251011Y-65561743D01*
X126430602Y-65795790D01*
X126430608Y-65795797D01*
X126639202Y-66004391D01*
X126639209Y-66004397D01*
X126873256Y-66183988D01*
X127132259Y-66333523D01*
X127131494Y-66334847D01*
X127178231Y-66377852D01*
X127195907Y-66445449D01*
X127174231Y-66511871D01*
X127120086Y-66556031D01*
X127071962Y-66565750D01*
X120025749Y-66565750D01*
X119958710Y-66546065D01*
X119912955Y-66493261D01*
X119901749Y-66441750D01*
X119901749Y-66318379D01*
X119901748Y-66318373D01*
X119901747Y-66318366D01*
X119895341Y-66258767D01*
X119867450Y-66183988D01*
X119845047Y-66123921D01*
X119845043Y-66123914D01*
X119758797Y-66008705D01*
X119758794Y-66008702D01*
X119643585Y-65922456D01*
X119643578Y-65922452D01*
X119508732Y-65872158D01*
X119508733Y-65872158D01*
X119449133Y-65865751D01*
X119449131Y-65865750D01*
X119449123Y-65865750D01*
X119449114Y-65865750D01*
X117753379Y-65865750D01*
X117753373Y-65865751D01*
X117693766Y-65872158D01*
X117558921Y-65922452D01*
X117558914Y-65922456D01*
X117443705Y-66008702D01*
X117443702Y-66008705D01*
X117357456Y-66123914D01*
X117357452Y-66123921D01*
X117307158Y-66258767D01*
X117300751Y-66318366D01*
X117300751Y-66318373D01*
X117300750Y-66318385D01*
X110096461Y-66318385D01*
X110199723Y-66258767D01*
X110288228Y-66207669D01*
X110306841Y-66196921D01*
X110329244Y-66183988D01*
X110563292Y-66004396D01*
X110771896Y-65795792D01*
X110951488Y-65561744D01*
X111098993Y-65306257D01*
X111211889Y-65033702D01*
X111288243Y-64748743D01*
X111326750Y-64456256D01*
X111326750Y-64220171D01*
X113030750Y-64220171D01*
X113030750Y-64397328D01*
X113058464Y-64572306D01*
X113113206Y-64740789D01*
X113113207Y-64740792D01*
X113193636Y-64898640D01*
X113297767Y-65041964D01*
X113423036Y-65167233D01*
X113566360Y-65271364D01*
X113634827Y-65306250D01*
X113724207Y-65351792D01*
X113724210Y-65351793D01*
X113808451Y-65379164D01*
X113892695Y-65406536D01*
X114067671Y-65434250D01*
X114067672Y-65434250D01*
X114244828Y-65434250D01*
X114244829Y-65434250D01*
X114419805Y-65406536D01*
X114588292Y-65351792D01*
X114746140Y-65271364D01*
X114889464Y-65167233D01*
X115014733Y-65041964D01*
X115118864Y-64898640D01*
X115199292Y-64740792D01*
X115254036Y-64572305D01*
X115281750Y-64397329D01*
X115281750Y-64220171D01*
X121920750Y-64220171D01*
X121920750Y-64397328D01*
X121948464Y-64572306D01*
X122003206Y-64740789D01*
X122003207Y-64740792D01*
X122083636Y-64898640D01*
X122187767Y-65041964D01*
X122313036Y-65167233D01*
X122456360Y-65271364D01*
X122524827Y-65306250D01*
X122614207Y-65351792D01*
X122614210Y-65351793D01*
X122698451Y-65379164D01*
X122782695Y-65406536D01*
X122957671Y-65434250D01*
X122957672Y-65434250D01*
X123134828Y-65434250D01*
X123134829Y-65434250D01*
X123309805Y-65406536D01*
X123478292Y-65351792D01*
X123636140Y-65271364D01*
X123779464Y-65167233D01*
X123904733Y-65041964D01*
X124008864Y-64898640D01*
X124089292Y-64740792D01*
X124144036Y-64572305D01*
X124171750Y-64397329D01*
X124171750Y-64220171D01*
X124144036Y-64045195D01*
X124089292Y-63876708D01*
X124089292Y-63876707D01*
X124008863Y-63718859D01*
X123997768Y-63703588D01*
X123974288Y-63637782D01*
X123990113Y-63569728D01*
X124040218Y-63521033D01*
X124108696Y-63507157D01*
X124114227Y-63507758D01*
X124201516Y-63519250D01*
X124201523Y-63519250D01*
X124430977Y-63519250D01*
X124430984Y-63519250D01*
X124658488Y-63489298D01*
X124880137Y-63429908D01*
X125092138Y-63342094D01*
X125290862Y-63227361D01*
X125472911Y-63087669D01*
X125472915Y-63087664D01*
X125472920Y-63087661D01*
X125635161Y-62925420D01*
X125635164Y-62925415D01*
X125635169Y-62925411D01*
X125774861Y-62743362D01*
X125889594Y-62544638D01*
X125977408Y-62332637D01*
X126036798Y-62110988D01*
X126066750Y-61883484D01*
X126066750Y-61654016D01*
X126036798Y-61426512D01*
X125977408Y-61204863D01*
X125889594Y-60992862D01*
X125774861Y-60794138D01*
X125774858Y-60794135D01*
X125774857Y-60794132D01*
X125635168Y-60612088D01*
X125635161Y-60612080D01*
X125472920Y-60449839D01*
X125472911Y-60449831D01*
X125290867Y-60310142D01*
X125092140Y-60195407D01*
X125092126Y-60195400D01*
X124880137Y-60107592D01*
X124658488Y-60048202D01*
X124620465Y-60043196D01*
X124430991Y-60018250D01*
X124430984Y-60018250D01*
X124201516Y-60018250D01*
X124201508Y-60018250D01*
X123994740Y-60045473D01*
X123974012Y-60048202D01*
X123880326Y-60073304D01*
X123752362Y-60107592D01*
X123540373Y-60195400D01*
X123540359Y-60195407D01*
X123341632Y-60310142D01*
X123159588Y-60449831D01*
X122997331Y-60612088D01*
X122857642Y-60794132D01*
X122742907Y-60992859D01*
X122742900Y-60992873D01*
X122655092Y-61204862D01*
X122595703Y-61426509D01*
X122595701Y-61426520D01*
X122565750Y-61654008D01*
X122565750Y-61883491D01*
X122588759Y-62058250D01*
X122595702Y-62110988D01*
X122642597Y-62286004D01*
X122655092Y-62332637D01*
X122742900Y-62544626D01*
X122742907Y-62544640D01*
X122857642Y-62743367D01*
X122997331Y-62925411D01*
X122997339Y-62925420D01*
X123043488Y-62971569D01*
X123076973Y-63032892D01*
X123071989Y-63102584D01*
X123030117Y-63158517D01*
X122964653Y-63182934D01*
X122959217Y-63183128D01*
X122957673Y-63183249D01*
X122782693Y-63210964D01*
X122614210Y-63265706D01*
X122614207Y-63265707D01*
X122456359Y-63346136D01*
X122374588Y-63405546D01*
X122313036Y-63450267D01*
X122313034Y-63450269D01*
X122313033Y-63450269D01*
X122187769Y-63575533D01*
X122187769Y-63575534D01*
X122187767Y-63575536D01*
X122143046Y-63637088D01*
X122083636Y-63718859D01*
X122003207Y-63876707D01*
X122003206Y-63876710D01*
X121948464Y-64045193D01*
X121920750Y-64220171D01*
X115281750Y-64220171D01*
X115254036Y-64045195D01*
X115199292Y-63876708D01*
X115199292Y-63876707D01*
X115118863Y-63718859D01*
X115107768Y-63703588D01*
X115014733Y-63575536D01*
X114889464Y-63450267D01*
X114746140Y-63346136D01*
X114738203Y-63342092D01*
X114588292Y-63265707D01*
X114588289Y-63265706D01*
X114419806Y-63210964D01*
X114332317Y-63197107D01*
X114244829Y-63183250D01*
X114067671Y-63183250D01*
X114009345Y-63192488D01*
X113892693Y-63210964D01*
X113724210Y-63265706D01*
X113724207Y-63265707D01*
X113566359Y-63346136D01*
X113484588Y-63405546D01*
X113423036Y-63450267D01*
X113423034Y-63450269D01*
X113423033Y-63450269D01*
X113297769Y-63575533D01*
X113297769Y-63575534D01*
X113297767Y-63575536D01*
X113253046Y-63637088D01*
X113193636Y-63718859D01*
X113113207Y-63876707D01*
X113113206Y-63876710D01*
X113058464Y-64045193D01*
X113030750Y-64220171D01*
X111326750Y-64220171D01*
X111326750Y-64161244D01*
X111288243Y-63868757D01*
X111211889Y-63583798D01*
X111098993Y-63311243D01*
X111072703Y-63265708D01*
X110951488Y-63055756D01*
X110771897Y-62821709D01*
X110771891Y-62821702D01*
X110563297Y-62613108D01*
X110563290Y-62613102D01*
X110329243Y-62433511D01*
X110073760Y-62286008D01*
X110073750Y-62286004D01*
X109801211Y-62173114D01*
X109801204Y-62173112D01*
X109801202Y-62173111D01*
X109516243Y-62096757D01*
X109467363Y-62090321D01*
X109223763Y-62058250D01*
X109223756Y-62058250D01*
X108928744Y-62058250D01*
X108928736Y-62058250D01*
X108650335Y-62094903D01*
X108636257Y-62096757D01*
X108351298Y-62173111D01*
X108351288Y-62173114D01*
X108078749Y-62286004D01*
X108078739Y-62286008D01*
X107823256Y-62433511D01*
X107589209Y-62613102D01*
X107589202Y-62613108D01*
X107380608Y-62821702D01*
X107380602Y-62821709D01*
X107201011Y-63055756D01*
X107053508Y-63311239D01*
X107053504Y-63311249D01*
X106940614Y-63583788D01*
X106940611Y-63583798D01*
X106904422Y-63718860D01*
X106864258Y-63868754D01*
X106864256Y-63868765D01*
X106825750Y-64161236D01*
X105112415Y-64161236D01*
X105094036Y-64045195D01*
X105039292Y-63876708D01*
X105039292Y-63876707D01*
X104958863Y-63718859D01*
X104947768Y-63703588D01*
X104924288Y-63637782D01*
X104940113Y-63569728D01*
X104990218Y-63521033D01*
X105058696Y-63507157D01*
X105064227Y-63507758D01*
X105151516Y-63519250D01*
X105151523Y-63519250D01*
X105380977Y-63519250D01*
X105380984Y-63519250D01*
X105608488Y-63489298D01*
X105830137Y-63429908D01*
X106042138Y-63342094D01*
X106240862Y-63227361D01*
X106422911Y-63087669D01*
X106422915Y-63087664D01*
X106422920Y-63087661D01*
X106585161Y-62925420D01*
X106585164Y-62925415D01*
X106585169Y-62925411D01*
X106724861Y-62743362D01*
X106839594Y-62544638D01*
X106927408Y-62332637D01*
X106986798Y-62110988D01*
X107016750Y-61883484D01*
X107016750Y-61654016D01*
X106986798Y-61426512D01*
X106927408Y-61204863D01*
X106839594Y-60992862D01*
X106724861Y-60794138D01*
X106724858Y-60794135D01*
X106724857Y-60794132D01*
X106585168Y-60612088D01*
X106585161Y-60612080D01*
X106422920Y-60449839D01*
X106422911Y-60449831D01*
X106240867Y-60310142D01*
X106042140Y-60195407D01*
X106042126Y-60195400D01*
X105830137Y-60107592D01*
X105608488Y-60048202D01*
X105570465Y-60043196D01*
X105380991Y-60018250D01*
X105380984Y-60018250D01*
X105151516Y-60018250D01*
X105151508Y-60018250D01*
X104944740Y-60045473D01*
X104924012Y-60048202D01*
X104830326Y-60073304D01*
X104702362Y-60107592D01*
X104490373Y-60195400D01*
X104490359Y-60195407D01*
X104291632Y-60310142D01*
X104109588Y-60449831D01*
X103947331Y-60612088D01*
X103807642Y-60794132D01*
X103692907Y-60992859D01*
X103692900Y-60992873D01*
X103605092Y-61204862D01*
X103545703Y-61426509D01*
X103545701Y-61426520D01*
X103515750Y-61654008D01*
X103515750Y-61883491D01*
X103538759Y-62058250D01*
X103545702Y-62110988D01*
X103592597Y-62286004D01*
X103605092Y-62332637D01*
X103692900Y-62544626D01*
X103692907Y-62544640D01*
X103807642Y-62743367D01*
X103947331Y-62925411D01*
X103947339Y-62925420D01*
X103993488Y-62971569D01*
X104026973Y-63032892D01*
X104021989Y-63102584D01*
X103980117Y-63158517D01*
X103914653Y-63182934D01*
X103909217Y-63183128D01*
X103907673Y-63183249D01*
X103732693Y-63210964D01*
X103564210Y-63265706D01*
X103564207Y-63265707D01*
X103406359Y-63346136D01*
X103324588Y-63405546D01*
X103263036Y-63450267D01*
X103263034Y-63450269D01*
X103263033Y-63450269D01*
X103137769Y-63575533D01*
X103137769Y-63575534D01*
X103137767Y-63575536D01*
X103093046Y-63637088D01*
X103033636Y-63718859D01*
X102953207Y-63876707D01*
X102953206Y-63876710D01*
X102898464Y-64045193D01*
X102870750Y-64220171D01*
X97670500Y-64220171D01*
X97670500Y-59114008D01*
X109865750Y-59114008D01*
X109865750Y-59343491D01*
X109878970Y-59443898D01*
X109895702Y-59570988D01*
X109955092Y-59792637D01*
X110042900Y-60004626D01*
X110042907Y-60004640D01*
X110157642Y-60203367D01*
X110297331Y-60385411D01*
X110297339Y-60385420D01*
X110459580Y-60547661D01*
X110459588Y-60547668D01*
X110641632Y-60687357D01*
X110641635Y-60687358D01*
X110641638Y-60687361D01*
X110840362Y-60802094D01*
X110840367Y-60802096D01*
X110840373Y-60802099D01*
X110931730Y-60839940D01*
X111052363Y-60889908D01*
X111274012Y-60949298D01*
X111501516Y-60979250D01*
X111501523Y-60979250D01*
X111730977Y-60979250D01*
X111730984Y-60979250D01*
X111958488Y-60949298D01*
X112180137Y-60889908D01*
X112392138Y-60802094D01*
X112590862Y-60687361D01*
X112772911Y-60547669D01*
X112772915Y-60547664D01*
X112772920Y-60547661D01*
X112935161Y-60385420D01*
X112935164Y-60385415D01*
X112935169Y-60385411D01*
X113074861Y-60203362D01*
X113189594Y-60004638D01*
X113189599Y-60004626D01*
X113230535Y-59905798D01*
X113274375Y-59851394D01*
X113340670Y-59829329D01*
X113345096Y-59829250D01*
X117235685Y-59829250D01*
X117302724Y-59848935D01*
X117348479Y-59901739D01*
X117353615Y-59914931D01*
X117396030Y-60045469D01*
X117476483Y-60203367D01*
X117488965Y-60227863D01*
X117609278Y-60393463D01*
X117754036Y-60538221D01*
X117855709Y-60612089D01*
X117919640Y-60658537D01*
X118035857Y-60717753D01*
X118102026Y-60751468D01*
X118102028Y-60751468D01*
X118102031Y-60751470D01*
X118206387Y-60785377D01*
X118296715Y-60814727D01*
X118397807Y-60830738D01*
X118498898Y-60846750D01*
X118498899Y-60846750D01*
X118703601Y-60846750D01*
X118703602Y-60846750D01*
X118905784Y-60814727D01*
X119100469Y-60751470D01*
X119282860Y-60658537D01*
X119375840Y-60590982D01*
X119448463Y-60538221D01*
X119448465Y-60538218D01*
X119448469Y-60538216D01*
X119593216Y-60393469D01*
X119593218Y-60393465D01*
X119593221Y-60393463D01*
X119653758Y-60310139D01*
X119713537Y-60227860D01*
X119806470Y-60045469D01*
X119869727Y-59850784D01*
X119901750Y-59648602D01*
X119901750Y-59443898D01*
X119869727Y-59241716D01*
X119828232Y-59114008D01*
X128915750Y-59114008D01*
X128915750Y-59343491D01*
X128928970Y-59443898D01*
X128945702Y-59570988D01*
X129005092Y-59792637D01*
X129092900Y-60004626D01*
X129092907Y-60004640D01*
X129207642Y-60203367D01*
X129347331Y-60385411D01*
X129347339Y-60385420D01*
X129509580Y-60547661D01*
X129509588Y-60547668D01*
X129691632Y-60687357D01*
X129691635Y-60687358D01*
X129691638Y-60687361D01*
X129890362Y-60802094D01*
X129890367Y-60802096D01*
X129890373Y-60802099D01*
X129981730Y-60839940D01*
X130102363Y-60889908D01*
X130324012Y-60949298D01*
X130551516Y-60979250D01*
X130551523Y-60979250D01*
X130780977Y-60979250D01*
X130780984Y-60979250D01*
X131008488Y-60949298D01*
X131230137Y-60889908D01*
X131442138Y-60802094D01*
X131640862Y-60687361D01*
X131822911Y-60547669D01*
X131822915Y-60547664D01*
X131822920Y-60547661D01*
X131985161Y-60385420D01*
X131985164Y-60385415D01*
X131985169Y-60385411D01*
X132124861Y-60203362D01*
X132239594Y-60004638D01*
X132239599Y-60004626D01*
X132280535Y-59905798D01*
X132324375Y-59851394D01*
X132390670Y-59829329D01*
X132395096Y-59829250D01*
X136285685Y-59829250D01*
X136352724Y-59848935D01*
X136398479Y-59901739D01*
X136403615Y-59914931D01*
X136446030Y-60045469D01*
X136526483Y-60203367D01*
X136538965Y-60227863D01*
X136659278Y-60393463D01*
X136804036Y-60538221D01*
X136905709Y-60612089D01*
X136969640Y-60658537D01*
X137085857Y-60717753D01*
X137152026Y-60751468D01*
X137152028Y-60751468D01*
X137152031Y-60751470D01*
X137256387Y-60785377D01*
X137346715Y-60814727D01*
X137447807Y-60830738D01*
X137548898Y-60846750D01*
X137548899Y-60846750D01*
X137753601Y-60846750D01*
X137753602Y-60846750D01*
X137955784Y-60814727D01*
X138150469Y-60751470D01*
X138332860Y-60658537D01*
X138425840Y-60590982D01*
X138498463Y-60538221D01*
X138498465Y-60538218D01*
X138498469Y-60538216D01*
X138643216Y-60393469D01*
X138643218Y-60393465D01*
X138643221Y-60393463D01*
X138703758Y-60310139D01*
X138763537Y-60227860D01*
X138856470Y-60045469D01*
X138919727Y-59850784D01*
X138951750Y-59648602D01*
X138951750Y-59443898D01*
X138919727Y-59241716D01*
X138878232Y-59114008D01*
X147965750Y-59114008D01*
X147965750Y-59343491D01*
X147978970Y-59443898D01*
X147995702Y-59570988D01*
X148055092Y-59792637D01*
X148142900Y-60004626D01*
X148142907Y-60004640D01*
X148257642Y-60203367D01*
X148397331Y-60385411D01*
X148397339Y-60385420D01*
X148559580Y-60547661D01*
X148559588Y-60547668D01*
X148741632Y-60687357D01*
X148741635Y-60687358D01*
X148741638Y-60687361D01*
X148940362Y-60802094D01*
X148940367Y-60802096D01*
X148940373Y-60802099D01*
X149031730Y-60839940D01*
X149152363Y-60889908D01*
X149374012Y-60949298D01*
X149601516Y-60979250D01*
X149601523Y-60979250D01*
X149830977Y-60979250D01*
X149830984Y-60979250D01*
X150058488Y-60949298D01*
X150280137Y-60889908D01*
X150492138Y-60802094D01*
X150690862Y-60687361D01*
X150872911Y-60547669D01*
X150872915Y-60547664D01*
X150872920Y-60547661D01*
X151035161Y-60385420D01*
X151035164Y-60385415D01*
X151035169Y-60385411D01*
X151174861Y-60203362D01*
X151289594Y-60004638D01*
X151289599Y-60004626D01*
X151330535Y-59905798D01*
X151374375Y-59851394D01*
X151440670Y-59829329D01*
X151445096Y-59829250D01*
X155335685Y-59829250D01*
X155402724Y-59848935D01*
X155448479Y-59901739D01*
X155453615Y-59914931D01*
X155496030Y-60045469D01*
X155576483Y-60203367D01*
X155588965Y-60227863D01*
X155709278Y-60393463D01*
X155854036Y-60538221D01*
X155955709Y-60612089D01*
X156019640Y-60658537D01*
X156135857Y-60717753D01*
X156202026Y-60751468D01*
X156202028Y-60751468D01*
X156202031Y-60751470D01*
X156306387Y-60785377D01*
X156396715Y-60814727D01*
X156497807Y-60830738D01*
X156598898Y-60846750D01*
X156598899Y-60846750D01*
X156803601Y-60846750D01*
X156803602Y-60846750D01*
X157005784Y-60814727D01*
X157200469Y-60751470D01*
X157382860Y-60658537D01*
X157475840Y-60590982D01*
X157548463Y-60538221D01*
X157548465Y-60538218D01*
X157548469Y-60538216D01*
X157693216Y-60393469D01*
X157693218Y-60393465D01*
X157693221Y-60393463D01*
X157753758Y-60310139D01*
X157813537Y-60227860D01*
X157906470Y-60045469D01*
X157969727Y-59850784D01*
X158001750Y-59648602D01*
X158001750Y-59443898D01*
X157969727Y-59241716D01*
X157906470Y-59047031D01*
X157906468Y-59047028D01*
X157906468Y-59047026D01*
X157824681Y-58886512D01*
X157813537Y-58864640D01*
X157805806Y-58853999D01*
X157693221Y-58699036D01*
X157548463Y-58554278D01*
X157382863Y-58433965D01*
X157382862Y-58433964D01*
X157382860Y-58433963D01*
X157325903Y-58404941D01*
X157200473Y-58341031D01*
X157005784Y-58277772D01*
X156831245Y-58250128D01*
X156803602Y-58245750D01*
X156598898Y-58245750D01*
X156574579Y-58249601D01*
X156396715Y-58277772D01*
X156202026Y-58341031D01*
X156019636Y-58433965D01*
X155854036Y-58554278D01*
X155854032Y-58554282D01*
X155816384Y-58591931D01*
X155755061Y-58625416D01*
X155728703Y-58628250D01*
X151445096Y-58628250D01*
X151378057Y-58608565D01*
X151332302Y-58555761D01*
X151330535Y-58551702D01*
X151289599Y-58452873D01*
X151289596Y-58452867D01*
X151289594Y-58452862D01*
X151174861Y-58254138D01*
X151174858Y-58254135D01*
X151174857Y-58254132D01*
X151035168Y-58072088D01*
X151035161Y-58072080D01*
X150872920Y-57909839D01*
X150872911Y-57909831D01*
X150690867Y-57770142D01*
X150492140Y-57655407D01*
X150492126Y-57655400D01*
X150280137Y-57567592D01*
X150058488Y-57508202D01*
X150020465Y-57503196D01*
X149830991Y-57478250D01*
X149830984Y-57478250D01*
X149601516Y-57478250D01*
X149601508Y-57478250D01*
X149384965Y-57506759D01*
X149374012Y-57508202D01*
X149280326Y-57533304D01*
X149152362Y-57567592D01*
X148940373Y-57655400D01*
X148940359Y-57655407D01*
X148741632Y-57770142D01*
X148559588Y-57909831D01*
X148397331Y-58072088D01*
X148257642Y-58254132D01*
X148142907Y-58452859D01*
X148142900Y-58452873D01*
X148055092Y-58664862D01*
X147995703Y-58886509D01*
X147995701Y-58886520D01*
X147965750Y-59114008D01*
X138878232Y-59114008D01*
X138856470Y-59047031D01*
X138763537Y-58864640D01*
X138755806Y-58853999D01*
X138643221Y-58699036D01*
X138498463Y-58554278D01*
X138332863Y-58433965D01*
X138332862Y-58433964D01*
X138332860Y-58433963D01*
X138275903Y-58404941D01*
X138150473Y-58341031D01*
X137955784Y-58277772D01*
X137781245Y-58250128D01*
X137753602Y-58245750D01*
X137548898Y-58245750D01*
X137524579Y-58249601D01*
X137346715Y-58277772D01*
X137152026Y-58341031D01*
X136969636Y-58433965D01*
X136804036Y-58554278D01*
X136804032Y-58554282D01*
X136766384Y-58591931D01*
X136705061Y-58625416D01*
X136678703Y-58628250D01*
X132395096Y-58628250D01*
X132328057Y-58608565D01*
X132282302Y-58555761D01*
X132280535Y-58551702D01*
X132239599Y-58452873D01*
X132239596Y-58452867D01*
X132239594Y-58452862D01*
X132124861Y-58254138D01*
X132124858Y-58254135D01*
X132124857Y-58254132D01*
X131985168Y-58072088D01*
X131985161Y-58072080D01*
X131822920Y-57909839D01*
X131822911Y-57909831D01*
X131640867Y-57770142D01*
X131442140Y-57655407D01*
X131442126Y-57655400D01*
X131230137Y-57567592D01*
X131008488Y-57508202D01*
X130970465Y-57503196D01*
X130780991Y-57478250D01*
X130780984Y-57478250D01*
X130551516Y-57478250D01*
X130551508Y-57478250D01*
X130334965Y-57506759D01*
X130324012Y-57508202D01*
X130230326Y-57533304D01*
X130102362Y-57567592D01*
X129890373Y-57655400D01*
X129890359Y-57655407D01*
X129691632Y-57770142D01*
X129509588Y-57909831D01*
X129347331Y-58072088D01*
X129207642Y-58254132D01*
X129092907Y-58452859D01*
X129092900Y-58452873D01*
X129005092Y-58664862D01*
X128945703Y-58886509D01*
X128945701Y-58886520D01*
X128915750Y-59114008D01*
X119828232Y-59114008D01*
X119806470Y-59047031D01*
X119713537Y-58864640D01*
X119705806Y-58853999D01*
X119593221Y-58699036D01*
X119448463Y-58554278D01*
X119282863Y-58433965D01*
X119282862Y-58433964D01*
X119282860Y-58433963D01*
X119225903Y-58404941D01*
X119100473Y-58341031D01*
X118905784Y-58277772D01*
X118731245Y-58250128D01*
X118703602Y-58245750D01*
X118498898Y-58245750D01*
X118474579Y-58249601D01*
X118296715Y-58277772D01*
X118102026Y-58341031D01*
X117919636Y-58433965D01*
X117754036Y-58554278D01*
X117754032Y-58554282D01*
X117716384Y-58591931D01*
X117655061Y-58625416D01*
X117628703Y-58628250D01*
X113345096Y-58628250D01*
X113278057Y-58608565D01*
X113232302Y-58555761D01*
X113230535Y-58551702D01*
X113189599Y-58452873D01*
X113189596Y-58452867D01*
X113189594Y-58452862D01*
X113074861Y-58254138D01*
X113074858Y-58254135D01*
X113074857Y-58254132D01*
X112935168Y-58072088D01*
X112935161Y-58072080D01*
X112772920Y-57909839D01*
X112772911Y-57909831D01*
X112590867Y-57770142D01*
X112392140Y-57655407D01*
X112392126Y-57655400D01*
X112180137Y-57567592D01*
X111958488Y-57508202D01*
X111920465Y-57503196D01*
X111730991Y-57478250D01*
X111730984Y-57478250D01*
X111501516Y-57478250D01*
X111501508Y-57478250D01*
X111284965Y-57506759D01*
X111274012Y-57508202D01*
X111180326Y-57533304D01*
X111052362Y-57567592D01*
X110840373Y-57655400D01*
X110840359Y-57655407D01*
X110641632Y-57770142D01*
X110459588Y-57909831D01*
X110297331Y-58072088D01*
X110157642Y-58254132D01*
X110042907Y-58452859D01*
X110042900Y-58452873D01*
X109955092Y-58664862D01*
X109895703Y-58886509D01*
X109895701Y-58886520D01*
X109865750Y-59114008D01*
X97670500Y-59114008D01*
X97670500Y-53027000D01*
X97690185Y-52959961D01*
X97742989Y-52914206D01*
X97794500Y-52903000D01*
X147308916Y-52903000D01*
X147370915Y-52919612D01*
G37*
%TD.AperFunction*%
M02*
