%TF.GenerationSoftware,KiCad,Pcbnew,9.0.7*%
%TF.CreationDate,2026-03-26T20:28:37-07:00*%
%TF.ProjectId,3x3_macropad,3378335f-6d61-4637-926f-7061642e6b69,rev?*%
%TF.SameCoordinates,Original*%
%TF.FileFunction,Soldermask,Bot*%
%TF.FilePolarity,Negative*%
%FSLAX46Y46*%
G04 Gerber Fmt 4.6, Leading zero omitted, Abs format (unit mm)*
G04 Created by KiCad (PCBNEW 9.0.7) date 2026-03-26 20:28:37*
%MOMM*%
%LPD*%
G01*
G04 APERTURE LIST*
G04 Aperture macros list*
%AMRoundRect*
0 Rectangle with rounded corners*
0 $1 Rounding radius*
0 $2 $3 $4 $5 $6 $7 $8 $9 X,Y pos of 4 corners*
0 Add a 4 corners polygon primitive as box body*
4,1,4,$2,$3,$4,$5,$6,$7,$8,$9,$2,$3,0*
0 Add four circle primitives for the rounded corners*
1,1,$1+$1,$2,$3*
1,1,$1+$1,$4,$5*
1,1,$1+$1,$6,$7*
1,1,$1+$1,$8,$9*
0 Add four rect primitives between the rounded corners*
20,1,$1+$1,$2,$3,$4,$5,0*
20,1,$1+$1,$4,$5,$6,$7,0*
20,1,$1+$1,$6,$7,$8,$9,0*
20,1,$1+$1,$8,$9,$2,$3,0*%
G04 Aperture macros list end*
%ADD10C,1.750000*%
%ADD11C,4.000000*%
%ADD12C,2.500000*%
%ADD13R,1.600000X1.600000*%
%ADD14C,1.600000*%
%ADD15RoundRect,0.150000X0.150000X0.200000X-0.150000X0.200000X-0.150000X-0.200000X0.150000X-0.200000X0*%
G04 APERTURE END LIST*
D10*
%TO.C,S3*%
X64441250Y-128483750D03*
X54281250Y-128483750D03*
D11*
X59361250Y-128483750D03*
D12*
X61901250Y-123403750D03*
X55551250Y-125943750D03*
%TD*%
D13*
%TO.C,U1*%
X125951250Y-101056250D03*
D14*
X123411250Y-101056250D03*
X120871250Y-101056250D03*
X118331250Y-101056250D03*
X115791250Y-101056250D03*
X113251250Y-101056250D03*
X110711250Y-101056250D03*
X110711250Y-116296250D03*
X113251250Y-116296250D03*
X115791250Y-116296250D03*
X118331250Y-116296250D03*
X120871250Y-116296250D03*
X123411250Y-116296250D03*
X125951250Y-116296250D03*
%TD*%
D12*
%TO.C,S9*%
X93791250Y-125803750D03*
X100141250Y-123263750D03*
D11*
X97601250Y-128343750D03*
D10*
X92521250Y-128343750D03*
X102681250Y-128343750D03*
%TD*%
D12*
%TO.C,S8*%
X93951250Y-106893750D03*
X100301250Y-104353750D03*
D11*
X97761250Y-109433750D03*
D10*
X92681250Y-109433750D03*
X102841250Y-109433750D03*
%TD*%
D12*
%TO.C,S7*%
X94021250Y-87753750D03*
X100371250Y-85213750D03*
D11*
X97831250Y-90293750D03*
D10*
X92751250Y-90293750D03*
X102911250Y-90293750D03*
%TD*%
D12*
%TO.C,S6*%
X74581250Y-125803750D03*
X80931250Y-123263750D03*
D11*
X78391250Y-128343750D03*
D10*
X73311250Y-128343750D03*
X83471250Y-128343750D03*
%TD*%
D12*
%TO.C,S5*%
X74681250Y-106733750D03*
X81031250Y-104193750D03*
D11*
X78491250Y-109273750D03*
D10*
X73411250Y-109273750D03*
X83571250Y-109273750D03*
%TD*%
D12*
%TO.C,S4*%
X74771250Y-87583750D03*
X81121250Y-85043750D03*
D11*
X78581250Y-90123750D03*
D10*
X73501250Y-90123750D03*
X83661250Y-90123750D03*
%TD*%
D12*
%TO.C,S2*%
X55651250Y-106793750D03*
X62001250Y-104253750D03*
D11*
X59461250Y-109333750D03*
D10*
X54381250Y-109333750D03*
X64541250Y-109333750D03*
%TD*%
D12*
%TO.C,S1*%
X55691250Y-87573750D03*
X62041250Y-85033750D03*
D11*
X59501250Y-90113750D03*
D10*
X54421250Y-90113750D03*
X64581250Y-90113750D03*
%TD*%
D15*
%TO.C,D9*%
X96411250Y-119263750D03*
X97811250Y-119263750D03*
%TD*%
%TO.C,D8*%
X97181250Y-99723750D03*
X98581250Y-99723750D03*
%TD*%
%TO.C,D7*%
X97001250Y-80213750D03*
X98401250Y-80213750D03*
%TD*%
%TO.C,D6*%
X78201250Y-118603750D03*
X79601250Y-118603750D03*
%TD*%
%TO.C,D5*%
X77601250Y-99553750D03*
X79001250Y-99553750D03*
%TD*%
%TO.C,D4*%
X77931250Y-80733750D03*
X79331250Y-80733750D03*
%TD*%
%TO.C,D3*%
X59341250Y-118813750D03*
X60741250Y-118813750D03*
%TD*%
%TO.C,D2*%
X58691250Y-100243750D03*
X60091250Y-100243750D03*
%TD*%
%TO.C,D1*%
X59101250Y-80303750D03*
X60501250Y-80303750D03*
%TD*%
M02*
