%TF.GenerationSoftware,KiCad,Pcbnew,9.0.7*%
%TF.CreationDate,2026-03-26T20:28:37-07:00*%
%TF.ProjectId,3x3_macropad,3378335f-6d61-4637-926f-7061642e6b69,rev?*%
%TF.SameCoordinates,Original*%
%TF.FileFunction,Copper,L2,Bot*%
%TF.FilePolarity,Positive*%
%FSLAX46Y46*%
G04 Gerber Fmt 4.6, Leading zero omitted, Abs format (unit mm)*
G04 Created by KiCad (PCBNEW 9.0.7) date 2026-03-26 20:28:37*
%MOMM*%
%LPD*%
G01*
G04 APERTURE LIST*
G04 Aperture macros list*
%AMRoundRect*
0 Rectangle with rounded corners*
0 $1 Rounding radius*
0 $2 $3 $4 $5 $6 $7 $8 $9 X,Y pos of 4 corners*
0 Add a 4 corners polygon primitive as box body*
4,1,4,$2,$3,$4,$5,$6,$7,$8,$9,$2,$3,0*
0 Add four circle primitives for the rounded corners*
1,1,$1+$1,$2,$3*
1,1,$1+$1,$4,$5*
1,1,$1+$1,$6,$7*
1,1,$1+$1,$8,$9*
0 Add four rect primitives between the rounded corners*
20,1,$1+$1,$2,$3,$4,$5,0*
20,1,$1+$1,$4,$5,$6,$7,0*
20,1,$1+$1,$6,$7,$8,$9,0*
20,1,$1+$1,$8,$9,$2,$3,0*%
G04 Aperture macros list end*
%TA.AperFunction,ComponentPad*%
%ADD10C,2.500000*%
%TD*%
%TA.AperFunction,ComponentPad*%
%ADD11R,1.600000X1.600000*%
%TD*%
%TA.AperFunction,ComponentPad*%
%ADD12C,1.600000*%
%TD*%
%TA.AperFunction,SMDPad,CuDef*%
%ADD13RoundRect,0.150000X0.150000X0.200000X-0.150000X0.200000X-0.150000X-0.200000X0.150000X-0.200000X0*%
%TD*%
%TA.AperFunction,Conductor*%
%ADD14C,0.200000*%
%TD*%
G04 APERTURE END LIST*
D10*
%TO.P,S3,2,2*%
%TO.N,Net-(D3-A)*%
X61901250Y-123403750D03*
%TO.P,S3,1,1*%
%TO.N,Column 2*%
X55551250Y-125943750D03*
%TD*%
D11*
%TO.P,U1,1,PA02_A0_D0*%
%TO.N,Column 0*%
X125951250Y-101056250D03*
D12*
%TO.P,U1,2,PA4_A1_D1*%
%TO.N,Column 1*%
X123411250Y-101056250D03*
%TO.P,U1,3,PA10_A2_D2*%
%TO.N,Column 2*%
X120871250Y-101056250D03*
%TO.P,U1,4,PA11_A3_D3*%
%TO.N,Row 0*%
X118331250Y-101056250D03*
%TO.P,U1,5,PA8_A4_D4_SDA*%
%TO.N,Row 1*%
X115791250Y-101056250D03*
%TO.P,U1,6,PA9_A5_D5_SCL*%
%TO.N,Row 2*%
X113251250Y-101056250D03*
%TO.P,U1,7,PB08_A6_D6_TX*%
%TO.N,unconnected-(U1-PB08_A6_D6_TX-Pad7)*%
X110711250Y-101056250D03*
%TO.P,U1,8,PB09_A7_D7_RX*%
%TO.N,unconnected-(U1-PB09_A7_D7_RX-Pad8)*%
X110711250Y-116296250D03*
%TO.P,U1,9,PA7_A8_D8_SCK*%
%TO.N,unconnected-(U1-PA7_A8_D8_SCK-Pad9)*%
X113251250Y-116296250D03*
%TO.P,U1,10,PA5_A9_D9_MISO*%
%TO.N,unconnected-(U1-PA5_A9_D9_MISO-Pad10)*%
X115791250Y-116296250D03*
%TO.P,U1,11,PA6_A10_D10_MOSI*%
%TO.N,unconnected-(U1-PA6_A10_D10_MOSI-Pad11)*%
X118331250Y-116296250D03*
%TO.P,U1,12,3V3*%
%TO.N,unconnected-(U1-3V3-Pad12)*%
X120871250Y-116296250D03*
%TO.P,U1,13,GND*%
%TO.N,unconnected-(U1-GND-Pad13)*%
X123411250Y-116296250D03*
%TO.P,U1,14,5V*%
%TO.N,unconnected-(U1-5V-Pad14)*%
X125951250Y-116296250D03*
%TD*%
D10*
%TO.P,S9,1,1*%
%TO.N,Column 2*%
X93791250Y-125803750D03*
%TO.P,S9,2,2*%
%TO.N,Net-(D9-A)*%
X100141250Y-123263750D03*
%TD*%
%TO.P,S8,1,1*%
%TO.N,Column 1*%
X93951250Y-106893750D03*
%TO.P,S8,2,2*%
%TO.N,Net-(D8-A)*%
X100301250Y-104353750D03*
%TD*%
%TO.P,S7,1,1*%
%TO.N,Column 0*%
X94021250Y-87753750D03*
%TO.P,S7,2,2*%
%TO.N,Net-(D7-A)*%
X100371250Y-85213750D03*
%TD*%
%TO.P,S6,1,1*%
%TO.N,Column 2*%
X74581250Y-125803750D03*
%TO.P,S6,2,2*%
%TO.N,Net-(D6-A)*%
X80931250Y-123263750D03*
%TD*%
%TO.P,S5,1,1*%
%TO.N,Column 1*%
X74681250Y-106733750D03*
%TO.P,S5,2,2*%
%TO.N,Net-(D5-A)*%
X81031250Y-104193750D03*
%TD*%
%TO.P,S4,1,1*%
%TO.N,Column 0*%
X74771250Y-87583750D03*
%TO.P,S4,2,2*%
%TO.N,Net-(D4-A)*%
X81121250Y-85043750D03*
%TD*%
%TO.P,S2,1,1*%
%TO.N,Column 1*%
X55651250Y-106793750D03*
%TO.P,S2,2,2*%
%TO.N,Net-(D2-A)*%
X62001250Y-104253750D03*
%TD*%
%TO.P,S1,1,1*%
%TO.N,Column 0*%
X55691250Y-87573750D03*
%TO.P,S1,2,2*%
%TO.N,Net-(D1-A)*%
X62041250Y-85033750D03*
%TD*%
D13*
%TO.P,D9,1,K*%
%TO.N,Row 2*%
X96411250Y-119263750D03*
%TO.P,D9,2,A*%
%TO.N,Net-(D9-A)*%
X97811250Y-119263750D03*
%TD*%
%TO.P,D8,1,K*%
%TO.N,Row 2*%
X97181250Y-99723750D03*
%TO.P,D8,2,A*%
%TO.N,Net-(D8-A)*%
X98581250Y-99723750D03*
%TD*%
%TO.P,D7,1,K*%
%TO.N,Row 2*%
X97001250Y-80213750D03*
%TO.P,D7,2,A*%
%TO.N,Net-(D7-A)*%
X98401250Y-80213750D03*
%TD*%
%TO.P,D6,1,K*%
%TO.N,Row 1*%
X78201250Y-118603750D03*
%TO.P,D6,2,A*%
%TO.N,Net-(D6-A)*%
X79601250Y-118603750D03*
%TD*%
%TO.P,D5,1,K*%
%TO.N,Row 1*%
X77601250Y-99553750D03*
%TO.P,D5,2,A*%
%TO.N,Net-(D5-A)*%
X79001250Y-99553750D03*
%TD*%
%TO.P,D4,1,K*%
%TO.N,Row 1*%
X77931250Y-80733750D03*
%TO.P,D4,2,A*%
%TO.N,Net-(D4-A)*%
X79331250Y-80733750D03*
%TD*%
%TO.P,D3,1,K*%
%TO.N,Row 0*%
X59341250Y-118813750D03*
%TO.P,D3,2,A*%
%TO.N,Net-(D3-A)*%
X60741250Y-118813750D03*
%TD*%
%TO.P,D2,1,K*%
%TO.N,Row 0*%
X58691250Y-100243750D03*
%TO.P,D2,2,A*%
%TO.N,Net-(D2-A)*%
X60091250Y-100243750D03*
%TD*%
%TO.P,D1,1,K*%
%TO.N,Row 0*%
X59101250Y-80303750D03*
%TO.P,D1,2,A*%
%TO.N,Net-(D1-A)*%
X60501250Y-80303750D03*
%TD*%
D14*
%TO.N,Row 0*%
X106151250Y-97373750D02*
X107081250Y-98303750D01*
X59101250Y-80303750D02*
X59941250Y-79463750D01*
X106151250Y-79463750D02*
X106151250Y-97373750D01*
X59941250Y-79463750D02*
X106151250Y-79463750D01*
X107081250Y-98303750D02*
X115578750Y-98303750D01*
X115578750Y-98303750D02*
X118331250Y-101056250D01*
%TO.N,Row 1*%
X78201250Y-118603750D02*
X78201250Y-122727196D01*
X92557804Y-124843750D02*
X93148804Y-124252750D01*
X100783696Y-124814750D02*
X109610250Y-115988196D01*
X78201250Y-122727196D02*
X80317804Y-124843750D01*
X98936804Y-124252750D02*
X99498804Y-124814750D01*
X80317804Y-124843750D02*
X92557804Y-124843750D01*
X109610250Y-107237250D02*
X115791250Y-101056250D01*
X93148804Y-124252750D02*
X98936804Y-124252750D01*
X99498804Y-124814750D02*
X100783696Y-124814750D01*
X109610250Y-115988196D02*
X109610250Y-107237250D01*
%TO.N,Row 2*%
X97181250Y-99723750D02*
X97832250Y-99072750D01*
X97832250Y-99072750D02*
X111267750Y-99072750D01*
X111267750Y-99072750D02*
X113251250Y-101056250D01*
X97181250Y-99723750D02*
X97181250Y-106688934D01*
X97181250Y-106688934D02*
X95410250Y-108459934D01*
X95410250Y-108459934D02*
X95410250Y-118262750D01*
X95410250Y-118262750D02*
X96411250Y-119263750D01*
X97001250Y-80213750D02*
X97001250Y-87798934D01*
X97001250Y-87798934D02*
X95480250Y-89319934D01*
X95480250Y-89319934D02*
X95480250Y-98022750D01*
X95480250Y-98022750D02*
X97181250Y-99723750D01*
%TO.N,Row 1*%
X77601250Y-99553750D02*
X77601250Y-106838934D01*
X77601250Y-106838934D02*
X76140250Y-108299934D01*
X76140250Y-108299934D02*
X76140250Y-116542750D01*
X76140250Y-116542750D02*
X78201250Y-118603750D01*
X77931250Y-80733750D02*
X77931250Y-87448934D01*
X76230250Y-89149934D02*
X76230250Y-98182750D01*
X77931250Y-87448934D02*
X76230250Y-89149934D01*
X76230250Y-98182750D02*
X77601250Y-99553750D01*
%TO.N,Row 0*%
X58691250Y-100243750D02*
X58691250Y-106778934D01*
X57110250Y-108359934D02*
X57110250Y-116582750D01*
X58691250Y-106778934D02*
X57110250Y-108359934D01*
X57110250Y-116582750D02*
X59341250Y-118813750D01*
X59101250Y-80303750D02*
X59101250Y-86388934D01*
X59101250Y-86388934D02*
X57150250Y-88339934D01*
X57150250Y-88339934D02*
X57150250Y-98702750D01*
X57150250Y-98702750D02*
X58691250Y-100243750D01*
%TO.N,Net-(D9-A)*%
X97811250Y-119263750D02*
X97811250Y-120933750D01*
X97811250Y-120933750D02*
X100141250Y-123263750D01*
%TO.N,Net-(D6-A)*%
X79601250Y-118603750D02*
X79601250Y-121933750D01*
X79601250Y-121933750D02*
X80931250Y-123263750D01*
%TO.N,Net-(D3-A)*%
X61901250Y-123403750D02*
X61901250Y-119973750D01*
X61901250Y-119973750D02*
X60741250Y-118813750D01*
%TO.N,Net-(D8-A)*%
X98581250Y-99723750D02*
X98581250Y-102633750D01*
X98581250Y-102633750D02*
X100301250Y-104353750D01*
%TO.N,Net-(D5-A)*%
X79001250Y-99553750D02*
X79001250Y-102163750D01*
X79001250Y-102163750D02*
X81031250Y-104193750D01*
%TO.N,Net-(D2-A)*%
X60091250Y-100243750D02*
X60091250Y-102343750D01*
X60091250Y-102343750D02*
X62001250Y-104253750D01*
%TO.N,Net-(D7-A)*%
X98401250Y-80213750D02*
X98401250Y-83243750D01*
X98401250Y-83243750D02*
X100371250Y-85213750D01*
%TO.N,Net-(D4-A)*%
X79331250Y-80733750D02*
X79331250Y-83253750D01*
X79331250Y-83253750D02*
X81121250Y-85043750D01*
%TO.N,Net-(D1-A)*%
X60501250Y-80303750D02*
X60501250Y-83493750D01*
X60501250Y-83493750D02*
X62041250Y-85033750D01*
%TD*%
M02*
