%TF.GenerationSoftware,KiCad,Pcbnew,9.0.7*%
%TF.CreationDate,2026-03-26T20:28:37-07:00*%
%TF.ProjectId,3x3_macropad,3378335f-6d61-4637-926f-7061642e6b69,rev?*%
%TF.SameCoordinates,Original*%
%TF.FileFunction,Copper,L1,Top*%
%TF.FilePolarity,Positive*%
%FSLAX46Y46*%
G04 Gerber Fmt 4.6, Leading zero omitted, Abs format (unit mm)*
G04 Created by KiCad (PCBNEW 9.0.7) date 2026-03-26 20:28:37*
%MOMM*%
%LPD*%
G01*
G04 APERTURE LIST*
G04 Aperture macros list*
%AMRoundRect*
0 Rectangle with rounded corners*
0 $1 Rounding radius*
0 $2 $3 $4 $5 $6 $7 $8 $9 X,Y pos of 4 corners*
0 Add a 4 corners polygon primitive as box body*
4,1,4,$2,$3,$4,$5,$6,$7,$8,$9,$2,$3,0*
0 Add four circle primitives for the rounded corners*
1,1,$1+$1,$2,$3*
1,1,$1+$1,$4,$5*
1,1,$1+$1,$6,$7*
1,1,$1+$1,$8,$9*
0 Add four rect primitives between the rounded corners*
20,1,$1+$1,$2,$3,$4,$5,0*
20,1,$1+$1,$4,$5,$6,$7,0*
20,1,$1+$1,$6,$7,$8,$9,0*
20,1,$1+$1,$8,$9,$2,$3,0*%
G04 Aperture macros list end*
%TA.AperFunction,ComponentPad*%
%ADD10C,2.500000*%
%TD*%
%TA.AperFunction,SMDPad,CuDef*%
%ADD11RoundRect,0.500000X-0.500000X0.875000X-0.500000X-0.875000X0.500000X-0.875000X0.500000X0.875000X0*%
%TD*%
%TA.AperFunction,ComponentPad*%
%ADD12R,1.600000X1.600000*%
%TD*%
%TA.AperFunction,ComponentPad*%
%ADD13C,1.600000*%
%TD*%
%TA.AperFunction,Conductor*%
%ADD14C,0.200000*%
%TD*%
G04 APERTURE END LIST*
D10*
%TO.P,S3,2,2*%
%TO.N,Net-(D3-A)*%
X61901250Y-123403750D03*
%TO.P,S3,1,1*%
%TO.N,Column 2*%
X55551250Y-125943750D03*
%TD*%
D11*
%TO.P,U1,1,PA02_A0_D0*%
%TO.N,Column 0*%
X125951250Y-100611250D03*
D12*
X125951250Y-101056250D03*
D11*
%TO.P,U1,2,PA4_A1_D1*%
%TO.N,Column 1*%
X123411250Y-100611250D03*
D13*
X123411250Y-101056250D03*
D11*
%TO.P,U1,3,PA10_A2_D2*%
%TO.N,Column 2*%
X120871250Y-100611250D03*
D13*
X120871250Y-101056250D03*
D11*
%TO.P,U1,4,PA11_A3_D3*%
%TO.N,Row 0*%
X118331250Y-100611250D03*
D13*
X118331250Y-101056250D03*
D11*
%TO.P,U1,5,PA8_A4_D4_SDA*%
%TO.N,Row 1*%
X115791250Y-100611250D03*
D13*
X115791250Y-101056250D03*
D11*
%TO.P,U1,6,PA9_A5_D5_SCL*%
%TO.N,Row 2*%
X113251250Y-100611250D03*
D13*
X113251250Y-101056250D03*
D11*
%TO.P,U1,7,PB08_A6_D6_TX*%
%TO.N,unconnected-(U1-PB08_A6_D6_TX-Pad7)*%
X110711250Y-100611250D03*
D13*
X110711250Y-101056250D03*
%TO.P,U1,8,PB09_A7_D7_RX*%
%TO.N,unconnected-(U1-PB09_A7_D7_RX-Pad8)*%
X110711250Y-116296250D03*
D11*
X110711250Y-116776250D03*
D13*
%TO.P,U1,9,PA7_A8_D8_SCK*%
%TO.N,unconnected-(U1-PA7_A8_D8_SCK-Pad9)*%
X113251250Y-116296250D03*
D11*
X113251250Y-116776250D03*
D13*
%TO.P,U1,10,PA5_A9_D9_MISO*%
%TO.N,unconnected-(U1-PA5_A9_D9_MISO-Pad10)*%
X115791250Y-116296250D03*
D11*
X115791250Y-116776250D03*
D13*
%TO.P,U1,11,PA6_A10_D10_MOSI*%
%TO.N,unconnected-(U1-PA6_A10_D10_MOSI-Pad11)*%
X118331250Y-116296250D03*
D11*
X118331250Y-116776250D03*
D13*
%TO.P,U1,12,3V3*%
%TO.N,unconnected-(U1-3V3-Pad12)*%
X120871250Y-116296250D03*
D11*
X120871250Y-116776250D03*
D13*
%TO.P,U1,13,GND*%
%TO.N,unconnected-(U1-GND-Pad13)*%
X123411250Y-116296250D03*
D11*
X123411250Y-116776250D03*
D13*
%TO.P,U1,14,5V*%
%TO.N,unconnected-(U1-5V-Pad14)*%
X125951250Y-116296250D03*
D11*
X125951250Y-116776250D03*
%TD*%
D10*
%TO.P,S9,1,1*%
%TO.N,Column 2*%
X93791250Y-125803750D03*
%TO.P,S9,2,2*%
%TO.N,Net-(D9-A)*%
X100141250Y-123263750D03*
%TD*%
%TO.P,S8,1,1*%
%TO.N,Column 1*%
X93951250Y-106893750D03*
%TO.P,S8,2,2*%
%TO.N,Net-(D8-A)*%
X100301250Y-104353750D03*
%TD*%
%TO.P,S7,1,1*%
%TO.N,Column 0*%
X94021250Y-87753750D03*
%TO.P,S7,2,2*%
%TO.N,Net-(D7-A)*%
X100371250Y-85213750D03*
%TD*%
%TO.P,S6,1,1*%
%TO.N,Column 2*%
X74581250Y-125803750D03*
%TO.P,S6,2,2*%
%TO.N,Net-(D6-A)*%
X80931250Y-123263750D03*
%TD*%
%TO.P,S5,1,1*%
%TO.N,Column 1*%
X74681250Y-106733750D03*
%TO.P,S5,2,2*%
%TO.N,Net-(D5-A)*%
X81031250Y-104193750D03*
%TD*%
%TO.P,S4,1,1*%
%TO.N,Column 0*%
X74771250Y-87583750D03*
%TO.P,S4,2,2*%
%TO.N,Net-(D4-A)*%
X81121250Y-85043750D03*
%TD*%
%TO.P,S2,1,1*%
%TO.N,Column 1*%
X55651250Y-106793750D03*
%TO.P,S2,2,2*%
%TO.N,Net-(D2-A)*%
X62001250Y-104253750D03*
%TD*%
%TO.P,S1,1,1*%
%TO.N,Column 0*%
X55691250Y-87573750D03*
%TO.P,S1,2,2*%
%TO.N,Net-(D1-A)*%
X62041250Y-85033750D03*
%TD*%
D14*
%TO.N,Column 0*%
X94021250Y-87753750D02*
X94021250Y-89808566D01*
X94021250Y-89808566D02*
X102156434Y-97943750D01*
X123283750Y-97943750D02*
X125951250Y-100611250D01*
X102156434Y-97943750D02*
X123283750Y-97943750D01*
%TO.N,Column 1*%
X93951250Y-106893750D02*
X101909750Y-98935250D01*
X122421620Y-98935250D02*
X123411250Y-99924880D01*
X101909750Y-98935250D02*
X122421620Y-98935250D01*
X123411250Y-99924880D02*
X123411250Y-101056250D01*
%TO.N,Column 2*%
X106691250Y-112903750D02*
X120751250Y-112903750D01*
X93791250Y-125803750D02*
X106691250Y-112903750D01*
X120751250Y-112903750D02*
X120871250Y-112783750D01*
X120871250Y-112783750D02*
X120871250Y-101056250D01*
X93791250Y-125803750D02*
X74581250Y-125803750D01*
X55551250Y-125943750D02*
X74441250Y-125943750D01*
X74441250Y-125943750D02*
X74581250Y-125803750D01*
%TO.N,Column 1*%
X74681250Y-106733750D02*
X93791250Y-106733750D01*
X93791250Y-106733750D02*
X93951250Y-106893750D01*
%TO.N,Column 0*%
X55691250Y-87573750D02*
X74761250Y-87573750D01*
X74761250Y-87573750D02*
X74771250Y-87583750D01*
%TO.N,Column 1*%
X55651250Y-106793750D02*
X74621250Y-106793750D01*
X74621250Y-106793750D02*
X74681250Y-106733750D01*
%TO.N,Column 0*%
X55691250Y-87573750D02*
X93841250Y-87573750D01*
X93841250Y-87573750D02*
X94021250Y-87753750D01*
%TD*%
M02*
