M48
; DRILL file {KiCad 9.0.7} date 2026-03-26T20:28:44-0700
; FORMAT={-:-/ absolute / metric / decimal}
; #@! TF.CreationDate,2026-03-26T20:28:44-07:00
; #@! TF.GenerationSoftware,Kicad,Pcbnew,9.0.7
; #@! TF.FileFunction,Plated,1,2,PTH
FMAT,2
METRIC
; #@! TA.AperFunction,Plated,PTH,ComponentDrill
T1C1.000
; #@! TA.AperFunction,Plated,PTH,ComponentDrill
T2C1.500
%
G90
G05
T1
X110.711Y-101.056
X110.711Y-116.296
X113.251Y-101.056
X113.251Y-116.296
X115.791Y-101.056
X115.791Y-116.296
X118.331Y-101.056
X118.331Y-116.296
X120.871Y-101.056
X120.871Y-116.296
X123.411Y-101.056
X123.411Y-116.296
X125.951Y-101.056
X125.951Y-116.296
T2
X55.551Y-125.944
X55.651Y-106.794
X55.691Y-87.574
X61.901Y-123.404
X62.001Y-104.254
X62.041Y-85.034
X74.581Y-125.804
X74.681Y-106.734
X74.771Y-87.584
X80.931Y-123.264
X81.031Y-104.194
X81.121Y-85.044
X93.791Y-125.804
X93.951Y-106.894
X94.021Y-87.754
X100.141Y-123.264
X100.301Y-104.354
X100.371Y-85.214
M30
