M48
; DRILL file {KiCad 9.0.7} date 2026-03-26T20:28:44-0700
; FORMAT={-:-/ absolute / metric / decimal}
; #@! TF.CreationDate,2026-03-26T20:28:44-07:00
; #@! TF.GenerationSoftware,Kicad,Pcbnew,9.0.7
; #@! TF.FileFunction,NonPlated,1,2,NPTH
FMAT,2
METRIC
; #@! TA.AperFunction,NonPlated,NPTH,ComponentDrill
T1C1.750
; #@! TA.AperFunction,NonPlated,NPTH,ComponentDrill
T2C4.000
%
G90
G05
T1
X54.281Y-128.484
X54.381Y-109.334
X54.421Y-90.114
X64.441Y-128.484
X64.541Y-109.334
X64.581Y-90.114
X73.311Y-128.344
X73.411Y-109.274
X73.501Y-90.124
X83.471Y-128.344
X83.571Y-109.274
X83.661Y-90.124
X92.521Y-128.344
X92.681Y-109.434
X92.751Y-90.294
X102.681Y-128.344
X102.841Y-109.434
X102.911Y-90.294
T2
X59.361Y-128.484
X59.461Y-109.334
X59.501Y-90.114
X78.391Y-128.344
X78.491Y-109.274
X78.581Y-90.124
X97.601Y-128.344
X97.761Y-109.434
X97.831Y-90.294
M30
