M48
; DRILL file {KiCad 9.0.7} date 2026-02-17T22:11:02-0800
; FORMAT={-:-/ absolute / metric / decimal}
; #@! TF.CreationDate,2026-02-17T22:11:02-08:00
; #@! TF.GenerationSoftware,Kicad,Pcbnew,9.0.7
; #@! TF.FileFunction,NonPlated,1,2,NPTH
FMAT,2
METRIC
; #@! TA.AperFunction,NonPlated,NPTH,ComponentDrill
T1C1.750
; #@! TA.AperFunction,NonPlated,NPTH,ComponentDrill
T2C4.000
%
G90
G05
T1
X103.996Y-64.309
X103.996Y-83.359
X103.996Y-102.409
X114.156Y-64.309
X114.156Y-83.359
X114.156Y-102.409
X123.046Y-64.309
X123.046Y-83.359
X123.046Y-102.409
X133.206Y-64.309
X133.206Y-83.359
X133.206Y-102.409
X142.096Y-64.309
X142.096Y-83.359
X142.096Y-102.409
X152.256Y-64.309
X152.256Y-83.359
X152.256Y-102.409
T2
X109.076Y-64.309
X109.076Y-83.359
X109.076Y-102.409
X128.126Y-64.309
X128.126Y-83.359
X128.126Y-102.409
X147.176Y-64.309
X147.176Y-83.359
X147.176Y-102.409
M30
