M48
; DRILL file {KiCad 9.0.7} date 2026-02-17T22:11:02-0800
; FORMAT={-:-/ absolute / metric / decimal}
; #@! TF.CreationDate,2026-02-17T22:11:02-08:00
; #@! TF.GenerationSoftware,Kicad,Pcbnew,9.0.7
; #@! TF.FileFunction,Plated,1,2,PTH
FMAT,2
METRIC
; #@! TA.AperFunction,Plated,PTH,ViaDrill
T1C0.300
; #@! TA.AperFunction,Plated,PTH,ComponentDrill
T2C0.800
; #@! TA.AperFunction,Plated,PTH,ComponentDrill
T3C1.000
; #@! TA.AperFunction,Plated,PTH,ComponentDrill
T4C1.500
%
G90
G05
T1
X123.364Y-73.834
X140.032Y-76.215
X144.795Y-73.834
X154.32Y-80.977
T2
X118.601Y-59.546
X118.601Y-67.166
X118.601Y-97.646
X118.601Y-105.266
X118.851Y-78.346
X118.851Y-85.966
X137.651Y-59.546
X137.651Y-67.166
X137.651Y-78.596
X137.651Y-86.216
X137.651Y-97.646
X137.651Y-105.266
X156.701Y-59.546
X156.701Y-67.166
X156.701Y-78.596
X156.701Y-86.216
X156.951Y-97.396
X156.951Y-105.016
T3
X163.369Y-75.739
X163.369Y-78.279
X163.369Y-80.819
X163.369Y-83.359
X163.369Y-85.899
X163.369Y-88.439
X163.369Y-90.979
X178.609Y-75.739
X178.609Y-78.279
X178.609Y-80.819
X178.609Y-83.359
X178.609Y-85.899
X178.609Y-88.439
X178.609Y-90.979
T4
X105.266Y-61.769
X105.266Y-80.819
X105.266Y-99.869
X111.616Y-59.229
X111.616Y-78.279
X111.616Y-97.329
X124.316Y-61.769
X124.316Y-80.819
X124.316Y-99.869
X130.666Y-59.229
X130.666Y-78.279
X130.666Y-97.329
X143.366Y-61.769
X143.366Y-80.819
X143.366Y-99.869
X149.716Y-59.229
X149.716Y-78.279
X149.716Y-97.329
M30
